<svg width="90" height="60" viewBox="0 0 90 60" fill="none" xmlns="http://www.w3.org/2000/svg">
<path d="M82.5 0H7.5C3.35781 0 0 3.35781 0 7.5V52.5C0 56.6406 3.35781 60 7.5 60H82.5C86.6422 60 90 56.6422 90 52.5V7.5C90 3.35781 86.6406 0 82.5 0ZM27.3594 15C30.1219 15 32.3594 17.2391 32.3594 20C32.3594 22.7609 30.1219 25 27.3594 25C24.5984 25 22.3594 22.7609 22.3594 20C22.3594 17.2391 24.7344 15 27.3594 15ZM69.7031 48.6875C69.2656 49.5 68.4219 50 67.5 50H22.5C21.5589 50 20.6984 49.472 20.2719 48.6328C19.8453 47.7942 19.9258 46.7875 20.48 46.0266L31.4175 31.0266C31.8906 30.375 32.6406 30 33.2969 30C34.0953 30 34.8459 30.3814 35.3172 31.0272L38.8094 35.8178L48.6125 21.1131C49.0781 20.4219 49.8594 20 50.8281 20C51.6637 20 52.4437 20.4175 52.9078 21.1133L69.5797 46.1133C70.0938 46.875 70.1406 47.8594 69.7031 48.6875Z" fill="#002F56"/>
</svg>
