<svg width="176" height="42" viewBox="0 0 176 42" fill="none" xmlns="http://www.w3.org/2000/svg">
<path fill-rule="evenodd" clip-rule="evenodd" d="M23.2714 27.0561C23.4641 27.0624 23.6789 27.0655 23.9063 27.0655H23.9094C24.7086 27.0655 25.4003 27.0185 25.9689 26.9276C27.1091 26.7426 27.9177 25.7427 27.8482 24.6018C27.684 21.8966 27.3334 15.2201 27.6145 11.6467C27.7061 10.1108 28.1167 2.36847 27.207 0.691497L26.9354 0.193105L26.3416 0.202509L26.26 0.20373C24.882 0.224398 15.9183 0.358842 13.1259 0.202509C10.7096 0.0677239 4.75243 -0.132887 1.76754 0.124146C0.854696 0.202509 0.18191 0.973605 0.22929 1.87635C0.352476 3.93888 0.605165 9.07638 0.311414 12.2862C0.22929 13.1795 0.147166 14.1293 0.112421 15.079C0.0302968 17.3484 -0.0834134 21.486 0.0934692 23.7084C0.166117 24.608 0.84522 25.3352 1.74543 25.4794C3.95962 25.8336 9.62933 26.6455 14.4431 26.5671C16.4393 26.5389 20.0085 26.5985 21.67 26.8806C22.2985 26.9871 22.7944 27.0404 23.2714 27.0561ZM21.989 25.05C20.4792 24.793 17.5985 24.7021 15.4064 24.7021L15.4033 24.7115C15.0464 24.7115 14.7115 24.7146 14.4146 24.7177C9.70198 24.7836 4.19335 23.9936 2.04234 23.652C1.99496 23.6457 1.96337 23.6112 1.96021 23.5674C1.78965 21.4359 1.90336 17.3798 1.98548 15.1511C2.02023 14.2484 2.09919 13.3268 2.17816 12.4586C2.47507 9.22057 2.24133 4.18024 2.11183 1.96725C4.79033 1.76351 10.1568 1.90143 13.0185 2.06442C15.5265 2.20548 22.4438 2.12398 25.6941 2.07696C25.9941 3.71946 25.9499 8.02318 25.7414 11.5245C25.454 15.1919 25.8109 21.9719 25.9752 24.7177C25.9878 24.9027 25.8551 25.0657 25.6656 25.097C24.9139 25.2161 23.9789 25.2193 23.3283 25.2004C22.9429 25.1879 22.5291 25.1409 21.989 25.05ZM13.443 22.1913C12.6186 22.1913 11.93 22.1756 11.7247 22.1286C11.4215 22.0596 11.2162 21.7838 11.2351 21.4766L11.3488 19.621C10.6445 19.3608 10.2023 19.1633 9.91798 19.0066L8.32604 20.1256C8.18074 20.2259 8.00386 20.2635 7.83013 20.2291C7.65641 20.1946 7.50795 20.088 7.41635 19.9375C4.80102 15.6213 4.96843 15.3548 5.18321 15.0132C5.24007 14.9223 5.31903 14.8471 5.41379 14.7969L7.22684 13.797C7.13524 13.4052 7.08154 13.1293 7.05311 12.9287L5.06634 11.5213C4.80102 11.3332 4.72205 10.9728 4.8863 10.6938C7.15991 6.80798 7.58038 6.63466 7.78575 6.55L7.78591 6.54993C8.00386 6.45903 8.25339 6.49665 8.43343 6.6471L9.94956 7.89465C10.4739 7.54672 10.8877 7.28655 11.1972 7.12042V5.15507C11.1972 4.82907 11.4499 4.55637 11.7784 4.52816C16.4911 4.13007 16.6869 4.19276 16.829 4.23978C17.1228 4.33695 17.3028 4.6316 17.2554 4.93565L16.9364 6.88846L17.944 7.4182C19.8708 6.6377 20.1487 6.6377 20.253 6.6377C20.4646 6.6377 20.6604 6.74114 20.7773 6.91354C21.7723 8.36797 22.9725 10.2205 23.0483 10.7784C23.0831 11.0449 22.9473 11.3019 22.7072 11.421L20.7963 12.3833L20.7268 13.8189C22.8936 15.0477 22.9631 15.2859 23.0294 15.5178C23.0768 15.684 23.0547 15.8626 22.9662 16.01L20.6573 19.8874C20.4899 20.1664 20.1361 20.2761 19.8392 20.135C18.7021 19.5959 18.0609 19.2072 17.6977 18.9125L17.2397 19.1602L17.2997 21.4891C17.3028 21.6553 17.2428 21.8183 17.1259 21.9405C17.0091 22.0628 16.8511 22.1317 16.6837 22.1349C15.9225 22.1537 14.5611 22.1819 13.4493 22.1819L13.443 22.1913ZM12.5365 20.9281C13.2787 20.9406 14.6527 20.9281 16.0109 20.8998L15.9573 18.8154C15.9509 18.5803 16.0804 18.3577 16.2889 18.2449L17.5334 17.5741C17.7198 17.4738 17.9472 17.4738 18.1335 17.5741C18.263 17.6431 18.3641 17.7559 18.421 17.8876C18.5979 18.0537 19.1948 18.4079 19.8645 18.7527L21.6017 15.8313C21.1784 15.5461 20.4204 15.0947 19.7634 14.7279C19.5549 14.612 19.4286 14.3863 19.4412 14.1481L19.5486 11.9633C19.5581 11.7376 19.6907 11.5338 19.896 11.4335L21.608 10.5715C21.2922 10.0011 20.6288 8.95726 19.9813 7.99496C19.5423 8.14541 18.7905 8.43693 18.1525 8.69709C17.9788 8.76919 17.7798 8.75978 17.6124 8.67202L15.9415 7.79121C15.7014 7.66583 15.5687 7.40253 15.613 7.13609L15.8814 5.48419C15.1044 5.52807 13.7778 5.62838 12.467 5.73495V7.51851C12.467 7.80375 12.2711 8.05451 11.9963 8.12661C11.7847 8.2081 10.9414 8.74411 10.2749 9.19862C10.0412 9.35848 9.72846 9.34594 9.51052 9.16414L8.08914 7.99496C7.66904 8.56544 6.9394 9.71895 6.27609 10.8286L8.04176 12.0824C8.24075 12.2234 8.33551 12.4617 8.30077 12.6905C8.31972 12.8848 8.44922 13.4804 8.57241 13.9537C8.64506 14.2296 8.51871 14.5211 8.26602 14.659L6.46561 15.6526C6.74989 16.2701 7.44794 17.5208 8.15231 18.7025L9.54526 17.7214C9.6874 17.6211 9.86428 17.5835 10.0348 17.618C10.177 17.6462 10.3033 17.7214 10.3949 17.828C10.6129 17.9816 11.4973 18.3421 12.2175 18.5928C12.4859 18.6869 12.6565 18.9439 12.6407 19.2229L12.5365 20.9249V20.9281ZM10.0822 10.5809C10.0822 10.5809 10.0728 10.5809 10.0664 10.5841C10.0728 10.5841 10.0759 10.5841 10.0822 10.5809ZM10.8435 13.1952C10.8435 14.9223 12.5617 16.3266 14.6749 16.3266C16.788 16.3266 18.5063 14.9223 18.5063 13.1952C18.5063 11.468 16.788 10.0637 14.6749 10.0637C12.5617 10.0637 10.8435 11.468 10.8435 13.1952ZM12.1101 13.1952C12.1101 12.1608 13.2598 11.3207 14.6749 11.3207C16.0899 11.3207 17.2397 12.1608 17.2397 13.1952C17.2397 14.2296 16.0899 15.0696 14.6749 15.0696C13.2598 15.0696 12.1101 14.2296 12.1101 13.1952Z" fill="#002F56"/>
<path d="M61.7269 25.0506C61.4679 24.2513 61.1931 23.4332 60.8962 22.59C60.5993 21.7499 60.3024 20.9099 60.0086 20.0761H50.9655C50.6717 20.913 50.3812 21.7531 50.0874 22.5962C49.7937 23.4394 49.5189 24.2575 49.2662 25.0506H43.8523C44.7241 22.5743 45.5516 20.2861 46.3318 18.1859C47.1151 16.0858 47.8795 14.1079 48.6281 12.2491C49.3767 10.3935 50.1127 8.62874 50.8392 6.96117C51.5656 5.29359 52.3205 3.6605 53.1007 2.07129H58.0408C58.802 3.66363 59.5506 5.29359 60.2897 6.96117C61.0289 8.63188 61.7711 10.3935 62.5229 12.2491C63.2715 14.1048 64.039 16.0858 64.8224 18.1859C65.6057 20.2861 66.4332 22.5743 67.305 25.0506H61.7237H61.7269ZM55.4634 7.27776C55.3465 7.61002 55.1759 8.06452 54.9517 8.64128C54.7274 9.2149 54.4716 9.87942 54.1873 10.6317C53.8999 11.384 53.5808 12.2147 53.2271 13.1174C52.8733 14.0201 52.5132 14.973 52.15 15.9636H58.7704C58.4167 14.9668 58.0724 14.0139 57.7407 13.108C57.4091 12.199 57.0932 11.3715 56.7931 10.616C56.4931 9.86375 56.2309 9.19923 56.0067 8.62561C55.7824 8.05199 55.5992 7.60375 55.4602 7.27462L55.4634 7.27776Z" fill="#002F56"/>
<path d="M79.1687 25.5176C75.4036 25.5176 72.5356 24.4801 70.5646 22.4019C68.5936 20.3237 67.6082 17.3741 67.6082 13.55C67.6082 11.6504 67.9082 9.95151 68.5115 8.45947C69.1117 6.96743 69.9361 5.70734 70.9847 4.67922C72.0302 3.65109 73.2779 2.87372 74.7277 2.34085C76.1743 1.81111 77.7473 1.54468 79.4403 1.54468C80.4195 1.54468 81.3102 1.61677 82.1125 1.76096C82.9148 1.90515 83.616 2.07128 84.2162 2.25935C84.8163 2.44742 85.3185 2.64177 85.7197 2.83924C86.1208 3.03672 86.4082 3.19344 86.5883 3.30315L85.0848 7.48149C84.3709 7.10535 83.5434 6.78562 82.5958 6.51919C81.6482 6.25275 80.5743 6.1211 79.3708 6.1211C78.5686 6.1211 77.7852 6.25275 77.0145 6.51919C76.247 6.78562 75.5679 7.21192 74.9772 7.79495C74.3865 8.37797 73.9128 9.13653 73.5558 10.0675C73.1989 10.9953 73.022 12.1237 73.022 13.4497C73.022 14.5091 73.1389 15.4996 73.3726 16.4181C73.6064 17.3365 73.9854 18.1264 74.5097 18.7878C75.0341 19.4523 75.7195 19.9758 76.566 20.3644C77.4125 20.75 78.4359 20.9443 79.6393 20.9443C80.3974 20.9443 81.0765 20.9004 81.6766 20.8127C82.2768 20.7249 82.8137 20.6183 83.2812 20.4992C83.7487 20.377 84.1625 20.2391 84.5162 20.0855C84.8731 19.9319 85.1953 19.7877 85.4859 19.6529L86.9231 23.7968C86.1871 24.2387 85.1511 24.6368 83.815 24.991C82.4789 25.3452 80.9312 25.5208 79.1719 25.5208L79.1687 25.5176Z" fill="#002F56"/>
<path d="M98.4807 25.5177C96.854 25.5177 95.4515 25.292 94.2702 24.8375C93.0889 24.3861 92.116 23.7561 91.3453 22.9473C90.5778 22.1418 90.0092 21.1795 89.6428 20.0636C89.2764 18.9477 89.0901 17.7158 89.0901 16.368V2.07446H94.3018V15.9323C94.3018 16.8601 94.406 17.65 94.6177 18.302C94.8293 18.9539 95.1199 19.4837 95.4863 19.8943C95.8527 20.3049 96.2981 20.5964 96.8224 20.772C97.3467 20.9506 97.9184 21.0384 98.5438 21.0384C99.8136 21.0384 100.843 20.6529 101.636 19.8786C102.426 19.1044 102.821 17.791 102.821 15.9323V2.07446H108.032V16.3648C108.032 17.7127 107.843 18.9508 107.464 20.0792C107.085 21.2077 106.507 22.1731 105.727 22.9818C104.946 23.7905 103.955 24.4143 102.751 24.8563C101.548 25.2983 100.123 25.5208 98.4743 25.5208L98.4807 25.5177Z" fill="#002F56"/>
<path d="M132.496 13.5468C132.496 15.5373 132.183 17.2707 131.561 18.7533C130.935 20.2359 130.051 21.4615 128.904 22.4332C127.758 23.4049 126.359 24.1353 124.71 24.6211C123.061 25.107 121.213 25.3515 119.163 25.3515C118.228 25.3515 117.135 25.3139 115.888 25.2355C114.64 25.1572 113.415 24.9973 112.211 24.7559V2.3722C113.415 2.15278 114.665 2.00232 115.97 1.92396C117.271 1.8456 118.393 1.80798 119.328 1.80798C121.311 1.80798 123.108 2.03054 124.722 2.47251C126.337 2.91448 127.723 3.61034 128.882 4.56011C130.042 5.50987 130.932 6.72607 131.555 8.20871C132.177 9.69135 132.489 11.4686 132.489 13.5468H132.496ZM117.426 20.8409C117.669 20.8628 117.954 20.8785 118.279 20.891C118.601 20.9036 118.986 20.9067 119.432 20.9067C122.038 20.9067 123.971 20.2547 125.228 18.9508C126.485 17.6468 127.117 15.8444 127.117 13.5468C127.117 11.2492 126.517 9.3152 125.313 8.07706C124.11 6.83892 122.205 6.22141 119.599 6.22141C119.242 6.22141 118.876 6.22768 118.497 6.23708C118.118 6.24962 117.761 6.2747 117.429 6.31858V20.8409H117.426Z" fill="#002F56"/>
<path d="M136.005 25.0506V2.07446H151.64V6.41893H141.217V10.9295H150.471V15.1737H141.217V20.7124H152.411V25.0569H136.005V25.0506Z" fill="#002F56"/>
<path d="M170.952 25.0506C169.458 22.4207 167.844 19.8222 166.106 17.2582C164.369 14.6941 162.521 12.2742 160.56 9.99544V25.0475H155.415V2.07446H159.657C160.393 2.80481 161.204 3.69815 162.095 4.76076C162.986 5.82023 163.892 6.95494 164.818 8.1586C165.74 9.36226 166.659 10.6129 167.575 11.9044C168.488 13.1989 169.347 14.4402 170.149 15.6345V2.07446H175.33V25.0506H170.952Z" fill="#002F56"/>
<path d="M98.71 36.3598C98.71 36.8018 98.6564 37.1999 98.5458 37.5541C98.4352 37.9083 98.2805 38.2186 98.0846 38.485C97.8856 38.7515 97.6487 38.974 97.3739 39.1496C97.0991 39.3251 96.7959 39.4536 96.4674 39.532C96.499 39.6542 96.5653 39.7514 96.6696 39.8266C96.7738 39.9019 96.9033 39.9645 97.0644 40.0116C97.2223 40.0617 97.4087 40.0962 97.6172 40.1213C97.8288 40.1464 98.0562 40.1652 98.2994 40.184L98.0057 41.2215C97.5287 41.2027 97.1213 41.1557 96.7833 41.0804C96.4453 41.0052 96.1579 40.8986 95.921 40.767C95.6841 40.6322 95.5009 40.4692 95.3619 40.2749C95.2261 40.0805 95.1187 39.858 95.046 39.6009C94.667 39.5508 94.3164 39.4473 93.9942 39.2875C93.6689 39.1276 93.3909 38.9113 93.1509 38.6386C92.914 38.3659 92.7276 38.0399 92.5918 37.6575C92.456 37.2751 92.3896 36.8425 92.3896 36.3567C92.3896 35.8176 92.4749 35.3442 92.6455 34.9336C92.8161 34.523 93.0466 34.1813 93.3372 33.9024C93.6278 33.6234 93.9626 33.4134 94.3448 33.2754C94.727 33.1344 95.1282 33.0654 95.5483 33.0654C95.9684 33.0654 96.3916 33.1344 96.777 33.2754C97.1623 33.4134 97.4971 33.6234 97.7846 33.9024C98.072 34.1813 98.2963 34.5261 98.4637 34.9336C98.6279 35.3411 98.71 35.8176 98.71 36.3567V36.3598ZM93.8647 36.3598C93.8647 36.6701 93.9026 36.9491 93.9784 37.1967C94.0542 37.4444 94.1648 37.6575 94.3069 37.8362C94.4491 38.0149 94.626 38.1528 94.8344 38.25C95.0429 38.3471 95.2798 38.3941 95.5483 38.3941C95.8167 38.3941 96.0473 38.3471 96.259 38.25C96.4706 38.1528 96.6475 38.0149 96.7896 37.8362C96.9317 37.6575 97.0423 37.4444 97.1181 37.1967C97.1939 36.9491 97.2318 36.6701 97.2318 36.3598C97.2318 36.0495 97.1939 35.7705 97.1181 35.5198C97.0423 35.269 96.9317 35.0527 96.7896 34.8741C96.6443 34.6954 96.4674 34.5575 96.259 34.4603C96.0473 34.3631 95.8104 34.3161 95.5483 34.3161C95.2861 34.3161 95.0397 34.3663 94.8344 34.4666C94.626 34.5669 94.4522 34.7048 94.3069 34.8835C94.1648 35.0621 94.0542 35.2784 93.9784 35.5292C93.9026 35.7799 93.8647 36.0589 93.8647 36.3598Z" fill="#002F56"/>
<path d="M102.284 39.4912C101.839 39.4912 101.454 39.4285 101.131 39.3063C100.806 39.1809 100.541 39.0085 100.329 38.7891C100.117 38.5665 99.9627 38.3032 99.8616 37.9992C99.7605 37.692 99.71 37.3566 99.71 36.9867V33.0686H101.138V36.8676C101.138 37.1215 101.166 37.3378 101.226 37.5165C101.286 37.6951 101.365 37.8393 101.463 37.9522C101.564 38.065 101.687 38.1434 101.829 38.1935C101.972 38.2437 102.129 38.2656 102.3 38.2656C102.647 38.2656 102.932 38.1591 103.147 37.9459C103.364 37.7328 103.472 37.3723 103.472 36.8645V33.0654H104.9V36.9836C104.9 37.3535 104.849 37.692 104.745 38.0023C104.641 38.3126 104.483 38.5759 104.268 38.7985C104.053 39.0211 103.781 39.1903 103.453 39.3126C103.124 39.4348 102.733 39.4944 102.281 39.4944L102.284 39.4912Z" fill="#002F56"/>
<path d="M110.798 39.3627C110.729 39.1433 110.653 38.9176 110.571 38.6888C110.489 38.4568 110.41 38.228 110.328 37.9992H107.848C107.769 38.228 107.687 38.46 107.608 38.6888C107.529 38.9207 107.453 39.1433 107.384 39.3627H105.899C106.139 38.6825 106.364 38.0556 106.579 37.482C106.793 36.9084 107.002 36.363 107.207 35.8552C107.412 35.3474 107.615 34.8615 107.814 34.407C108.013 33.9494 108.221 33.5011 108.433 33.0654H109.788C109.996 33.5011 110.201 33.9494 110.404 34.407C110.606 34.8647 110.811 35.3474 111.016 35.8552C111.222 36.363 111.433 36.9052 111.648 37.482C111.863 38.0587 112.09 38.6857 112.33 39.3627H110.798ZM109.08 34.4916C109.049 34.5825 109.001 34.7079 108.941 34.8647C108.878 35.0214 108.809 35.2032 108.733 35.4101C108.654 35.6169 108.565 35.8426 108.471 36.0903C108.373 36.3379 108.275 36.5981 108.174 36.8708H109.99C109.892 36.5981 109.797 36.3379 109.709 36.0871C109.62 35.8364 109.532 35.6107 109.45 35.4038C109.368 35.1969 109.295 35.0151 109.235 34.8584C109.172 34.7017 109.124 34.5763 109.086 34.4885L109.08 34.4916Z" fill="#002F56"/>
<path d="M117.573 38.1465V39.3658H113.331V33.0654H114.759V38.1465H117.57H117.573Z" fill="#002F56"/>
<path d="M118.572 33.0654H120V39.3658H118.572V33.0654Z" fill="#002F56"/>
<path d="M126.256 33.0654V34.2754H124.342V39.3658H122.914V34.2754H121V33.0654H126.259H126.256Z" fill="#002F56"/>
<path d="M130.273 35.6546C130.529 35.2251 130.775 34.7957 131.006 34.3663C131.236 33.9368 131.451 33.5043 131.647 33.0686H133.223C132.876 33.7488 132.516 34.4039 132.143 35.0402C131.77 35.6765 131.375 36.3159 130.962 36.9585V39.3658H129.534V36.9742C129.12 36.3316 128.722 35.689 128.346 35.0465C127.97 34.4039 127.61 33.7425 127.26 33.0654H128.918C129.114 33.5011 129.322 33.9337 129.55 34.3631C129.774 34.7926 130.017 35.222 130.273 35.6514V35.6546Z" fill="#002F56"/>
<path d="M140.345 38.4286C140.547 38.4286 140.715 38.413 140.844 38.3785C140.977 38.344 141.081 38.3001 141.16 38.2406C141.239 38.1841 141.293 38.1152 141.324 38.0368C141.356 37.9584 141.369 37.8707 141.369 37.7735C141.369 37.5666 141.271 37.3974 141.075 37.2594C140.879 37.1247 140.544 36.9773 140.067 36.8175C139.859 36.7454 139.654 36.6607 139.445 36.5667C139.237 36.4727 139.05 36.3536 138.886 36.2125C138.722 36.0715 138.586 35.8991 138.482 35.6953C138.377 35.4916 138.327 35.2439 138.327 34.9556C138.327 34.6672 138.381 34.4039 138.491 34.1688C138.602 33.9368 138.756 33.7362 138.959 33.5732C139.161 33.4102 139.404 33.2848 139.691 33.1971C139.979 33.1093 140.301 33.0654 140.661 33.0654C141.088 33.0654 141.457 33.1093 141.77 33.2002C142.082 33.2911 142.338 33.3914 142.54 33.5011L142.13 34.6202C141.953 34.5293 141.757 34.4478 141.539 34.3788C141.321 34.3098 141.062 34.2754 140.756 34.2754C140.415 34.2754 140.168 34.3224 140.02 34.4164C139.871 34.5105 139.796 34.6546 139.796 34.849C139.796 34.965 139.824 35.0621 139.878 35.1405C139.931 35.2189 140.01 35.291 140.112 35.3536C140.213 35.4163 140.329 35.4759 140.459 35.526C140.592 35.5793 140.737 35.6295 140.895 35.6859C141.223 35.8082 141.511 35.9273 141.757 36.0464C142.004 36.1655 142.206 36.3034 142.367 36.4601C142.528 36.6169 142.648 36.8018 142.73 37.0149C142.812 37.2281 142.85 37.4851 142.85 37.786C142.85 38.3753 142.642 38.8298 142.228 39.1527C141.811 39.4756 141.185 39.6386 140.348 39.6386C140.067 39.6386 139.815 39.6229 139.587 39.5884C139.363 39.5539 139.161 39.5132 138.987 39.4662C138.813 39.416 138.665 39.3658 138.539 39.3126C138.412 39.2593 138.308 39.206 138.223 39.159L138.627 38.0305C138.816 38.134 139.05 38.2249 139.328 38.3064C139.606 38.3879 139.947 38.4286 140.348 38.4286H140.345Z" fill="#002F56"/>
<path d="M146.864 35.6546C147.12 35.2251 147.366 34.7957 147.597 34.3663C147.827 33.9368 148.042 33.5043 148.238 33.0686H149.814C149.467 33.7488 149.107 34.4039 148.734 35.0402C148.361 35.6765 147.966 36.3159 147.552 36.9585V39.3658H146.125V36.9742C145.711 36.3316 145.313 35.689 144.937 35.0465C144.561 34.4039 144.201 33.7425 143.851 33.0654H145.509C145.705 33.5011 145.913 33.9337 146.141 34.3631C146.365 34.7926 146.608 35.222 146.864 35.6514V35.6546Z" fill="#002F56"/>
<path d="M152.936 38.4286C153.138 38.4286 153.306 38.413 153.435 38.3785C153.568 38.344 153.672 38.3001 153.751 38.2406C153.83 38.1841 153.884 38.1152 153.915 38.0368C153.947 37.9584 153.959 37.8707 153.959 37.7735C153.959 37.5666 153.862 37.3974 153.666 37.2594C153.47 37.1247 153.135 36.9773 152.658 36.8175C152.45 36.7454 152.244 36.6607 152.036 36.5667C151.827 36.4727 151.641 36.3536 151.477 36.2125C151.313 36.0715 151.177 35.8991 151.072 35.6953C150.968 35.4916 150.918 35.2439 150.918 34.9556C150.918 34.6672 150.971 34.4039 151.082 34.1688C151.193 33.9368 151.347 33.7362 151.549 33.5732C151.752 33.4102 151.995 33.2848 152.282 33.1971C152.57 33.1093 152.892 33.0654 153.252 33.0654C153.678 33.0654 154.048 33.1093 154.361 33.2002C154.673 33.2911 154.929 33.3914 155.131 33.5011L154.721 34.6202C154.544 34.5293 154.348 34.4478 154.13 34.3788C153.912 34.3098 153.653 34.2754 153.347 34.2754C153.006 34.2754 152.759 34.3224 152.611 34.4164C152.462 34.5105 152.386 34.6546 152.386 34.849C152.386 34.965 152.415 35.0621 152.469 35.1405C152.522 35.2189 152.601 35.291 152.702 35.3536C152.803 35.4163 152.92 35.4759 153.05 35.526C153.182 35.5793 153.328 35.6295 153.486 35.6859C153.814 35.8082 154.102 35.9273 154.348 36.0464C154.594 36.1655 154.797 36.3034 154.958 36.4601C155.119 36.6169 155.239 36.8018 155.321 37.0149C155.403 37.2281 155.441 37.4851 155.441 37.786C155.441 38.3753 155.232 38.8298 154.819 39.1527C154.402 39.4756 153.776 39.6386 152.939 39.6386C152.658 39.6386 152.405 39.6229 152.178 39.5884C151.954 39.5539 151.752 39.5132 151.578 39.4662C151.404 39.416 151.256 39.3658 151.129 39.3126C151.003 39.2593 150.899 39.206 150.813 39.159L151.218 38.0305C151.407 38.134 151.641 38.2249 151.919 38.3064C152.197 38.3879 152.538 38.4286 152.939 38.4286H152.936Z" fill="#002F56"/>
<path d="M161.697 33.0654V34.2754H159.783V39.3658H158.356V34.2754H156.441V33.0654H161.701H161.697Z" fill="#002F56"/>
<path d="M162.703 39.3658V33.0654H166.99V34.2566H164.131V35.4916H166.667V36.6545H164.131V38.1716H167.198V39.3627H162.7L162.703 39.3658Z" fill="#002F56"/>
<path d="M170.062 33.0654C170.172 33.266 170.299 33.5137 170.444 33.8052C170.589 34.0998 170.738 34.4164 170.893 34.7581C171.047 35.0997 171.202 35.4508 171.357 35.8082C171.512 36.1655 171.654 36.5009 171.79 36.8175C171.925 36.504 172.068 36.1655 172.222 35.8082C172.374 35.4508 172.529 35.0997 172.687 34.7581C172.841 34.4164 172.993 34.0967 173.138 33.8052C173.284 33.5105 173.41 33.2629 173.521 33.0654H174.822C174.882 33.4823 174.939 33.9525 174.992 34.4697C175.043 34.9869 175.09 35.526 175.131 36.0871C175.169 36.6482 175.207 37.2093 175.242 37.7735C175.277 38.3377 175.305 38.8675 175.33 39.3658H173.937C173.918 38.7546 173.896 38.087 173.865 37.366C173.833 36.6451 173.789 35.9179 173.726 35.1844C173.615 35.4383 173.492 35.7204 173.359 36.0307C173.224 36.341 173.091 36.6482 172.958 36.9585C172.826 37.2688 172.699 37.5635 172.576 37.8456C172.453 38.1277 172.349 38.3691 172.263 38.5697H171.265C171.18 38.3691 171.076 38.1277 170.953 37.8456C170.829 37.5635 170.703 37.2688 170.57 36.9585C170.438 36.6482 170.305 36.341 170.169 36.0307C170.033 35.7204 169.913 35.4383 169.803 35.1844C169.743 35.9179 169.695 36.6451 169.664 37.366C169.632 38.087 169.61 38.7546 169.591 39.3658H168.198C168.224 38.8706 168.252 38.3377 168.287 37.7735C168.321 37.2093 168.356 36.6482 168.397 36.0871C168.438 35.526 168.483 34.9869 168.536 34.4697C168.587 33.9525 168.644 33.4823 168.707 33.0654H170.071H170.062Z" fill="#002F56"/>
</svg>
