<svg width="176" height="40" viewBox="0 0 176 40" fill="none" xmlns="http://www.w3.org/2000/svg">
<path fill-rule="evenodd" clip-rule="evenodd" d="M29.8287 12.79C29.9277 11.1029 30.3748 2.59889 29.3919 0.756918L29.0984 0.212935L28.4841 0.223264C28.4757 0.223264 28.4022 0.224379 28.2724 0.22635L28.2723 0.226351C26.7253 0.249833 17.1757 0.394783 14.1817 0.223264C11.5675 0.0717748 5.13126 -0.14513 1.90629 0.137191C0.920027 0.223264 0.193129 1.06678 0.247732 2.05835C0.380826 4.32035 0.653839 9.96332 0.336461 13.4923C0.247732 14.4736 0.159002 15.5202 0.121463 16.56C0.0327336 19.0527 -0.0901224 23.5973 0.100987 26.0384C0.179478 27.0265 0.913202 27.8253 1.88581 27.9836C4.27809 28.3692 10.4038 29.261 15.6047 29.1783C17.7615 29.1473 21.6179 29.2128 23.4129 29.5226C24.092 29.6397 24.6278 29.6982 25.1431 29.7154C25.3513 29.7223 25.5834 29.7258 25.8291 29.7258C26.6925 29.7258 27.4399 29.6741 28.0541 29.5743C29.2861 29.3711 30.1598 28.2728 30.0847 27.0196C29.9072 24.0484 29.5284 16.7149 29.8322 12.79H29.8287ZM25.2046 27.6772C24.7848 27.6634 24.3378 27.6152 23.7542 27.512C22.1229 27.2296 19.0106 27.1298 16.6422 27.1298H16.6419C16.2564 27.1298 15.8981 27.1298 15.574 27.1367C10.4789 27.209 4.53063 26.3448 2.2066 25.9661C2.15883 25.9592 2.1247 25.9213 2.11787 25.8731C1.93359 23.5319 2.05645 19.0768 2.14517 16.6288C2.18271 15.6338 2.26803 14.6216 2.35335 13.6714C2.67414 10.1148 2.41819 4.57857 2.28168 2.14786C5.17562 1.92752 10.9737 2.07901 14.0656 2.25459C16.7787 2.40953 24.249 2.32345 27.7607 2.26837C28.0849 4.07246 28.0371 8.79961 27.8118 12.6454C27.5013 16.6736 27.8835 24.1207 28.0644 27.1367C28.078 27.3398 27.9313 27.5223 27.7265 27.5533C26.9177 27.6841 25.9076 27.6875 25.2046 27.6703V27.6772ZM25.9352 11.065C25.8635 11.0374 18.6832 8.17979 15.936 6.81639C15.7859 6.74064 15.6118 6.73032 15.4549 6.7854L10.8102 8.38292C9.09706 8.97167 7.41461 9.70157 5.81066 10.552L4.78686 11.096C4.55821 11.2165 4.42511 11.4678 4.45242 11.726C4.47972 11.9842 4.66059 12.2011 4.90971 12.2734C4.93701 12.2803 6.39081 12.6969 7.9777 13.1996C7.44533 13.9674 7.06311 14.9004 6.9266 16.0331C5.8209 17.3965 4.51726 18.9183 4.15551 19.2282C4.04972 19.2695 3.95758 19.3383 3.88591 19.4313C3.70845 19.6585 3.70845 19.9753 3.87909 20.206C3.98829 20.354 4.879 21.4936 5.94375 21.4936C6.0905 21.4936 6.24065 21.473 6.39081 21.4213C7.51358 21.0564 8.07667 19.4382 8.1654 16.3223C8.26437 15.2791 8.62611 14.3736 9.2438 13.6093C10.2437 13.9467 11.1583 14.2841 11.6634 14.5389C12.5097 14.9727 13.4619 15.3824 14.5778 15.7852L16.2227 16.3843C16.291 16.4084 16.366 16.4222 16.4377 16.4222C16.5264 16.4222 16.6152 16.4015 16.7005 16.3636L22.601 13.6472L25.9454 12.2425C26.1843 12.1426 26.3379 11.9085 26.3344 11.6468C26.3344 11.3886 26.174 11.1545 25.9352 11.0615V11.065ZM6.00859 20.2094C5.84478 20.261 5.56495 20.0992 5.30558 19.8754C5.64344 19.5346 6.10415 19.0147 6.75597 18.2366C6.50343 20.02 6.03589 20.1991 6.00859 20.206V20.2094ZM22.0993 12.4835L16.4138 15.1035L15.0112 14.594C13.9465 14.2049 13.0387 13.8193 12.2367 13.4096C11.7965 13.1858 11.0901 12.9104 10.2915 12.6315C10.7693 12.2803 11.3221 11.9739 11.9569 11.7122C13.7758 10.9617 15.5743 10.8791 15.5914 10.8791C15.9395 10.8653 16.2091 10.5692 16.1954 10.218C16.1818 9.86683 15.8814 9.59139 15.5402 9.60861C15.4822 9.60861 11.4313 9.8083 8.88888 12.1633C8.13468 11.9188 7.3839 11.6881 6.76279 11.4988C8.19611 10.7585 9.69427 10.1216 11.2163 9.59828L15.6153 8.08683C17.7516 9.11971 21.8468 10.7999 24.0309 11.6813L22.0993 12.4938V12.4835ZM20.5626 15.2757C20.5148 14.928 20.7571 14.6078 21.1018 14.5596H21.1052C21.4533 14.5114 21.7672 14.7558 21.815 15.1035L22.4395 19.7309C22.4566 19.8617 22.4327 19.9925 22.3747 20.1096C21.0779 22.647 16.4571 22.9397 16.2626 22.95C15.9998 22.9638 15.7405 22.9707 15.4914 22.9707C10.6283 22.9707 8.86054 20.3919 8.78546 20.2783C8.6899 20.1302 8.65578 19.9478 8.69673 19.7756L9.89116 14.7076C9.97307 14.3668 10.3109 14.1567 10.6522 14.2359C10.99 14.3186 11.2016 14.6629 11.1197 15.0037L9.99695 19.7687C10.5054 20.3334 12.2732 21.8896 16.1944 21.6796C17.2864 21.6176 20.2315 21.1321 21.1598 19.6895L20.5626 15.2757Z" fill="#A7D02A"/>
<path fill-rule="evenodd" clip-rule="evenodd" d="M79.7854 20.7161C80.269 20.5908 80.6937 20.4425 81.0629 20.281L81.0597 20.2777C81.4289 20.1129 81.7621 19.9612 82.0627 19.8228L83.5494 24.1805C82.7881 24.6453 81.7164 25.0639 80.3343 25.4364C78.9523 25.8089 77.3513 25.9934 75.5314 25.9934C71.6367 25.9934 68.67 24.9024 66.6312 22.7169C64.5924 20.5348 63.573 17.4297 63.573 13.4082C63.573 11.4073 63.8866 9.62405 64.5074 8.05501C65.1315 6.48598 65.981 5.16087 67.0657 4.07968C68.1505 2.9985 69.4411 2.17772 70.9375 1.62065C72.4372 1.06357 74.0611 0.783386 75.8124 0.783386C76.8252 0.783386 77.7466 0.859201 78.5765 1.01083C79.4064 1.16246 80.1318 1.33716 80.7525 1.53494C81.3733 1.73272 81.8928 1.93709 82.3078 2.14476C82.7227 2.35242 83.0201 2.51724 83.2063 2.63261L81.6511 7.02657C80.9126 6.63101 80.0566 6.29479 79.0764 6.01461C78.0962 5.73442 76.9853 5.59598 75.7405 5.59598C74.9106 5.59598 74.097 5.73442 73.3031 6.01461C72.5091 6.29149 71.8066 6.73979 71.1956 7.3562C70.5846 7.97261 70.0946 8.77031 69.7253 9.74601C69.3561 10.7217 69.1732 11.9084 69.1732 13.3027C69.1732 14.4202 69.2941 15.4585 69.5358 16.4243C69.7776 17.3868 70.1697 18.2175 70.7121 18.9163C71.2544 19.6151 71.9635 20.1689 72.8391 20.5743C73.7147 20.9798 74.7733 21.1842 76.0182 21.1842C76.7991 21.1842 77.5048 21.138 78.1256 21.0457C78.7497 20.9534 79.3018 20.8446 79.7854 20.7161ZM56.0051 6.48948C56.7696 8.24311 57.5407 10.0989 58.3151 12.0503H58.3183C59.0927 14.005 59.8867 16.085 60.6969 18.2935C61.5072 20.502 62.3633 22.9083 63.2651 25.5124H57.4917C57.2238 24.6718 56.9395 23.8082 56.6324 22.9248C56.4728 22.464 56.3132 22.005 56.1541 21.5474C56.007 21.1243 55.8603 20.7024 55.7143 20.2812H46.36C46.1636 20.8561 45.9658 21.4324 45.7676 22.0102L45.7672 22.0114L45.7671 22.0116L45.4516 22.9314C45.1478 23.8181 44.8635 24.6784 44.6021 25.5124H39.002C39.9037 22.9083 40.7565 20.502 41.5668 18.2935C42.3771 16.085 43.1678 14.0017 43.9421 12.0503C44.7165 10.0989 45.4778 8.24641 46.2293 6.48948C46.9807 4.73585 47.7584 3.02178 48.5687 1.34726H53.6788C54.4662 3.01849 55.2405 4.73585 56.0051 6.48948ZM48.6994 12.9634C48.3334 13.9127 47.9642 14.9115 47.5852 15.9564L47.5885 15.9597H54.4368C54.0708 14.9115 53.7147 13.9127 53.3716 12.9568C53.0286 12.0009 52.7018 11.1274 52.3914 10.3363C52.081 9.54515 51.8098 8.84633 51.5779 8.24311C51.3459 7.63989 51.1564 7.16522 51.0126 6.82241C50.8917 7.17511 50.7153 7.65308 50.4833 8.2563C50.2895 8.76035 50.0751 9.33114 49.8364 9.96675L49.6926 10.3494C49.3953 11.1406 49.0653 12.0141 48.6994 12.9634ZM100.004 15.9233C100.004 17.8747 99.5957 19.2591 98.7789 20.0733C97.9621 20.8875 96.8937 21.2929 95.5802 21.2929C94.9333 21.2929 94.3419 21.2006 93.7995 21.0127C93.2572 20.8282 92.7965 20.5183 92.4174 20.0898C92.0384 19.6613 91.7378 19.1009 91.5189 18.4153C91.3 17.7296 91.1922 16.899 91.1922 15.9233V1.34705H85.8011V16.3749C85.8011 17.7923 85.9906 19.0877 86.3729 20.2612C86.7519 21.4347 87.34 22.4466 88.134 23.2938C88.928 24.1442 89.9376 24.8035 91.1595 25.2814C92.3815 25.7561 93.8322 25.9967 95.5149 25.9967C97.1975 25.9967 98.694 25.7627 99.9388 25.2979C101.184 24.8331 102.21 24.1772 103.017 23.3267C103.824 22.4796 104.422 21.461 104.814 20.2744C105.206 19.0877 105.402 17.789 105.402 16.3683V1.34705H100.011V15.9233H100.004ZM126.963 3.961C128.159 4.96307 129.08 6.24204 129.727 7.79789L129.734 7.79459C130.377 9.35044 130.701 11.315 130.701 13.4082C130.701 15.5013 130.377 17.3275 129.734 18.8833C129.087 20.4392 128.172 21.7313 126.986 22.7532C125.797 23.775 124.352 24.5431 122.647 25.054C120.941 25.5649 119.03 25.822 116.909 25.822C115.939 25.822 114.812 25.7825 113.521 25.7001C112.231 25.621 110.963 25.4528 109.718 25.1957V1.66018C110.963 1.42615 112.257 1.27122 113.606 1.18881C114.952 1.10641 116.112 1.06685 117.079 1.06685C119.128 1.06685 120.99 1.30089 122.66 1.76567C124.33 2.23044 125.764 2.96222 126.963 3.961ZM117.181 21.1512C119.876 21.1512 121.876 20.4655 123.176 19.0943H123.173C124.477 17.723 125.127 15.943 125.127 13.4115C125.127 10.8799 124.506 8.96148 123.261 7.65944C122.016 6.3607 120.046 5.70803 117.351 5.70803C116.981 5.70803 116.602 5.71463 116.21 5.72452C115.818 5.73441 115.452 5.76407 115.106 5.81022V21.082C115.361 21.105 115.655 21.1215 115.988 21.1347C116.321 21.1446 116.72 21.1512 117.181 21.1512ZM139.715 15.119H149.289V10.6558H139.715V5.91572H150.497V1.34705H134.324V25.5122H151.291V20.9435H139.715V15.119ZM165.461 17.3176C163.664 14.6212 161.752 12.0732 159.723 9.68009V25.5122H154.401V1.34705H158.789C159.547 2.11509 160.39 3.05783 161.311 4.17198C162.233 5.28612 163.17 6.47938 164.128 7.74516C165.085 9.01094 166.036 10.3262 166.98 11.6842C167.928 13.0456 168.813 14.3509 169.643 15.6068V1.34705H175.001V25.5122H170.473C168.927 22.7466 167.258 20.014 165.461 17.3176Z" fill="white"/>
<path fill-rule="evenodd" clip-rule="evenodd" d="M136.58 38.3646C136.474 38.4093 136.351 38.4541 136.215 38.4885C136.078 38.523 135.918 38.5574 135.741 38.5849C135.563 38.6125 135.362 38.6263 135.137 38.6263C134.782 38.6263 134.478 38.5677 134.225 38.4507C133.976 38.3336 133.771 38.1752 133.618 37.9755C133.464 37.7758 133.352 37.5383 133.28 37.2629C133.212 36.9874 133.178 36.6879 133.178 36.3677C133.178 35.9683 133.229 35.6275 133.335 35.3486C133.44 35.0697 133.58 34.8425 133.754 34.6634C133.928 34.4844 134.13 34.3605 134.358 34.2778C134.587 34.1952 134.819 34.1573 135.055 34.1573C135.41 34.1573 135.73 34.1986 136.01 34.2778C136.29 34.357 136.536 34.4534 136.747 34.567L137.191 33.3104C137.143 33.2801 137.071 33.2419 136.976 33.191L136.976 33.191L136.976 33.191L136.935 33.1692C136.819 33.1072 136.669 33.0521 136.491 32.9936C136.314 32.9385 136.106 32.8869 135.867 32.8456C135.628 32.8043 135.365 32.7802 135.075 32.7802C134.573 32.7802 134.109 32.8593 133.679 33.0212C133.249 33.183 132.881 33.4171 132.57 33.7235C132.26 34.0334 132.017 34.4121 131.837 34.8631C131.659 35.3107 131.57 35.8237 131.57 36.3952C131.57 37.5486 131.864 38.4369 132.447 39.0601C133.031 39.6867 133.881 40 134.997 40C135.519 40 135.976 39.9449 136.372 39.8416C136.768 39.7349 137.075 39.6144 137.293 39.4835L136.867 38.2372C136.81 38.2647 136.748 38.2923 136.682 38.3219C136.649 38.3367 136.615 38.352 136.58 38.368V38.3646ZM129.503 36.0062C129.281 35.4485 129.059 34.9148 128.841 34.4156C128.623 33.9164 128.401 33.4206 128.176 32.942H126.712C126.48 33.4206 126.258 33.9129 126.043 34.4156C125.828 34.9183 125.609 35.4485 125.387 36.0062C125.166 36.564 124.94 37.1596 124.708 37.7931C124.476 38.4266 124.231 39.1152 123.975 39.8589H125.579C125.654 39.6213 125.736 39.3734 125.821 39.1186C125.87 38.9724 125.92 38.8273 125.97 38.6826L125.97 38.6826C126.007 38.5753 126.044 38.4682 126.08 38.3612H128.759C128.822 38.547 128.887 38.7329 128.953 38.9201L128.953 38.9204L129.022 39.1186C129.111 39.3734 129.193 39.6179 129.268 39.8589H130.923C130.663 39.1118 130.418 38.4232 130.186 37.7931C129.954 37.1631 129.728 36.564 129.503 36.0062ZM126.432 37.1252C126.541 36.8256 126.647 36.5399 126.753 36.2679C126.819 36.0975 126.88 35.9352 126.937 35.7827C126.971 35.6918 127.004 35.6044 127.036 35.5208C127.121 35.2935 127.196 35.0939 127.261 34.9217C127.326 34.7496 127.377 34.6118 127.411 34.512C127.452 34.6118 127.507 34.7461 127.572 34.9183C127.609 35.0132 127.649 35.1164 127.692 35.2281C127.727 35.3189 127.764 35.4154 127.804 35.5173C127.892 35.7446 127.984 35.9925 128.083 36.2679C128.182 36.5433 128.285 36.8291 128.387 37.1286H126.425L126.432 37.1252ZM143.05 34.4156C143.268 34.9148 143.49 35.4485 143.712 36.0062C143.937 36.564 144.163 37.1631 144.395 37.7931C144.627 38.4232 144.872 39.1118 145.132 39.8589H143.477C143.402 39.6179 143.32 39.3734 143.231 39.1186L143.161 38.9197C143.096 38.7326 143.031 38.5469 142.968 38.3612H140.289C140.253 38.4682 140.216 38.5752 140.179 38.6825C140.129 38.8272 140.079 38.9724 140.03 39.1186C139.945 39.3734 139.863 39.6213 139.788 39.8589H138.184C138.44 39.1152 138.685 38.4266 138.917 37.7931C139.149 37.1596 139.375 36.564 139.596 36.0062C139.818 35.4485 140.037 34.9183 140.252 34.4156C140.467 33.9129 140.688 33.4206 140.921 32.942H142.385C142.61 33.4206 142.832 33.9164 143.05 34.4156ZM140.962 36.2679C140.856 36.5399 140.75 36.8256 140.641 37.1252L140.634 37.1286H142.596C142.494 36.8291 142.391 36.5433 142.292 36.2679C142.193 35.9925 142.101 35.7446 142.013 35.5173C141.973 35.4154 141.936 35.319 141.901 35.2281C141.858 35.1164 141.818 35.0132 141.781 34.9183C141.716 34.7461 141.661 34.6118 141.62 34.512C141.586 34.6118 141.535 34.7496 141.47 34.9217C141.405 35.0939 141.33 35.2935 141.245 35.5208C141.213 35.6041 141.18 35.6913 141.146 35.782L141.146 35.7825L141.146 35.7825C141.089 35.9351 141.028 36.0974 140.962 36.2679ZM151.268 33.6891C150.924 33.4034 150.514 33.1933 150.036 33.0591C149.558 32.9248 149.026 32.8594 148.439 32.8594C148.163 32.8594 147.832 32.8697 147.443 32.8938C147.057 32.9179 146.685 32.9627 146.33 33.0281V39.7693C146.685 39.8416 147.05 39.8898 147.419 39.9139C147.787 39.938 148.111 39.9484 148.388 39.9484C148.995 39.9484 149.541 39.8761 150.029 39.728C150.517 39.58 150.93 39.3631 151.272 39.0704C151.613 38.7778 151.872 38.4094 152.06 37.9618C152.244 37.5177 152.336 36.9943 152.336 36.3953C152.336 35.7962 152.244 35.235 152.06 34.7874C151.876 34.3433 151.609 33.9749 151.268 33.6891ZM150.183 38.0238C149.811 38.4163 149.238 38.6125 148.466 38.6125C148.333 38.6125 148.221 38.6125 148.125 38.6091C148.03 38.6091 147.944 38.6022 147.873 38.5953V34.2228C147.972 34.209 148.077 34.2021 148.19 34.1987C148.247 34.1987 148.303 34.1978 148.359 34.1969C148.413 34.1961 148.466 34.1952 148.518 34.1952C149.289 34.1952 149.855 34.3812 150.21 34.753C150.565 35.1248 150.746 35.6757 150.746 36.3987C150.746 37.1217 150.558 37.6347 150.186 38.0272L150.183 38.0238ZM158.224 36.8842H155.484V38.554H158.798V39.8623H153.941V32.942H158.572V34.2503H155.484V35.6068H158.224V36.8842ZM167.544 36.261C167.5 35.6447 167.452 35.0525 167.394 34.4845C167.339 33.9164 167.278 33.3999 167.21 32.942H165.804C165.684 33.1624 165.548 33.4344 165.391 33.7545C165.234 34.0782 165.073 34.4259 164.903 34.8012C164.735 35.1765 164.568 35.5621 164.401 35.9546C164.292 36.211 164.188 36.4572 164.089 36.694L164.088 36.6961C164.035 36.821 163.984 36.9433 163.933 37.0632C163.862 36.896 163.789 36.7223 163.714 36.5429L163.713 36.5413C163.634 36.3518 163.552 36.1559 163.466 35.9546L163.445 35.9052L163.445 35.9047C163.285 35.5294 163.128 35.1606 162.964 34.8012C162.797 34.4259 162.633 34.0747 162.48 33.7545C162.323 33.4309 162.186 33.1589 162.067 32.942H160.592C160.528 33.3999 160.466 33.9164 160.408 34.4845C160.35 35.0525 160.302 35.6447 160.258 36.261C160.214 36.8773 160.176 37.4936 160.139 38.1133C160.101 38.733 160.07 39.3149 160.043 39.8623H161.548C161.568 39.1909 161.592 38.4576 161.626 37.6657C161.661 36.8738 161.708 36.0751 161.777 35.2694L161.817 35.3635C161.926 35.6176 162.045 35.8961 162.172 36.199C162.319 36.5399 162.463 36.8773 162.606 37.2181C162.749 37.559 162.886 37.8826 163.019 38.1925C163.152 38.5024 163.265 38.7675 163.357 38.9878H164.435C164.527 38.7675 164.64 38.5024 164.773 38.1925C164.906 37.8826 165.043 37.559 165.186 37.2181C165.329 36.8773 165.473 36.5399 165.619 36.199C165.704 36.003 165.782 35.8173 165.857 35.6418L165.857 35.6408L165.857 35.6406C165.912 35.5113 165.965 35.3876 166.015 35.2694C166.08 36.0751 166.131 36.8738 166.165 37.6657C166.199 38.4576 166.223 39.1909 166.244 39.8623H167.749C167.721 39.3183 167.691 38.733 167.653 38.1133C167.616 37.4936 167.578 36.8773 167.534 36.261H167.544ZM172.604 34.3674C172.853 33.8957 173.085 33.4206 173.297 32.942V32.9455H175C174.624 33.6891 174.235 34.4122 173.833 35.1111C173.43 35.81 173.003 36.5123 172.556 37.2181V39.8623H171.014V37.2354C170.563 36.5296 170.137 35.8238 169.731 35.118C169.324 34.4121 168.932 33.6891 168.557 32.942H170.348C170.56 33.4206 170.789 33.8957 171.031 34.3674C171.277 34.8391 171.536 35.3108 171.812 35.7824C172.089 35.3108 172.355 34.8391 172.604 34.3674Z" fill="white"/>
</svg>
