<svg width="60" height="60" viewBox="0 0 60 60" fill="none" xmlns="http://www.w3.org/2000/svg">
<path d="M0 30C0 13.4297 13.4297 0 30 0C46.5703 0 60 13.4297 60 30C60 46.5703 46.5703 60 30 60C13.4297 60 0 46.5703 0 30ZM43.5703 24.8203C44.8477 23.543 44.8477 21.457 43.5703 20.1797C42.293 18.9023 40.207 18.9023 38.9297 20.1797L26.25 32.8594L21.0703 27.6797C19.793 26.4023 17.707 26.4023 16.4297 27.6797C15.1523 28.957 15.1523 31.043 16.4297 32.3203L23.9297 39.8203C25.207 41.0977 27.293 41.0977 28.5703 39.8203L43.5703 24.8203Z" fill="#70BE44"/>
</svg>
