<svg width="120" height="120" viewBox="0 0 120 120" fill="none" xmlns="http://www.w3.org/2000/svg">
<rect width="120" height="120" rx="60" fill="#FFBAC9"/>
<path d="M59.9883 67.5C66.716 67.5 72.0703 62.0438 72.0703 55.3125C72.0703 48.5812 66.6164 43.125 59.9883 43.125C53.2605 43.125 47.9062 48.5812 47.9062 55.3125C47.8008 62.0391 53.2617 67.5 59.9883 67.5ZM65.8477 71.25H54.1523C44.9531 71.25 37.5 78.2461 37.5 86.8711C37.5 88.6055 38.9883 90 40.8281 90H79.1719C81.0117 90 82.5 88.6055 82.5 86.8711C82.5 78.2461 75.0469 71.25 65.8477 71.25ZM82.5 48.75C87.6773 48.75 91.875 44.5523 91.875 39.375C91.875 34.1977 87.6797 30 82.5 30C77.3227 30 73.125 34.1977 73.125 39.375C73.125 44.5523 77.3203 48.75 82.5 48.75ZM44.0508 55.3125C44.0508 54.6739 44.1659 54.0668 44.2393 53.448C42.9609 52.7461 41.5547 52.5 40.0664 52.5H32.8219C27.1219 52.5 22.5 57.3984 22.5 63.4336C22.5 64.6406 23.4243 65.625 24.5648 65.625H47.9437C45.5508 62.8359 44.0508 59.2617 44.0508 55.3125ZM37.5 48.75C42.6773 48.75 46.875 44.5523 46.875 39.375C46.875 34.1977 42.6797 30 37.5 30C32.3227 30 28.125 34.1977 28.125 39.375C28.125 44.5523 32.3227 48.75 37.5 48.75ZM87.1758 52.5H79.9289C78.4289 52.5 77.0133 52.8559 75.7266 53.4656C75.7969 54.082 75.9141 54.6797 75.9141 55.3125C75.9141 59.2629 74.4164 62.8371 72.0281 65.625H95.4305C96.5742 65.625 97.5 64.6406 97.5 63.4336C97.5 57.3984 92.8828 52.5 87.1758 52.5Z" fill="#092C4C"/>
</svg>
