<svg width="94" height="60" viewBox="0 0 94 60" fill="none" xmlns="http://www.w3.org/2000/svg">
<path d="M67.7692 0C71.5913 0 74.6923 3.09952 74.6923 6.92308C74.6923 9.10096 73.6683 11.149 71.9231 12.4615L69.9183 13.9615C60.3125 14.8846 52.2644 21.1731 48.8173 29.7981L40.5385 36C38.8942 37.226 36.6442 37.226 35 36L3.61539 12.4615C1.87207 11.149 0.846161 9.10096 0.846161 6.92308C0.846161 3.09952 3.94568 0 7.76924 0H67.7692ZM43.3077 39.6923L47.1154 36.8365C47.0433 37.6298 47 38.4231 47 39.2308C47 45.3606 49.1779 51 52.7981 55.3846H10.0769C4.97837 55.3846 0.846161 51.2452 0.846161 46.1538V16.1538L32.2308 39.6923C35.5192 42.1587 40.0192 42.1587 43.3077 39.6923ZM93.1538 39.2308C93.1538 50.6971 83.851 60 72.3846 60C60.9183 60 51.6154 50.6971 51.6154 39.2308C51.6154 27.7644 60.9183 18.4615 72.3846 18.4615C83.851 18.4615 93.1538 27.7644 93.1538 39.2308ZM78.8317 32.9856L70.0769 41.7404L65.9375 37.601C65.0433 36.6923 63.5721 36.6923 62.6779 37.601C61.7692 38.4952 61.7692 39.9663 62.6779 40.8606L68.4471 46.6298C69.3413 47.5385 70.8125 47.5385 71.7067 46.6298L82.0913 36.2452C83 35.351 83 33.8798 82.0913 32.9856C81.1971 32.0769 79.726 32.0769 78.8317 32.9856Z" fill="#70BE44"/>
<path d="M67.7692 0C71.5913 0 74.6923 3.09952 74.6923 6.92308C74.6923 9.10096 73.6683 11.149 71.9231 12.4615L69.9183 13.9615C60.3125 14.8846 52.2644 21.1731 48.8173 29.7981L40.5385 36C38.8942 37.226 36.6442 37.226 35 36L3.61539 12.4615C1.87207 11.149 0.846161 9.10096 0.846161 6.92308C0.846161 3.09952 3.94568 0 7.76924 0H67.7692ZM43.3077 39.6923L47.1154 36.8365C47.0433 37.6298 47 38.4231 47 39.2308C47 45.3606 49.1779 51 52.7981 55.3846H10.0769C4.97837 55.3846 0.846161 51.2452 0.846161 46.1538V16.1538L32.2308 39.6923C35.5192 42.1587 40.0192 42.1587 43.3077 39.6923Z" fill="#092A4C"/>
</svg>
