<svg width="120" height="121" viewBox="0 0 120 121" fill="none" xmlns="http://www.w3.org/2000/svg">
<rect y="0.221558" width="120" height="120" rx="60" fill="#A1DCDB"/>
<path d="M55.3125 34.9091C55.3125 32.3204 57.4102 30.2216 60 30.2216C62.5898 30.2216 64.6875 32.3204 64.6875 34.9091C64.6875 37.4977 62.5898 39.5966 60 39.5966C57.4102 39.5966 55.3125 37.4977 55.3125 34.9091ZM66.5391 59.87C66.7383 61.4169 65.6367 62.8231 63.9961 63.0106C62.5547 63.2098 61.1484 62.1083 60.9609 60.4677L60.4453 56.3661H59.5547L59.0391 60.4677C58.8516 62.1083 57.4453 63.2098 55.8984 63.0106C54.3633 62.8231 53.2617 61.4169 53.4609 59.87L54.7617 49.4755L52.4414 51.327C51.2578 52.4403 49.4766 52.288 48.4805 51.1044C47.4727 49.9091 47.625 48.1395 48.8086 47.1317L53.6719 43.0184C54.8555 42.0223 56.3555 41.4716 57.9141 41.4716H62.0859C63.6445 41.4716 65.1445 42.0223 66.2227 43.0184L71.1914 47.1317C72.375 48.1395 72.5273 49.9091 71.5195 51.1044C70.5234 52.288 68.7422 52.4403 67.5586 51.327L65.2383 49.4755L66.5391 59.87ZM31.875 60.538L38.9414 69.9481C40.043 71.4247 42.1523 71.6825 43.582 70.5106C44.8125 69.4911 45.1289 67.6161 44.2969 66.3505L41.7891 62.1552C40.7695 60.4559 41.2383 58.2645 42.8555 57.1395C44.4844 56.0145 46.6992 56.3427 47.8242 57.8778L53.3789 64.6864C55.2305 66.913 56.25 69.9012 56.25 72.8895V86.4716C56.25 88.5458 54.5742 90.2216 52.5 90.2216H41.25C40.1133 90.2216 39.0352 89.7059 38.3203 88.7098L24.143 71.0966C23.0796 69.7606 22.5 68.1083 22.5 66.4091V42.3036C22.5 39.8204 24.5988 37.6161 27.1875 37.6161C29.7762 37.6161 31.875 39.8204 31.875 42.3036V60.538ZM97.5 42.4091V66.4091C97.5 68.1083 96.9258 69.7606 95.7539 71.0966L81.5742 88.7098C80.9648 89.7059 79.8867 90.2216 78.75 90.2216H67.5C65.4258 90.2216 63.75 88.5458 63.75 86.4716V72.8895C63.75 69.9012 64.7695 66.913 66.6211 64.6864L72.0703 57.8778C73.3008 56.3427 75.5156 56.0145 77.1445 57.1395C78.7617 58.2645 79.2305 60.4559 78.2109 62.1552L75.5977 66.3505C74.8711 67.6161 75.1875 69.4911 76.4297 70.5106C77.8477 71.6825 79.957 71.4247 81.0586 69.9481L88.125 60.538V42.4091C88.125 39.8204 90.2227 37.7216 92.8125 37.7216C95.4023 37.7216 97.5 39.8204 97.5 42.4091Z" fill="#092C4C"/>
</svg>
