<svg width="1728" height="694" viewBox="0 0 1728 694" fill="none" xmlns="http://www.w3.org/2000/svg">
<path d="M1728 84.9429L1727.81 28.747L1646.59 0L1568.19 27.7591L1489.78 0L1411.38 27.7591L1332.97 0L1254.56 27.7591L1176.15 0L1097.74 27.7591L1019.34 0L940.923 27.7591L862.517 0L784.103 27.7591L705.697 0L627.29 27.7591L548.876 0L470.47 27.7591L392.055 0L313.649 27.7591L235.235 0L156.829 27.7591L78.4144 0L0 27.7591V85L1728 84.9429Z" fill="#CAE37F"/>
<rect width="1728" height="528" transform="translate(0 83)" fill="#CAE37F"/>
<path d="M5.25827e-05 609.057L0.190584 665.253L81.4052 694L159.811 666.241L238.217 694L316.624 666.241L395.03 694L473.436 666.241L551.85 694L630.256 666.241L708.662 694L787.077 666.241L865.483 694L943.897 666.241L1022.3 694L1100.71 666.241L1179.12 694L1257.53 666.241L1335.94 694L1414.35 666.241L1492.77 694L1571.17 666.241L1649.59 694L1728 666.241V609L5.25827e-05 609.057Z" fill="#CAE37F"/>
</svg>
