<svg width="428" height="815" viewBox="0 0 428 815" fill="none" xmlns="http://www.w3.org/2000/svg">
<path d="M428 20.9859L427.953 7.1022L407.837 0L388.417 6.85813L368.997 0L349.577 6.85813L330.157 0L310.737 6.85813L291.315 0L271.895 6.85813L252.475 0L233.053 6.85813L213.633 0L194.211 6.85813L174.791 0L155.371 6.85813L135.948 0L116.528 6.85813L97.1063 0L77.6863 6.85813L58.2642 0L38.8442 6.85813L19.4221 0L0 6.85813V21L428 20.9859Z" fill="#CAE37F"/>
<rect width="428" height="773" transform="translate(0 21)" fill="#CAE37F"/>
<path d="M1.23251e-05 794.014L0.047208 807.898L20.1629 815L39.5829 808.142L59.003 815L78.423 808.142L97.843 815L117.263 808.142L136.685 815L156.105 808.142L175.525 815L194.947 808.142L214.367 815L233.789 808.142L253.209 815L272.629 808.142L292.052 815L311.472 808.142L330.894 815L350.314 808.142L369.736 815L389.156 808.142L408.578 815L428 808.142L428 794L1.23251e-05 794.014Z" fill="#CAE37F"/>
</svg>
