<svg width="184" height="100" viewBox="0 0 184 100" fill="none" xmlns="http://www.w3.org/2000/svg">
<g clip-path="url(#clip0_484_57543)">
<path d="M11.0619 65.4236L0 64.1666L7.12199 0H19.4434L26.818 65.4236L18.6891 64.753L16.2578 43.0282L11.3145 44.6224L11.0619 65.4236ZM11.3987 38.7514L15.7561 37.6628L14.4159 26.5915L11.5671 27.8486L11.3987 38.7514Z" fill="#70BE44"/>
<path d="M54.7234 3.85889L55.3093 16.2715C55.0848 16.2715 54.8076 16.2856 54.4708 16.3137C54.134 16.3418 53.4499 16.4682 52.4185 16.6894C51.3835 16.9141 50.4082 17.2091 49.4855 17.5707C48.5628 17.9359 47.5032 18.5083 46.2999 19.2913C45.0965 20.0743 44.037 21.0119 43.1143 22.1004C42.1916 23.1889 41.339 24.618 40.5567 26.3772C39.7743 28.1399 39.2445 30.1098 38.9638 32.2904C38.5709 35.4225 38.6551 38.2597 39.2165 40.8054C39.7743 43.3511 40.711 45.3912 42.0231 46.9292C43.3353 48.4672 44.9 49.7383 46.7174 50.7461C48.5312 51.7538 50.4888 52.27 52.5833 52.2981C54.6778 52.3262 56.7864 52.0874 58.9124 51.5853V62.0702C58.6879 62.1264 58.3546 62.2107 57.9055 62.323C57.4565 62.4354 56.5513 62.5337 55.183 62.618C53.8148 62.7022 52.4606 62.7022 51.1168 62.618C49.7766 62.5337 48.2119 62.2563 46.4226 61.7788C44.6334 61.3047 42.9564 60.6341 41.3952 59.7668C39.8304 58.8994 38.2657 57.6143 36.701 55.9078C35.1362 54.2012 33.796 52.2033 32.6769 49.9104C31.3367 47.1153 30.3719 44.0815 29.786 40.8089C29.2001 37.5363 29.0176 34.2532 29.2422 30.9525C29.4632 27.6519 30.1754 24.439 31.3788 21.3068C32.5786 18.1747 34.1854 15.3797 36.1993 12.9182C38.2096 10.4567 40.8093 8.41663 43.9949 6.79438C47.1805 5.17214 50.7555 4.19247 54.7234 3.85889Z" fill="#F8C322"/>
<path d="M93.442 64.1663L92.6877 4.94727C96.9329 5.56175 100.676 7.11377 103.918 9.60333C107.156 12.0929 109.588 15.1127 111.208 18.6626C112.829 22.2161 113.987 26.0576 114.685 30.1975C115.383 34.3373 115.327 38.4035 114.517 42.4029C113.706 46.4024 112.475 50.0507 110.83 53.3478C109.181 56.6485 106.819 59.2891 103.75 61.273C100.676 63.2604 97.2416 64.2225 93.442 64.1663ZM99.308 19.1226L100.147 52.7579C100.368 52.6456 100.662 52.4946 101.027 52.2979C101.388 52.1013 102.045 51.5711 102.995 50.7038C103.946 49.8365 104.767 48.8568 105.469 47.7683C106.167 46.6798 106.781 45.1137 107.314 43.0701C107.844 41.03 108.111 38.8073 108.111 36.402C107.998 33.9967 107.637 31.76 107.023 29.6918C106.405 27.6236 105.683 25.9592 104.844 24.7022C104.006 23.4451 103.167 22.3812 102.329 21.5139C101.49 20.6466 100.764 20.018 100.15 19.6283L99.3115 19.1261L99.308 19.1226Z" fill="#DB224E"/>
<path d="M119.172 3.85898L148.085 4.1118L147.583 19.3757L133.42 19.1229L133.167 37.3257L146.829 37.0729V44.4538L132.329 43.6146L131.827 56.7822L149.176 57.5371L148.923 63.3238H120.26L119.172 3.85547V3.85898Z" fill="#7AC49F"/>
<path d="M154.452 7.38075L163.167 7.12793L172.387 39.1691V7.38075L181.856 7.12793L182.442 64.4158L173.977 64.7528L161.069 30.784L161.655 65.0057L153.189 64.4193L154.445 7.38075H154.452Z" fill="#E26480"/>
<path d="M64.3226 6.87853L75.4546 6.48877L74.6968 11.8015C74.5354 12.9216 74.4407 14.0522 74.4021 15.1829C74.2021 21.3559 74.4021 24.2668 76.8088 23.9051C77.8157 23.7927 78.6086 23.108 79.1981 21.851C79.7839 20.5939 80.1313 19.1262 80.2471 17.4477C80.3593 15.7693 80.4014 14.1084 80.3734 12.4581C80.3453 10.8077 80.2471 9.42427 80.0786 8.30765L79.9102 6.54495H88.0391L88.2917 18.7926C88.0672 41.0476 85.2745 55.1422 79.9102 61.0658C78.0122 63.1902 75.83 64.1418 73.3742 63.9171C70.9148 63.6958 68.8624 62.4774 67.2135 60.2688C65.5645 58.0601 64.4068 55.2791 63.7367 51.9222C63.0666 48.5689 62.5894 44.875 62.3123 40.8509C62.0316 36.8234 62.0035 32.8134 62.2281 28.814C62.4491 24.8181 62.7157 21.1803 63.0245 17.9112C63.3297 14.6386 63.6244 11.97 63.9051 9.90181L64.3261 6.88204L64.3226 6.87853Z" fill="#4A94C5"/>
<path d="M73.7355 94.0204L80.9452 73.9038H84.0536L91.2634 94.0204H89.0215L82.2854 74.9502H82.6643L75.9283 94.0204H73.7285H73.7355ZM77.5105 87.5103L78.0263 85.6493H86.9621L87.4778 87.5103H77.5105Z" fill="#092C4C"/>
<path d="M99.4167 94.2799C98.0239 94.2799 96.8416 94.0131 95.8733 93.4864C94.905 92.9596 94.1682 92.131 93.6595 91.0108C93.1508 89.8907 92.8982 88.4405 92.8982 86.6532C92.8982 84.866 93.1718 83.4158 93.7192 82.2957C94.2665 81.1755 95.0664 80.3539 96.1154 79.8272C97.1644 79.3005 98.4519 79.0371 99.9711 79.0371C100.487 79.0371 101.003 79.0687 101.518 79.1319C102.034 79.1951 102.529 79.2899 102.999 79.4163V81.2633C102.518 81.1369 102.045 81.0421 101.578 80.9789C101.111 80.9157 100.652 80.8841 100.199 80.8841C99.0659 80.8841 98.1257 81.0702 97.3749 81.4424C96.6241 81.8146 96.0627 82.415 95.6979 83.2507C95.3295 84.0829 95.1471 85.1995 95.1471 86.5936C95.1471 87.9876 95.319 89.1674 95.6628 90.0171C96.0066 90.8704 96.5188 91.4814 97.203 91.8571C97.8871 92.2328 98.7256 92.4224 99.722 92.4224C100.203 92.4224 100.704 92.3733 101.231 92.2784C101.757 92.1836 102.343 92.0327 102.995 91.822V93.6584C102.416 93.8656 101.823 94.0201 101.224 94.1219C100.62 94.2202 100.017 94.2729 99.4097 94.2729L99.4167 94.2799Z" fill="#092C4C"/>
<path d="M109.223 94.2661C107.837 94.2661 106.749 93.9079 105.956 93.1916C105.164 92.4753 104.767 91.4921 104.767 90.2421C104.767 88.992 105.192 87.9527 106.037 87.2328C106.883 86.513 108.244 86.06 110.117 85.881L114.068 85.4596L114.271 86.8993L110.251 87.3347C109.082 87.4541 108.244 87.735 107.732 88.1844C107.219 88.6339 106.963 89.2519 106.963 90.0384C106.963 90.825 107.198 91.4921 107.669 91.9275C108.139 92.3629 108.84 92.5806 109.774 92.5806C110.416 92.5806 111.065 92.4437 111.717 92.1663C112.37 91.8889 112.952 91.4254 113.468 90.7723V84.2622C113.468 83.3563 113.328 82.6575 113.047 82.1624C112.766 81.6673 112.345 81.3232 111.784 81.1231C111.222 80.9229 110.517 80.8246 109.665 80.8246C109.114 80.8246 108.486 80.8738 107.784 80.9756C107.083 81.0739 106.384 81.2425 105.686 81.4777V79.6975C106.321 79.4903 107.019 79.3288 107.784 79.2164C108.549 79.104 109.272 79.0479 109.949 79.0479C111.198 79.0479 112.243 79.2094 113.078 79.5359C113.917 79.8625 114.545 80.4138 114.966 81.1863C115.387 81.9623 115.597 83.0192 115.597 84.3605V94.0238H113.777L113.615 92.3805H113.478C112.998 92.988 112.384 93.455 111.636 93.7815C110.889 94.1081 110.082 94.2696 109.212 94.2696L109.223 94.2661Z" fill="#092C4C"/>
<path d="M124.582 94.28C123.512 94.28 122.54 94.0377 121.663 93.5532C120.786 93.0686 120.085 92.2926 119.565 91.2216C119.046 90.1542 118.783 88.7286 118.783 86.9553C118.783 85.1821 119.067 83.7073 119.632 82.538C120.197 81.3688 121.032 80.4944 122.137 79.9151C123.242 79.3357 124.6 79.0442 126.21 79.0442C126.628 79.0442 127.042 79.0618 127.459 79.0969C127.877 79.132 128.259 79.1777 128.613 79.2339V72.0566H130.785V94.0237H128.94L128.789 92.4331H128.638C128.203 92.9668 127.642 93.4092 126.947 93.7568C126.256 94.1045 125.463 94.28 124.579 94.28H124.582ZM125.07 92.405C125.73 92.405 126.379 92.261 127.014 91.9696C127.649 91.6781 128.182 91.2181 128.617 90.5826V81.0808C128.291 81.0001 127.912 80.9369 127.477 80.8912C127.042 80.8456 126.614 80.8245 126.186 80.8245C124.474 80.8245 123.182 81.288 122.309 82.2115C121.435 83.135 120.997 84.6554 120.997 86.7657C120.997 88.2159 121.172 89.3501 121.519 90.1717C121.867 90.9934 122.347 91.5693 122.958 91.9063C123.568 92.2434 124.274 92.4085 125.07 92.4085V92.405Z" fill="#092C4C"/>
<path d="M141.096 94.2802C139.567 94.2802 138.282 94.0204 137.247 93.4972C136.209 92.9775 135.43 92.1559 134.904 91.0357C134.378 89.9156 134.115 88.4514 134.115 86.6395C134.115 84.8276 134.357 83.4828 134.841 82.3592C135.325 81.2355 136.013 80.4033 136.904 79.8591C137.795 79.3148 138.851 79.0444 140.075 79.0444C141.3 79.0444 142.303 79.3183 143.152 79.8661C143.998 80.4139 144.643 81.2531 145.089 82.3802C145.531 83.5074 145.755 84.947 145.755 86.6957V87.3628H135.297V85.8811H144.152L143.675 86.2076C143.675 84.8312 143.531 83.7321 143.247 82.9175C142.963 82.1028 142.549 81.5164 142.012 81.1583C141.472 80.8001 140.819 80.621 140.051 80.621C139.282 80.621 138.63 80.7966 138.068 81.1512C137.507 81.5059 137.076 82.0888 136.77 82.9034C136.465 83.7181 136.314 84.8206 136.314 86.2076V86.9696C136.314 88.3285 136.497 89.4135 136.865 90.2246C137.233 91.0357 137.788 91.6186 138.528 91.9768C139.272 92.3349 140.212 92.514 141.352 92.514C141.914 92.514 142.496 92.4613 143.096 92.356C143.699 92.2507 144.338 92.1032 145.019 91.9136V93.6938C144.313 93.894 143.64 94.0414 143.001 94.1363C142.363 94.2311 141.728 94.2802 141.093 94.2802H141.096Z" fill="#092C4C"/>
<path d="M148.878 94.0204V79.2727H150.713L150.864 80.9441H151.015C151.576 80.3085 152.221 79.8345 152.951 79.5185C153.681 79.2024 154.456 79.0444 155.281 79.0444C156.105 79.0444 156.824 79.213 157.466 79.5466C158.108 79.8836 158.617 80.4279 158.989 81.1828C159.361 81.9378 159.547 82.9526 159.547 84.2202V94.0204H157.4V84.3571C157.4 83.0895 157.151 82.2082 156.652 81.7201C156.154 81.232 155.498 80.9862 154.684 80.9862C154.277 80.9862 153.853 81.0529 153.414 81.1899C152.976 81.3268 152.551 81.541 152.144 81.836C151.737 82.1309 151.376 82.5207 151.057 83.0123V94.0239H148.885L148.878 94.0204ZM165.785 94.0204V84.3571C165.785 83.0895 165.525 82.2082 165.002 81.7201C164.483 81.232 163.813 80.9862 162.999 80.9862C162.582 80.9862 162.14 81.0564 161.676 81.1969C161.21 81.3374 160.757 81.5761 160.319 81.9167C159.88 82.2573 159.498 82.7208 159.171 83.3107L158.628 81.5586C159.343 80.6245 160.136 79.9714 161.003 79.6027C161.873 79.2305 162.708 79.0444 163.515 79.0444C164.367 79.0444 165.125 79.213 165.795 79.5536C166.465 79.8942 166.992 80.4455 167.378 81.2039C167.763 81.9659 167.956 82.9842 167.956 84.2623V94.0204H165.785Z" fill="#092C4C"/>
<path d="M175.633 94.0202L170.051 79.2725H172.373L177.71 94.0202H175.633ZM173.991 100L176.257 94.0202L176.948 92.4576L181.811 79.2725H183.997L176.159 100H173.987H173.991Z" fill="#092C4C"/>
</g>
<defs>
<clipPath id="clip0_484_57543">
<rect width="184" height="100" fill="white"/>
</clipPath>
</defs>
</svg>
