<!--<svg width="176" height="40" viewBox="0 0 176 40" fill="none" xmlns="http://www.w3.org/2000/svg">-->
<!--<path fill-rule="evenodd" clip-rule="evenodd" d="M29.8287 12.79C29.9277 11.1029 30.3748 2.59889 29.3919 0.756918L29.0984 0.212935L28.4841 0.223264C28.4757 0.223264 28.4022 0.224379 28.2724 0.22635L28.2723 0.226351C26.7253 0.249833 17.1757 0.394783 14.1817 0.223264C11.5675 0.0717748 5.13126 -0.14513 1.90629 0.137191C0.920027 0.223264 0.193129 1.06678 0.247732 2.05835C0.380826 4.32035 0.653839 9.96332 0.336461 13.4923C0.247732 14.4736 0.159002 15.5202 0.121463 16.56C0.0327336 19.0527 -0.0901224 23.5973 0.100987 26.0384C0.179478 27.0265 0.913202 27.8253 1.88581 27.9836C4.27809 28.3692 10.4038 29.261 15.6047 29.1783C17.7615 29.1473 21.6179 29.2128 23.4129 29.5226C24.092 29.6397 24.6278 29.6982 25.1431 29.7154C25.3513 29.7223 25.5834 29.7258 25.8291 29.7258C26.6925 29.7258 27.4399 29.6741 28.0541 29.5743C29.2861 29.3711 30.1598 28.2728 30.0847 27.0196C29.9072 24.0484 29.5284 16.7149 29.8322 12.79H29.8287ZM25.2046 27.6772C24.7848 27.6634 24.3378 27.6152 23.7542 27.512C22.1229 27.2296 19.0106 27.1298 16.6422 27.1298H16.6419C16.2564 27.1298 15.8981 27.1298 15.574 27.1367C10.4789 27.209 4.53063 26.3448 2.2066 25.9661C2.15883 25.9592 2.1247 25.9213 2.11787 25.8731C1.93359 23.5319 2.05645 19.0768 2.14517 16.6288C2.18271 15.6338 2.26803 14.6216 2.35335 13.6714C2.67414 10.1148 2.41819 4.57857 2.28168 2.14786C5.17562 1.92752 10.9737 2.07901 14.0656 2.25459C16.7787 2.40953 24.249 2.32345 27.7607 2.26837C28.0849 4.07246 28.0371 8.79961 27.8118 12.6454C27.5013 16.6736 27.8835 24.1207 28.0644 27.1367C28.078 27.3398 27.9313 27.5223 27.7265 27.5533C26.9177 27.6841 25.9076 27.6875 25.2046 27.6703V27.6772ZM25.9352 11.065C25.8635 11.0374 18.6832 8.17979 15.936 6.81639C15.7859 6.74064 15.6118 6.73032 15.4549 6.7854L10.8102 8.38292C9.09706 8.97167 7.41461 9.70157 5.81066 10.552L4.78686 11.096C4.55821 11.2165 4.42511 11.4678 4.45242 11.726C4.47972 11.9842 4.66059 12.2011 4.90971 12.2734C4.93701 12.2803 6.39081 12.6969 7.9777 13.1996C7.44533 13.9674 7.06311 14.9004 6.9266 16.0331C5.8209 17.3965 4.51726 18.9183 4.15551 19.2282C4.04972 19.2695 3.95758 19.3383 3.88591 19.4313C3.70845 19.6585 3.70845 19.9753 3.87909 20.206C3.98829 20.354 4.879 21.4936 5.94375 21.4936C6.0905 21.4936 6.24065 21.473 6.39081 21.4213C7.51358 21.0564 8.07667 19.4382 8.1654 16.3223C8.26437 15.2791 8.62611 14.3736 9.2438 13.6093C10.2437 13.9467 11.1583 14.2841 11.6634 14.5389C12.5097 14.9727 13.4619 15.3824 14.5778 15.7852L16.2227 16.3843C16.291 16.4084 16.366 16.4222 16.4377 16.4222C16.5264 16.4222 16.6152 16.4015 16.7005 16.3636L22.601 13.6472L25.9454 12.2425C26.1843 12.1426 26.3379 11.9085 26.3344 11.6468C26.3344 11.3886 26.174 11.1545 25.9352 11.0615V11.065ZM6.00859 20.2094C5.84478 20.261 5.56495 20.0992 5.30558 19.8754C5.64344 19.5346 6.10415 19.0147 6.75597 18.2366C6.50343 20.02 6.03589 20.1991 6.00859 20.206V20.2094ZM22.0993 12.4835L16.4138 15.1035L15.0112 14.594C13.9465 14.2049 13.0387 13.8193 12.2367 13.4096C11.7965 13.1858 11.0901 12.9104 10.2915 12.6315C10.7693 12.2803 11.3221 11.9739 11.9569 11.7122C13.7758 10.9617 15.5743 10.8791 15.5914 10.8791C15.9395 10.8653 16.2091 10.5692 16.1954 10.218C16.1818 9.86683 15.8814 9.59139 15.5402 9.60861C15.4822 9.60861 11.4313 9.8083 8.88888 12.1633C8.13468 11.9188 7.3839 11.6881 6.76279 11.4988C8.19611 10.7585 9.69427 10.1216 11.2163 9.59828L15.6153 8.08683C17.7516 9.11971 21.8468 10.7999 24.0309 11.6813L22.0993 12.4938V12.4835ZM20.5626 15.2757C20.5148 14.928 20.7571 14.6078 21.1018 14.5596H21.1052C21.4533 14.5114 21.7672 14.7558 21.815 15.1035L22.4395 19.7309C22.4566 19.8617 22.4327 19.9925 22.3747 20.1096C21.0779 22.647 16.4571 22.9397 16.2626 22.95C15.9998 22.9638 15.7405 22.9707 15.4914 22.9707C10.6283 22.9707 8.86054 20.3919 8.78546 20.2783C8.6899 20.1302 8.65578 19.9478 8.69673 19.7756L9.89116 14.7076C9.97307 14.3668 10.3109 14.1567 10.6522 14.2359C10.99 14.3186 11.2016 14.6629 11.1197 15.0037L9.99695 19.7687C10.5054 20.3334 12.2732 21.8896 16.1944 21.6796C17.2864 21.6176 20.2315 21.1321 21.1598 19.6895L20.5626 15.2757Z" fill="#A7D02A"/>-->
<!--<path fill-rule="evenodd" clip-rule="evenodd" d="M79.7854 20.7161C80.269 20.5908 80.6937 20.4425 81.0629 20.281L81.0597 20.2777C81.4289 20.1129 81.7621 19.9612 82.0627 19.8228L83.5494 24.1805C82.7881 24.6453 81.7164 25.0639 80.3343 25.4364C78.9523 25.8089 77.3513 25.9934 75.5314 25.9934C71.6367 25.9934 68.67 24.9024 66.6312 22.7169C64.5924 20.5348 63.573 17.4297 63.573 13.4082C63.573 11.4073 63.8866 9.62405 64.5074 8.05501C65.1315 6.48598 65.981 5.16087 67.0657 4.07968C68.1505 2.9985 69.4411 2.17772 70.9375 1.62065C72.4372 1.06357 74.0611 0.783386 75.8124 0.783386C76.8252 0.783386 77.7466 0.859201 78.5765 1.01083C79.4064 1.16246 80.1318 1.33716 80.7525 1.53494C81.3733 1.73272 81.8928 1.93709 82.3078 2.14476C82.7227 2.35242 83.0201 2.51724 83.2063 2.63261L81.6511 7.02657C80.9126 6.63101 80.0566 6.29479 79.0764 6.01461C78.0962 5.73442 76.9853 5.59598 75.7405 5.59598C74.9106 5.59598 74.097 5.73442 73.3031 6.01461C72.5091 6.29149 71.8066 6.73979 71.1956 7.3562C70.5846 7.97261 70.0946 8.77031 69.7253 9.74601C69.3561 10.7217 69.1732 11.9084 69.1732 13.3027C69.1732 14.4202 69.2941 15.4585 69.5358 16.4243C69.7776 17.3868 70.1697 18.2175 70.7121 18.9163C71.2544 19.6151 71.9635 20.1689 72.8391 20.5743C73.7147 20.9798 74.7733 21.1842 76.0182 21.1842C76.7991 21.1842 77.5048 21.138 78.1256 21.0457C78.7497 20.9534 79.3018 20.8446 79.7854 20.7161ZM56.0051 6.48948C56.7696 8.24311 57.5407 10.0989 58.3151 12.0503H58.3183C59.0927 14.005 59.8867 16.085 60.6969 18.2935C61.5072 20.502 62.3633 22.9083 63.2651 25.5124H57.4917C57.2238 24.6718 56.9395 23.8082 56.6324 22.9248C56.4728 22.464 56.3132 22.005 56.1541 21.5474C56.007 21.1243 55.8603 20.7024 55.7143 20.2812H46.36C46.1636 20.8561 45.9658 21.4324 45.7676 22.0102L45.7672 22.0114L45.7671 22.0116L45.4516 22.9314C45.1478 23.8181 44.8635 24.6784 44.6021 25.5124H39.002C39.9037 22.9083 40.7565 20.502 41.5668 18.2935C42.3771 16.085 43.1678 14.0017 43.9421 12.0503C44.7165 10.0989 45.4778 8.24641 46.2293 6.48948C46.9807 4.73585 47.7584 3.02178 48.5687 1.34726H53.6788C54.4662 3.01849 55.2405 4.73585 56.0051 6.48948ZM48.6994 12.9634C48.3334 13.9127 47.9642 14.9115 47.5852 15.9564L47.5885 15.9597H54.4368C54.0708 14.9115 53.7147 13.9127 53.3716 12.9568C53.0286 12.0009 52.7018 11.1274 52.3914 10.3363C52.081 9.54515 51.8098 8.84633 51.5779 8.24311C51.3459 7.63989 51.1564 7.16522 51.0126 6.82241C50.8917 7.17511 50.7153 7.65308 50.4833 8.2563C50.2895 8.76035 50.0751 9.33114 49.8364 9.96675L49.6926 10.3494C49.3953 11.1406 49.0653 12.0141 48.6994 12.9634ZM100.004 15.9233C100.004 17.8747 99.5957 19.2591 98.7789 20.0733C97.9621 20.8875 96.8937 21.2929 95.5802 21.2929C94.9333 21.2929 94.3419 21.2006 93.7995 21.0127C93.2572 20.8282 92.7965 20.5183 92.4174 20.0898C92.0384 19.6613 91.7378 19.1009 91.5189 18.4153C91.3 17.7296 91.1922 16.899 91.1922 15.9233V1.34705H85.8011V16.3749C85.8011 17.7923 85.9906 19.0877 86.3729 20.2612C86.7519 21.4347 87.34 22.4466 88.134 23.2938C88.928 24.1442 89.9376 24.8035 91.1595 25.2814C92.3815 25.7561 93.8322 25.9967 95.5149 25.9967C97.1975 25.9967 98.694 25.7627 99.9388 25.2979C101.184 24.8331 102.21 24.1772 103.017 23.3267C103.824 22.4796 104.422 21.461 104.814 20.2744C105.206 19.0877 105.402 17.789 105.402 16.3683V1.34705H100.011V15.9233H100.004ZM126.963 3.961C128.159 4.96307 129.08 6.24204 129.727 7.79789L129.734 7.79459C130.377 9.35044 130.701 11.315 130.701 13.4082C130.701 15.5013 130.377 17.3275 129.734 18.8833C129.087 20.4392 128.172 21.7313 126.986 22.7532C125.797 23.775 124.352 24.5431 122.647 25.054C120.941 25.5649 119.03 25.822 116.909 25.822C115.939 25.822 114.812 25.7825 113.521 25.7001C112.231 25.621 110.963 25.4528 109.718 25.1957V1.66018C110.963 1.42615 112.257 1.27122 113.606 1.18881C114.952 1.10641 116.112 1.06685 117.079 1.06685C119.128 1.06685 120.99 1.30089 122.66 1.76567C124.33 2.23044 125.764 2.96222 126.963 3.961ZM117.181 21.1512C119.876 21.1512 121.876 20.4655 123.176 19.0943H123.173C124.477 17.723 125.127 15.943 125.127 13.4115C125.127 10.8799 124.506 8.96148 123.261 7.65944C122.016 6.3607 120.046 5.70803 117.351 5.70803C116.981 5.70803 116.602 5.71463 116.21 5.72452C115.818 5.73441 115.452 5.76407 115.106 5.81022V21.082C115.361 21.105 115.655 21.1215 115.988 21.1347C116.321 21.1446 116.72 21.1512 117.181 21.1512ZM139.715 15.119H149.289V10.6558H139.715V5.91572H150.497V1.34705H134.324V25.5122H151.291V20.9435H139.715V15.119ZM165.461 17.3176C163.664 14.6212 161.752 12.0732 159.723 9.68009V25.5122H154.401V1.34705H158.789C159.547 2.11509 160.39 3.05783 161.311 4.17198C162.233 5.28612 163.17 6.47938 164.128 7.74516C165.085 9.01094 166.036 10.3262 166.98 11.6842C167.928 13.0456 168.813 14.3509 169.643 15.6068V1.34705H175.001V25.5122H170.473C168.927 22.7466 167.258 20.014 165.461 17.3176Z" fill="#002F56"/>-->
<!--<path fill-rule="evenodd" clip-rule="evenodd" d="M136.58 38.3646C136.474 38.4093 136.351 38.4541 136.215 38.4885C136.078 38.523 135.918 38.5574 135.741 38.5849C135.563 38.6125 135.362 38.6263 135.137 38.6263C134.782 38.6263 134.478 38.5677 134.225 38.4507C133.976 38.3336 133.771 38.1752 133.618 37.9755C133.464 37.7758 133.352 37.5383 133.28 37.2629C133.212 36.9874 133.178 36.6879 133.178 36.3677C133.178 35.9683 133.229 35.6275 133.335 35.3486C133.44 35.0697 133.58 34.8425 133.754 34.6634C133.928 34.4844 134.13 34.3605 134.358 34.2778C134.587 34.1952 134.819 34.1573 135.055 34.1573C135.41 34.1573 135.73 34.1986 136.01 34.2778C136.29 34.357 136.536 34.4534 136.747 34.567L137.191 33.3104C137.143 33.2801 137.071 33.2419 136.976 33.1911L136.935 33.1692C136.819 33.1072 136.669 33.0521 136.491 32.9936C136.314 32.9385 136.106 32.8869 135.867 32.8456C135.628 32.8043 135.365 32.7802 135.075 32.7802C134.573 32.7802 134.109 32.8593 133.679 33.0212C133.249 33.183 132.881 33.4171 132.57 33.7235C132.26 34.0334 132.017 34.4121 131.837 34.8631C131.659 35.3107 131.57 35.8237 131.57 36.3952C131.57 37.5486 131.864 38.4369 132.447 39.0601C133.031 39.6867 133.881 40 134.997 40C135.519 40 135.976 39.9449 136.372 39.8416C136.768 39.7349 137.075 39.6144 137.293 39.4835L136.867 38.2372C136.81 38.2647 136.749 38.2923 136.683 38.3218L136.682 38.3222L136.672 38.3266L136.625 38.3478L136.58 38.368V38.3646ZM129.503 36.0062C129.281 35.4485 129.059 34.9148 128.841 34.4156C128.623 33.9164 128.401 33.4206 128.176 32.942H126.712C126.48 33.4206 126.258 33.9129 126.043 34.4156C125.828 34.9183 125.609 35.4485 125.387 36.0062C125.166 36.564 124.94 37.1596 124.708 37.7931C124.476 38.4266 124.231 39.1152 123.975 39.8589H125.579C125.654 39.6213 125.736 39.3734 125.821 39.1186C125.87 38.9724 125.92 38.8274 125.97 38.6828L125.97 38.6824C126.007 38.5752 126.044 38.4682 126.08 38.3612H128.759C128.822 38.5469 128.887 38.7326 128.953 38.9197L128.953 38.92L128.953 38.9204L128.953 38.9207L128.953 38.921L129.022 39.1186C129.111 39.3734 129.193 39.6179 129.268 39.8589H130.923C130.663 39.1118 130.418 38.4232 130.186 37.7931C129.954 37.1631 129.728 36.564 129.503 36.0062ZM126.432 37.1252C126.541 36.8256 126.647 36.5399 126.753 36.2679C126.818 36.1003 126.878 35.9406 126.934 35.7903L126.936 35.7859L126.937 35.7827L126.938 35.78C126.972 35.69 127.004 35.6035 127.036 35.5208C127.121 35.2935 127.196 35.0938 127.261 34.9217C127.326 34.7496 127.377 34.6118 127.411 34.512C127.452 34.6118 127.507 34.7461 127.572 34.9183C127.609 35.0131 127.649 35.1163 127.692 35.2279L127.759 35.4034L127.804 35.5173C127.892 35.7446 127.984 35.9925 128.083 36.2679C128.182 36.5433 128.285 36.8291 128.387 37.1286H126.425L126.432 37.1252ZM143.05 34.4156C143.268 34.9148 143.49 35.4485 143.712 36.0062C143.937 36.564 144.163 37.1631 144.395 37.7931C144.627 38.4232 144.872 39.1118 145.132 39.8589H143.477C143.402 39.6179 143.32 39.3734 143.231 39.1186L143.162 38.9204L143.162 38.9201L143.162 38.9198C143.096 38.7326 143.031 38.5469 142.968 38.3612H140.289C140.253 38.4682 140.216 38.5753 140.179 38.6826L140.179 38.6831L140.179 38.6836L140.178 38.6838C140.129 38.8281 140.079 38.9728 140.03 39.1186C139.945 39.3734 139.863 39.6213 139.788 39.8589H138.184C138.44 39.1152 138.685 38.4266 138.917 37.7931C139.149 37.1596 139.375 36.564 139.596 36.0062C139.818 35.4485 140.037 34.9183 140.252 34.4156C140.467 33.9129 140.688 33.4206 140.921 32.942H142.385C142.61 33.4206 142.832 33.9164 143.05 34.4156ZM140.962 36.2679C140.856 36.5399 140.75 36.8256 140.641 37.1252L140.634 37.1286H142.596C142.494 36.8291 142.391 36.5433 142.292 36.2679C142.193 35.9925 142.101 35.7446 142.013 35.5173C141.974 35.4196 141.939 35.327 141.905 35.2395L141.903 35.234L141.901 35.2279L141.9 35.2268C141.858 35.1157 141.818 35.0128 141.781 34.9183C141.716 34.7461 141.661 34.6118 141.62 34.512C141.586 34.6118 141.535 34.7496 141.47 34.9217C141.405 35.0938 141.33 35.2935 141.245 35.5208C141.213 35.6043 141.18 35.6916 141.146 35.7824L141.145 35.7842L141.145 35.7858L141.144 35.7877L141.143 35.7894C141.087 35.9399 141.027 36.1 140.962 36.2679ZM151.268 33.6891C150.924 33.4034 150.514 33.1933 150.036 33.0591C149.558 32.9248 149.026 32.8594 148.439 32.8594C148.163 32.8594 147.832 32.8697 147.443 32.8938C147.057 32.9179 146.685 32.9627 146.33 33.0281V39.7693C146.685 39.8416 147.05 39.8898 147.419 39.9139C147.787 39.938 148.111 39.9484 148.388 39.9484C148.995 39.9484 149.541 39.8761 150.029 39.728C150.517 39.58 150.93 39.3631 151.272 39.0704C151.613 38.7778 151.872 38.4094 152.06 37.9618C152.244 37.5177 152.336 36.9943 152.336 36.3953C152.336 35.7962 152.244 35.235 152.06 34.7874C151.876 34.3433 151.609 33.9749 151.268 33.6891ZM150.183 38.0238C149.811 38.4163 149.238 38.6125 148.466 38.6125C148.333 38.6125 148.221 38.6125 148.125 38.6091C148.03 38.6091 147.944 38.6022 147.873 38.5953V34.2228C147.972 34.209 148.077 34.2021 148.19 34.1987C148.247 34.1987 148.303 34.1978 148.359 34.1969H148.359L148.439 34.1958L148.489 34.1953L148.518 34.1952C149.289 34.1952 149.855 34.3812 150.21 34.753C150.565 35.1248 150.746 35.6757 150.746 36.3987C150.746 37.1217 150.558 37.6347 150.186 38.0272L150.183 38.0238ZM158.224 36.8842H155.484V38.554H158.798V39.8623H153.941V32.942H158.572V34.2503H155.484V35.6068H158.224V36.8842ZM167.544 36.261C167.5 35.6447 167.452 35.0525 167.394 34.4845C167.339 33.9164 167.278 33.3999 167.21 32.942H165.804C165.684 33.1624 165.548 33.4344 165.391 33.7546C165.234 34.0782 165.073 34.4259 164.903 34.8012C164.735 35.1765 164.568 35.5621 164.401 35.9546C164.292 36.2112 164.188 36.4575 164.089 36.6944L164.088 36.6959L164.083 36.7074C164.032 36.8284 163.982 36.947 163.933 37.0632C163.862 36.8956 163.789 36.7215 163.713 36.5416C163.634 36.352 163.552 36.156 163.466 35.9546L163.445 35.9059L163.445 35.9045C163.285 35.5293 163.128 35.1605 162.964 34.8012C162.797 34.4259 162.633 34.0747 162.48 33.7546C162.323 33.4309 162.186 33.1589 162.067 32.942H160.592C160.528 33.3999 160.466 33.9164 160.408 34.4845C160.35 35.0525 160.302 35.6447 160.258 36.261C160.214 36.8773 160.176 37.4936 160.139 38.1133C160.101 38.733 160.07 39.3149 160.043 39.8623H161.548C161.568 39.1909 161.592 38.4576 161.626 37.6657C161.661 36.8738 161.708 36.0751 161.777 35.2694L161.82 35.3697C161.928 35.622 162.046 35.8985 162.172 36.199C162.319 36.5399 162.463 36.8773 162.606 37.2181C162.749 37.559 162.886 37.8826 163.019 38.1925C163.152 38.5024 163.265 38.7675 163.357 38.9878H164.435C164.527 38.7675 164.64 38.5024 164.773 38.1925C164.906 37.8826 165.043 37.559 165.186 37.2181C165.329 36.8773 165.473 36.5399 165.619 36.199C165.704 36.0029 165.782 35.8171 165.857 35.6415C165.889 35.5648 165.921 35.4901 165.952 35.4173C165.973 35.3671 165.994 35.3178 166.015 35.2694C166.08 36.0751 166.131 36.8738 166.165 37.6657C166.199 38.4576 166.223 39.1909 166.244 39.8623H167.749C167.721 39.3183 167.691 38.733 167.653 38.1133C167.616 37.4936 167.578 36.8773 167.534 36.261H167.544ZM172.604 34.3674C172.853 33.8957 173.085 33.4206 173.297 32.942V32.9455H175C174.624 33.6891 174.235 34.4122 173.833 35.1111C173.43 35.81 173.003 36.5123 172.556 37.2181V39.8623H171.014V37.2354C170.563 36.5296 170.137 35.8238 169.731 35.118C169.324 34.4121 168.932 33.6891 168.557 32.942H170.348C170.56 33.4206 170.789 33.8957 171.031 34.3674C171.277 34.8391 171.536 35.3108 171.812 35.7824C172.089 35.3108 172.355 34.8391 172.604 34.3674Z" fill="#002F56"/>-->
<!--</svg>-->
<svg width="298" height="70" viewBox="0 0 298 70" fill="none" xmlns="http://www.w3.org/2000/svg">
    <path d="M17.1363 17.9679C17.1363 17.9679 17.1202 17.9679 17.1095 17.9733C17.1202 17.9733 17.1256 17.9733 17.1363 17.9679Z" fill="#002F56"/>
    <path fill-rule="evenodd" clip-rule="evenodd" d="M18.4301 22.4072C18.4301 25.3401 21.3506 27.7248 24.9422 27.7248C28.5337 27.7248 31.4542 25.3401 31.4542 22.4072C31.4542 19.4743 28.5337 17.0897 24.9422 17.0897C21.3506 17.0897 18.4301 19.4743 18.4301 22.4072ZM20.5829 22.4072C20.5829 20.6507 22.5371 19.2241 24.9422 19.2241C27.3473 19.2241 29.3014 20.6507 29.3014 22.4072C29.3014 24.1638 27.3473 25.5903 24.9422 25.5903C22.5371 25.5903 20.5829 24.1638 20.5829 22.4072Z" fill="#002F56"/>
    <path fill-rule="evenodd" clip-rule="evenodd" d="M22.8484 37.6839C21.4472 37.6839 20.2769 37.6573 19.9279 37.5774C19.4126 37.4603 19.0636 36.9919 19.0958 36.4703L19.2891 33.3191C18.0919 32.8773 17.3403 32.542 16.8571 32.2758L14.1514 34.1761C13.9044 34.3464 13.6038 34.4103 13.3085 34.3518C13.0132 34.2932 12.7609 34.1122 12.6052 33.8567C8.16007 26.5271 8.4446 26.0747 8.80966 25.4945C8.9063 25.3401 9.04051 25.2124 9.20157 25.1272L12.2831 23.4292C12.1274 22.7639 12.0362 22.2954 11.9878 21.9548L8.61103 19.5648C8.16007 19.2454 8.02586 18.6333 8.30502 18.1596C12.1694 11.5609 12.884 11.2666 13.2331 11.1228C13.6035 10.9685 14.0279 11.0322 14.3339 11.2877L16.9108 13.4062C17.802 12.8154 18.5053 12.3736 19.0314 12.0915V8.75402C19.0314 8.20044 19.4609 7.73735 20.0192 7.68945C28.0291 7.01344 28.3619 7.1199 28.6035 7.19974C29.1028 7.36475 29.4088 7.8651 29.3283 8.38142L28.7861 11.6976L30.4986 12.5971C33.7734 11.2717 34.2459 11.2717 34.423 11.2717C34.7827 11.2717 35.1156 11.4474 35.3142 11.7402C37.0053 14.21 39.0454 17.3558 39.1742 18.3033C39.2333 18.7557 39.0024 19.1922 38.5944 19.3945L35.3464 21.0286L35.2283 23.4665C38.9111 25.553 39.0293 25.9576 39.142 26.3515C39.2225 26.6336 39.1849 26.937 39.0346 27.1872L35.1102 33.7716C34.8257 34.2453 34.2244 34.4316 33.7198 34.1921C31.7871 33.2766 30.6973 32.6165 30.0799 32.1162L29.3014 32.5367L29.4034 36.4916C29.4088 36.7737 29.3068 37.0505 29.1082 37.2581C28.9095 37.4657 28.6411 37.5828 28.3566 37.5881C27.0627 37.62 24.7489 37.6679 22.8592 37.6679L22.8484 37.6839ZM21.3077 35.5388C22.5693 35.5601 24.9046 35.5388 27.2131 35.4909L27.1218 31.9512C27.1111 31.5519 27.3312 31.174 27.6855 30.9824L29.8007 29.8433C30.1175 29.673 30.504 29.673 30.8207 29.8433C31.0408 29.9604 31.2126 30.152 31.3093 30.3756C31.6099 30.6577 32.6246 31.2592 33.7627 31.8447L36.7154 26.8838C35.996 26.3994 34.7076 25.6329 33.5909 25.0101C33.2366 24.8132 33.0218 24.4299 33.0433 24.0254L33.2258 20.3153C33.242 19.9321 33.4674 19.5861 33.8164 19.4158L36.7261 17.952C36.1893 16.9832 35.0619 15.2107 33.9613 13.5766C33.2151 13.8321 31.9374 14.3271 30.853 14.7689C30.5577 14.8913 30.2195 14.8753 29.9349 14.7263L27.095 13.2306C26.687 13.0177 26.4615 12.5705 26.5366 12.1181L26.993 9.31293C25.6723 9.38745 23.4175 9.55778 21.1896 9.73876V12.7675C21.1896 13.2519 20.8567 13.6777 20.3896 13.8001C20.0299 13.9385 18.5965 14.8487 17.4638 15.6205C17.0665 15.892 16.535 15.8707 16.1646 15.562L13.7487 13.5766C13.0347 14.5453 11.7946 16.5041 10.6672 18.3884L13.6682 20.5176C14.0064 20.7571 14.1675 21.1617 14.1084 21.5502C14.1406 21.8803 14.3608 22.8916 14.5701 23.6954C14.6936 24.1638 14.4789 24.6588 14.0494 24.893L10.9893 26.5804C11.4725 27.629 12.6589 29.7528 13.8561 31.7595L16.2236 30.0935C16.4652 29.9231 16.7659 29.8593 17.0558 29.9178C17.2973 29.9657 17.5121 30.0935 17.6678 30.2744C18.0382 30.5353 19.5414 31.1474 20.7654 31.5732C21.2218 31.7329 21.5117 32.1694 21.4848 32.6431L21.3077 35.5335V35.5388Z" fill="#002F56"/>
    <path fill-rule="evenodd" clip-rule="evenodd" d="M39.5533 45.945C39.8808 45.9557 40.2459 45.961 40.6324 45.961H40.6378C41.996 45.961 43.1717 45.8812 44.1381 45.7268C46.0761 45.4128 47.4505 43.7148 47.3324 41.7772C47.0532 37.1836 46.4573 25.8458 46.9351 19.7777C47.0908 17.1695 47.7887 4.022 46.2425 1.17426L45.7808 0.32792L44.6329 0.345962C42.2908 0.381059 27.0556 0.609365 22.3095 0.343889C18.2026 0.115005 8.07748 -0.22566 3.0042 0.210817C1.45269 0.343889 0.309185 1.65332 0.389713 3.18631C0.599087 6.68877 1.02857 15.413 0.529296 20.8636C0.389713 22.3806 0.250131 23.9935 0.191077 25.6063C0.0514941 29.4601 -0.141774 36.4863 0.158865 40.2602C0.282342 41.7879 1.43658 43.0228 2.96662 43.2676C6.72998 43.8691 16.3665 45.2477 24.5482 45.1147C27.9411 45.0668 34.0076 45.1679 36.8315 45.647C37.8998 45.8279 38.7427 45.9184 39.5533 45.945ZM37.3737 42.5384C34.8075 42.1019 29.9114 41.9476 26.1856 41.9476L26.1803 41.9635C25.5736 41.9635 25.0045 41.9688 24.4999 41.9742C16.49 42.0859 7.12725 40.7446 3.47126 40.1644C3.39074 40.1537 3.33705 40.0952 3.33168 40.0207C3.04178 36.4011 3.23505 29.5133 3.37463 25.7287C3.43368 24.1957 3.5679 22.6308 3.70211 21.1564C4.20676 15.6578 3.80948 7.09863 3.58937 3.34067C8.14191 2.99469 17.2631 3.22889 22.127 3.50568C26.3896 3.74521 38.1468 3.60682 43.671 3.52697C44.181 6.31616 44.1059 13.6245 43.7515 19.5701C43.263 25.7979 43.8696 37.3113 44.1488 41.9742C44.1703 42.2882 43.9448 42.565 43.6227 42.6182C42.345 42.8205 40.7559 42.8258 39.6499 42.7939C38.995 42.7726 38.2917 42.6928 37.3737 42.5384Z" fill="#002F56"/>
    <path d="M104.915 42.5394C104.474 41.1821 104.007 39.7928 103.503 38.361C102.998 36.9344 102.493 35.5079 101.994 34.092H86.6239C86.1246 35.5132 85.6307 36.9398 85.1314 38.3716C84.6321 39.8035 84.1651 41.1928 83.7356 42.5394H74.5339C76.0156 38.3344 77.4222 34.4487 78.7482 30.8823C80.0796 27.316 81.3788 23.9573 82.6511 20.8008C83.9235 17.6496 85.1744 14.6529 86.4091 11.8211C87.6439 8.9893 88.927 6.21608 90.253 3.51738H98.6494C99.9433 6.2214 101.216 8.9893 102.472 11.8211C103.728 14.6582 104.99 17.6496 106.267 20.8008C107.54 23.9519 108.844 27.316 110.176 30.8823C111.507 34.4487 112.914 38.3344 114.395 42.5394H104.909H104.915ZM94.2687 12.3587C94.0701 12.9229 93.7802 13.6947 93.399 14.6741C93.0178 15.6482 92.583 16.7767 92.0998 18.0542C91.6113 19.3317 91.069 20.7422 90.4678 22.2752C89.8665 23.8082 89.2545 25.4264 88.6371 27.1084H99.8896C99.2883 25.4157 98.7031 23.7976 98.1394 22.2593C97.5757 20.7156 97.0389 19.3104 96.5289 18.0276C96.0188 16.7501 95.5732 15.6216 95.1921 14.6475C94.8109 13.6734 94.4995 12.9123 94.2633 12.3534L94.2687 12.3587Z" fill="#002F56"/>
    <path d="M134.56 43.3326C128.16 43.3326 123.286 41.5707 119.936 38.0416C116.586 34.5125 114.911 29.5037 114.911 23.0098C114.911 19.7841 115.421 16.8991 116.446 14.3654C117.466 11.8317 118.867 9.69192 120.65 7.94602C122.427 6.20011 124.547 4.88004 127.012 3.97515C129.47 3.07558 132.144 2.62313 135.021 2.62313C136.686 2.62313 138.2 2.74556 139.563 2.99041C140.927 3.23526 142.119 3.51738 143.139 3.83675C144.159 4.15612 145.012 4.48614 145.694 4.82148C146.376 5.15683 146.864 5.42297 147.17 5.60927L144.615 12.7047C143.402 12.0659 141.995 11.523 140.385 11.0706C138.774 10.6181 136.949 10.3945 134.903 10.3945C133.54 10.3945 132.208 10.6181 130.898 11.0706C129.594 11.523 128.44 12.2469 127.436 13.237C126.432 14.227 125.626 15.5152 125.02 17.0961C124.413 18.6716 124.112 20.5879 124.112 22.8394C124.112 24.6386 124.311 26.3206 124.708 27.8802C125.106 29.4398 125.75 30.7812 126.641 31.9043C127.532 33.0328 128.697 33.9217 130.136 34.5817C131.575 35.2364 133.314 35.5665 135.36 35.5665C136.648 35.5665 137.802 35.4919 138.822 35.3429C139.842 35.1939 140.755 35.0129 141.55 34.8106C142.344 34.603 143.047 34.3688 143.649 34.108C144.255 33.8472 144.803 33.6023 145.297 33.3734L147.74 40.4103C146.489 41.1608 144.728 41.8368 142.457 42.4383C140.186 43.0398 137.555 43.3379 134.565 43.3379L134.56 43.3326Z" fill="#002F56"/>
    <path d="M167.383 43.3326C164.618 43.3326 162.235 42.9493 160.227 42.1775C158.219 41.411 156.565 40.3411 155.255 38.9678C153.951 37.5998 152.985 35.9657 152.362 34.0707C151.739 32.1758 151.422 30.0839 151.422 27.7951V3.5227H160.28V27.0552C160.28 28.6307 160.458 29.9721 160.817 31.0793C161.177 32.1864 161.671 33.086 162.294 33.7833C162.916 34.4806 163.673 34.9756 164.565 35.2737C165.456 35.5771 166.427 35.7262 167.49 35.7262C169.649 35.7262 171.399 35.0714 172.746 33.7567C174.088 32.4419 174.759 30.2116 174.759 27.0552V3.5227H183.618V27.7897C183.618 30.0786 183.295 32.1811 182.651 34.0973C182.007 36.0136 181.025 37.653 179.699 39.0263C178.372 40.3996 176.687 41.4589 174.641 42.2094C172.596 42.96 170.175 43.3379 167.372 43.3379L167.383 43.3326Z" fill="#002F56"/>
    <path d="M225.197 23.0045C225.197 26.3845 224.666 29.328 223.608 31.8458C222.545 34.3635 221.042 36.4447 219.093 38.0948C217.144 39.7449 214.766 40.9852 211.964 41.8102C209.161 42.6353 206.021 43.0504 202.536 43.0504C200.947 43.0504 199.09 42.9866 196.969 42.8535C194.849 42.7204 192.766 42.449 190.72 42.0391V4.02837C192.766 3.65577 194.892 3.40027 197.109 3.2672C199.321 3.13413 201.226 3.07026 202.816 3.07026C206.187 3.07026 209.242 3.44818 211.985 4.19871C214.728 4.94923 217.085 6.13091 219.055 7.74375C221.026 9.35658 222.54 11.4219 223.597 13.9396C224.655 16.4573 225.186 19.4754 225.186 23.0045H225.197ZM199.584 35.3908C199.997 35.4281 200.48 35.4547 201.033 35.476C201.581 35.4973 202.236 35.5026 202.993 35.5026C207.422 35.5026 210.707 34.3954 212.844 32.1811C214.981 29.9668 216.054 26.9061 216.054 23.0045C216.054 19.1028 215.034 15.8186 212.989 13.716C210.943 11.6135 207.706 10.5649 203.277 10.5649C202.671 10.5649 202.048 10.5755 201.404 10.5915C200.759 10.6128 200.153 10.6554 199.589 10.7299V35.3908H199.584Z" fill="#002F56"/>
    <path d="M231.161 3.5227H257.736V10.9002H240.02V18.5599H255.749V25.767H240.02V35.1726H259.046V42.5501H231.161V3.5227Z" fill="#002F56"/>
    <path d="M290.559 42.5394C288.02 38.0735 285.277 33.6609 282.324 29.3067C279.371 24.9526 276.23 20.8434 272.897 16.9736V42.5341H264.151V3.5227H271.361C272.612 4.76293 273.992 6.27995 275.506 8.08441C277.02 9.88355 278.56 11.8104 280.133 13.8544C281.701 15.8984 283.263 18.0222 284.82 20.2153C286.372 22.4136 287.832 24.5215 289.196 26.5495V3.5227H298V42.5394H290.559Z" fill="#002F56"/>
    <path d="M174.571 61.7442C174.571 62.4947 174.48 63.1707 174.292 63.7722C174.104 64.3737 173.841 64.9007 173.508 65.3531C173.17 65.8056 172.767 66.1835 172.3 66.4816C171.833 66.7797 171.317 66.9979 170.759 67.131C170.813 67.3386 170.926 67.5036 171.103 67.6313C171.28 67.7591 171.5 67.8655 171.774 67.9454C172.042 68.0305 172.359 68.0891 172.713 68.1317C173.073 68.1742 173.46 68.2062 173.873 68.2381L173.374 70C172.563 69.9681 171.87 69.8882 171.296 69.7605C170.722 69.6327 170.233 69.4517 169.83 69.2282C169.428 68.9993 169.116 68.7225 168.88 68.3925C168.649 68.0625 168.467 67.6845 168.343 67.2481C167.699 67.1629 167.103 66.9872 166.556 66.7158C166.003 66.4443 165.53 66.077 165.122 65.6139C164.719 65.1508 164.403 64.5973 164.172 63.9479C163.941 63.2985 163.828 62.5639 163.828 61.7389C163.828 60.8233 163.973 60.0196 164.263 59.3223C164.553 58.625 164.945 58.0448 165.439 57.5711C165.933 57.0973 166.502 56.7407 167.151 56.5065C167.801 56.267 168.483 56.1499 169.197 56.1499C169.911 56.1499 170.63 56.267 171.285 56.5065C171.94 56.7407 172.509 57.0973 172.998 57.5711C173.486 58.0448 173.867 58.6303 174.152 59.3223C174.431 60.0143 174.571 60.8233 174.571 61.7389V61.7442ZM166.335 61.7442C166.335 62.2712 166.4 62.7449 166.529 63.1654C166.658 63.5859 166.845 63.9479 167.087 64.2513C167.329 64.5547 167.629 64.7889 167.984 64.9539C168.338 65.1189 168.741 65.1988 169.197 65.1988C169.653 65.1988 170.045 65.1189 170.405 64.9539C170.764 64.7889 171.065 64.5547 171.307 64.2513C171.548 63.9479 171.736 63.5859 171.865 63.1654C171.994 62.7449 172.058 62.2712 172.058 61.7442C172.058 61.2172 171.994 60.7435 171.865 60.3177C171.736 59.8918 171.548 59.5246 171.307 59.2212C171.06 58.9178 170.759 58.6835 170.405 58.5185C170.045 58.3535 169.642 58.2737 169.197 58.2737C168.751 58.2737 168.333 58.3589 167.984 58.5292C167.629 58.6995 167.334 58.9337 167.087 59.2371C166.845 59.5405 166.658 59.9078 166.529 60.3336C166.4 60.7595 166.335 61.2332 166.335 61.7442Z" fill="#002F56"/>
    <path d="M180.646 67.0618C179.889 67.0618 179.234 66.9553 178.686 66.7477C178.133 66.5348 177.682 66.242 177.323 65.8694C176.963 65.4915 176.7 65.0444 176.528 64.5281C176.356 64.0064 176.27 63.4369 176.27 62.8088V56.1552H178.697V62.6065C178.697 63.0377 178.745 63.4049 178.847 63.7083C178.949 64.0117 179.084 64.2566 179.25 64.4482C179.422 64.6399 179.631 64.7729 179.873 64.8581C180.114 64.9433 180.383 64.9805 180.673 64.9805C181.263 64.9805 181.746 64.7995 182.111 64.4376C182.482 64.0756 182.664 63.4635 182.664 62.6012V56.1499H185.091V62.8035C185.091 63.4316 185.005 64.0064 184.828 64.5334C184.651 65.0604 184.382 65.5075 184.017 65.8854C183.652 66.2633 183.191 66.5508 182.632 66.7584C182.074 66.966 181.408 67.0671 180.64 67.0671L180.646 67.0618Z" fill="#002F56"/>
    <path d="M195.117 66.8435C194.999 66.4709 194.87 66.0877 194.731 65.6991C194.591 65.3052 194.457 64.9166 194.317 64.5281H190.103C189.969 64.9166 189.829 65.3105 189.695 65.6991C189.561 66.093 189.432 66.4709 189.314 66.8435H186.791C187.199 65.6885 187.58 64.6239 187.945 63.6498C188.31 62.6757 188.664 61.7495 189.013 60.8872C189.362 60.0249 189.706 59.1999 190.044 58.4281C190.382 57.6509 190.737 56.8897 191.096 56.1499H193.399C193.754 56.8897 194.103 57.6509 194.446 58.4281C194.79 59.2052 195.139 60.0249 195.488 60.8872C195.837 61.7495 196.196 62.6704 196.561 63.6498C196.926 64.6292 197.313 65.6938 197.721 66.8435H195.117ZM192.197 58.5718C192.143 58.7261 192.063 58.939 191.961 59.2052C191.853 59.4713 191.735 59.7801 191.606 60.1314C191.472 60.4827 191.322 60.8659 191.161 61.2864C190.994 61.7069 190.828 62.1487 190.656 62.6118H193.743C193.577 62.1487 193.415 61.7069 193.265 61.2811C193.115 60.8553 192.964 60.472 192.825 60.1207C192.685 59.7694 192.562 59.4607 192.46 59.1945C192.352 58.9284 192.272 58.7155 192.208 58.5664L192.197 58.5718Z" fill="#002F56"/>
    <path d="M206.631 64.7783V66.8488H199.421V56.1499H201.847V64.7783H206.631Z" fill="#002F56"/>
    <path d="M208.33 56.1499H210.757V66.8488H208.33V56.1499Z" fill="#002F56"/>
    <path d="M221.39 56.1499V58.2045H218.136V66.8488H215.71V58.2045H212.457V56.1499H221.395H221.39Z" fill="#002F56"/>
    <path d="M228.216 60.5466C228.651 59.8173 229.07 59.0881 229.462 58.3588C229.854 57.6296 230.219 56.8951 230.552 56.1552H233.231C232.64 57.3102 232.028 58.4227 231.395 59.5033C230.761 60.5838 230.09 61.6697 229.387 62.7609V66.8488H226.96V62.7875C226.257 61.6963 225.58 60.6051 224.942 59.5139C224.303 58.4227 223.691 57.2996 223.095 56.1499H225.913C226.246 56.8897 226.601 57.6243 226.987 58.3535C227.368 59.0828 227.782 59.812 228.216 60.5412V60.5466Z" fill="#002F56"/>
    <path d="M238.538 65.2573C238.882 65.2573 239.166 65.2307 239.386 65.1721C239.612 65.1136 239.789 65.0391 239.923 64.9379C240.057 64.8421 240.149 64.725 240.202 64.5919C240.256 64.4589 240.277 64.3098 240.277 64.1448C240.277 63.7935 240.111 63.5061 239.778 63.2719C239.445 63.043 238.876 62.7928 238.066 62.5213C237.711 62.3989 237.362 62.2552 237.008 62.0955C236.654 61.9358 236.337 61.7336 236.058 61.494C235.779 61.2545 235.548 60.9617 235.371 60.6157C235.193 60.2698 235.107 59.8493 235.107 59.3596C235.107 58.8698 235.199 58.4227 235.387 58.0235C235.575 57.6296 235.838 57.289 236.181 57.0122C236.525 56.7354 236.938 56.5225 237.427 56.3734C237.915 56.2244 238.463 56.1499 239.075 56.1499C239.8 56.1499 240.428 56.2244 240.959 56.3787C241.491 56.5331 241.926 56.7034 242.269 56.8897L241.571 58.79C241.271 58.6356 240.938 58.4972 240.567 58.3801C240.197 58.263 239.757 58.2045 239.236 58.2045C238.656 58.2045 238.237 58.2843 237.985 58.444C237.733 58.6037 237.604 58.8486 237.604 59.1786C237.604 59.3755 237.652 59.5405 237.743 59.6736C237.835 59.8067 237.969 59.9291 238.141 60.0356C238.313 60.142 238.511 60.2431 238.731 60.3283C238.957 60.4188 239.204 60.504 239.472 60.5998C240.03 60.8074 240.519 61.0096 240.938 61.2119C241.356 61.4142 241.7 61.6484 241.974 61.9145C242.248 62.1807 242.452 62.4947 242.591 62.8567C242.731 63.2186 242.795 63.6551 242.795 64.1661C242.795 65.1668 242.441 65.9386 241.738 66.4869C241.029 67.0352 239.966 67.3119 238.543 67.3119C238.066 67.3119 237.636 67.2853 237.25 67.2268C236.868 67.1682 236.525 67.099 236.23 67.0192C235.934 66.934 235.682 66.8488 235.467 66.7584C235.252 66.6679 235.075 66.5774 234.93 66.4975L235.618 64.5813C235.94 64.757 236.337 64.9113 236.809 65.0497C237.282 65.1881 237.862 65.2573 238.543 65.2573H238.538Z" fill="#002F56"/>
    <path d="M249.617 60.5466C250.051 59.8173 250.47 59.0881 250.862 58.3588C251.254 57.6296 251.619 56.8951 251.952 56.1552H254.631C254.04 57.3102 253.428 58.4227 252.795 59.5033C252.161 60.5838 251.49 61.6697 250.787 62.7609V66.8488H248.36V62.7875C247.657 61.6963 246.981 60.6051 246.342 59.5139C245.703 58.4227 245.091 57.2996 244.495 56.1499H247.313C247.646 56.8897 248.001 57.6243 248.387 58.3535C248.768 59.0828 249.182 59.812 249.617 60.5412V60.5466Z" fill="#002F56"/>
    <path d="M259.938 65.2573C260.282 65.2573 260.566 65.2307 260.786 65.1721C261.012 65.1136 261.189 65.0391 261.323 64.9379C261.457 64.8421 261.549 64.725 261.602 64.5919C261.656 64.4589 261.678 64.3098 261.678 64.1448C261.678 63.7935 261.511 63.5061 261.178 63.2719C260.845 63.043 260.276 62.7928 259.466 62.5213C259.111 62.3989 258.762 62.2552 258.408 62.0955C258.054 61.9358 257.737 61.7336 257.458 61.494C257.179 61.2545 256.948 60.9617 256.771 60.6157C256.593 60.2698 256.508 59.8493 256.508 59.3596C256.508 58.8698 256.599 58.4227 256.787 58.0235C256.975 57.6296 257.238 57.289 257.581 57.0122C257.925 56.7354 258.338 56.5225 258.827 56.3734C259.315 56.2244 259.863 56.1499 260.475 56.1499C261.2 56.1499 261.828 56.2244 262.359 56.3787C262.891 56.5331 263.326 56.7034 263.669 56.8897L262.971 58.79C262.671 58.6356 262.338 58.4972 261.967 58.3801C261.597 58.263 261.157 58.2045 260.636 58.2045C260.056 58.2045 259.637 58.2843 259.385 58.444C259.133 58.6037 259.004 58.8486 259.004 59.1786C259.004 59.3755 259.052 59.5405 259.144 59.6736C259.235 59.8067 259.369 59.9291 259.541 60.0356C259.713 60.142 259.911 60.2431 260.131 60.3283C260.357 60.4188 260.604 60.504 260.872 60.5998C261.431 60.8074 261.919 61.0096 262.338 61.2119C262.757 61.4142 263.1 61.6484 263.374 61.9145C263.648 62.1807 263.852 62.4947 263.991 62.8567C264.131 63.2186 264.195 63.6551 264.195 64.1661C264.195 65.1668 263.841 65.9386 263.138 66.4869C262.429 67.0352 261.366 67.3119 259.943 67.3119C259.466 67.3119 259.036 67.2853 258.65 67.2268C258.268 67.1682 257.925 67.099 257.63 67.0192C257.334 66.934 257.082 66.8488 256.867 66.7584C256.652 66.6679 256.475 66.5774 256.33 66.4975L257.018 64.5813C257.34 64.757 257.737 64.9113 258.209 65.0497C258.682 65.1881 259.262 65.2573 259.943 65.2573H259.938Z" fill="#002F56"/>
    <path d="M274.828 56.1499V58.2045H271.575V66.8488H269.148V58.2045H265.895V56.1499H274.834H274.828Z" fill="#002F56"/>
    <path d="M276.539 66.8488V56.1499H283.824V58.1726H278.965V60.2698H283.276V62.2446H278.965V64.8208H284.178V66.8435H276.533L276.539 66.8488Z" fill="#002F56"/>
    <path d="M289.045 56.1499C289.233 56.4905 289.448 56.911 289.695 57.4061C289.942 57.9064 290.194 58.444 290.457 59.0242C290.72 59.6044 290.983 60.2006 291.246 60.8074C291.509 61.4142 291.751 61.9837 291.982 62.5213C292.213 61.9891 292.454 61.4142 292.717 60.8074C292.975 60.2006 293.238 59.6044 293.507 59.0242C293.77 58.444 294.027 57.9011 294.274 57.4061C294.521 56.9057 294.736 56.4852 294.924 56.1499H297.136C297.238 56.8578 297.334 57.6562 297.426 58.5345C297.511 59.4128 297.592 60.3283 297.662 61.2811C297.726 62.2339 297.791 63.1867 297.85 64.1448C297.909 65.1029 297.957 66.0025 298 66.8488H295.632C295.6 65.8109 295.563 64.6771 295.509 63.4529C295.455 62.2286 295.38 60.9937 295.273 59.7481C295.085 60.1793 294.876 60.6583 294.65 61.1853C294.419 61.7123 294.194 62.2339 293.968 62.7609C293.743 63.2878 293.528 63.7882 293.319 64.2673C293.109 64.7463 292.932 65.1562 292.787 65.4968H291.091C290.946 65.1562 290.769 64.7463 290.559 64.2673C290.35 63.7882 290.135 63.2878 289.91 62.7609C289.684 62.2339 289.459 61.7123 289.228 61.1853C288.997 60.6583 288.793 60.1793 288.605 59.7481C288.503 60.9937 288.422 62.2286 288.369 63.4529C288.315 64.6771 288.278 65.8109 288.245 66.8488H285.878C285.921 66.0078 285.969 65.1029 286.028 64.1448C286.087 63.1867 286.146 62.2339 286.216 61.2811C286.286 60.3283 286.361 59.4128 286.452 58.5345C286.538 57.6562 286.635 56.8578 286.742 56.1499H289.061H289.045Z" fill="#002F56"/>
</svg>
