<svg width="16" height="16" viewBox="0 0 16 16" fill="none" xmlns="http://www.w3.org/2000/svg">
<g clip-path="url(#clip0_26_3)">
<path d="M14 0H2C0.89543 0 0 0.89543 0 2V14C0 15.1046 0.89543 16 2 16H14C15.1046 16 16 15.1046 16 14V2C16 0.89543 15.1046 0 14 0Z" fill="#092C4C"/>
<path fill-rule="evenodd" clip-rule="evenodd" d="M11.3553 12.9965C11.4244 12.9988 11.5016 13 11.5832 13H11.5843C11.8713 13 12.1196 12.9826 12.3237 12.949C12.7331 12.8807 13.0235 12.5113 12.9985 12.0897C12.9395 11.0902 12.8137 8.62343 12.9146 7.30316C12.9475 6.73567 13.0949 3.87509 12.7683 3.25549L12.6708 3.07135L12.4576 3.07482L12.4283 3.07527C11.9335 3.08291 8.71523 3.13258 7.71267 3.07482C6.84512 3.02502 4.70629 2.9509 3.63461 3.04587C3.30687 3.07482 3.06531 3.35972 3.08232 3.69326C3.12655 4.45531 3.21728 6.35349 3.11181 7.53941C3.08232 7.86948 3.05284 8.2204 3.04036 8.57131C3.01088 9.4098 2.97005 10.9385 3.03356 11.7596C3.05964 12.092 3.30346 12.3607 3.62667 12.414C4.42164 12.5449 6.45727 12.8448 8.18557 12.8159C8.9023 12.8054 10.1838 12.8274 10.7803 12.9317C11.006 12.971 11.184 12.9907 11.3553 12.9965ZM10.8948 12.2553C10.3528 12.1604 9.3185 12.1268 8.53146 12.1268L8.53033 12.1302C8.40218 12.1302 8.28197 12.1314 8.17537 12.1326C6.48336 12.1569 4.50556 11.865 3.73327 11.7388C3.71626 11.7365 3.70492 11.7237 3.70379 11.7075C3.64255 10.92 3.68337 9.42138 3.71286 8.59795C3.72533 8.26441 3.75368 7.92391 3.78204 7.60311C3.88864 6.40676 3.80472 4.54449 3.75822 3.72685C4.7199 3.65157 6.64666 3.70253 7.67412 3.76275C8.57456 3.81487 11.0581 3.78476 12.2251 3.76738C12.3328 4.37424 12.3169 5.96436 12.2421 7.25799C12.1389 8.613 12.267 11.118 12.326 12.1326C12.3305 12.2009 12.2829 12.2611 12.2149 12.2727C11.945 12.3167 11.6093 12.3179 11.3757 12.3109C11.2373 12.3063 11.0888 12.2889 10.8948 12.2553ZM7.82622 11.199C7.53024 11.199 7.28301 11.1932 7.2093 11.1758C7.10043 11.1503 7.02671 11.0484 7.03352 10.9349L7.07434 10.2493C6.82145 10.1532 6.66268 10.0802 6.56062 10.0223L5.98905 10.4358C5.93689 10.4728 5.87338 10.4867 5.81101 10.474C5.74863 10.4613 5.69533 10.4219 5.66244 10.3663C4.72345 8.77154 4.78355 8.6731 4.86067 8.54686C4.88108 8.51328 4.90943 8.48548 4.94345 8.46695L5.5944 8.09751C5.56151 7.95274 5.54223 7.85083 5.53203 7.77671L4.81871 7.25671C4.72345 7.18722 4.6951 7.05403 4.75407 6.95096C5.57037 5.51525 5.72134 5.45121 5.79507 5.41994L5.79513 5.41991C5.87338 5.38633 5.96297 5.40022 6.02761 5.45581L6.57196 5.91675C6.76021 5.7882 6.90877 5.69207 7.01991 5.63069V4.90454C7.01991 4.7841 7.11063 4.68334 7.22858 4.67292C8.92059 4.52583 8.9909 4.549 9.04193 4.56637C9.1474 4.60227 9.21204 4.71114 9.19503 4.82347L9.08049 5.54499L9.44225 5.74071C10.134 5.45234 10.2338 5.45234 10.2712 5.45234C10.3472 5.45234 10.4175 5.49056 10.4595 5.55425C10.8167 6.09163 11.2477 6.77608 11.2749 6.98223C11.2874 7.08067 11.2386 7.17564 11.1524 7.21965L10.4663 7.57519L10.4414 8.10562C11.2193 8.5596 11.2443 8.64762 11.2681 8.73332C11.2851 8.7947 11.2772 8.86072 11.2454 8.91515L10.4164 10.3478C10.3563 10.4508 10.2293 10.4914 10.1227 10.4392C9.71443 10.2401 9.48421 10.0964 9.3538 9.98758L9.18936 10.0791L9.21091 10.9396C9.21204 11.0009 9.19049 11.0612 9.14853 11.1063C9.10657 11.1515 9.04987 11.177 8.98976 11.1781C8.71646 11.1851 8.22768 11.1955 7.82849 11.1955L7.82622 11.199ZM7.50075 10.7323C7.76725 10.7369 8.26057 10.7323 8.74821 10.7218L8.72893 9.95168C8.72666 9.86482 8.77316 9.78259 8.84801 9.7409L9.29483 9.49306C9.36173 9.456 9.44339 9.456 9.5103 9.49306C9.55679 9.51854 9.59308 9.56023 9.61349 9.60887C9.677 9.67025 9.89134 9.80112 10.1318 9.92851L10.7555 8.84914C10.6035 8.74375 10.3314 8.57698 10.0955 8.44147C10.0206 8.39862 9.97526 8.31524 9.97979 8.22722L10.0184 7.42C10.0218 7.33662 10.0694 7.26134 10.1431 7.22428L10.7578 6.90579C10.6444 6.69501 10.4062 6.30936 10.1737 5.95381C10.0161 6.0094 9.74618 6.11711 9.5171 6.21323C9.45473 6.23987 9.38328 6.23639 9.32318 6.20397L8.72326 5.87853C8.63707 5.83221 8.58944 5.73492 8.60532 5.63648L8.70171 5.02615C8.42274 5.04236 7.94643 5.07942 7.4758 5.1188V5.77777C7.4758 5.88316 7.40549 5.97581 7.30683 6.00245C7.23084 6.03256 6.92805 6.2306 6.68877 6.39853C6.60485 6.4576 6.49257 6.45296 6.41432 6.38579L5.904 5.95381C5.75317 6.16459 5.4912 6.59078 5.25305 7.00076L5.88699 7.46401C5.95843 7.51613 5.99246 7.60415 5.97998 7.68869C5.98678 7.76049 6.03328 7.98054 6.07751 8.15542C6.10359 8.25733 6.05823 8.36504 5.96751 8.416L5.32109 8.78312C5.42316 9.01127 5.67379 9.47337 5.92668 9.90998L6.4268 9.54749C6.47783 9.51043 6.54134 9.49653 6.60258 9.50927C6.65361 9.51969 6.69897 9.54749 6.73186 9.58687C6.81011 9.64361 7.12765 9.7768 7.38621 9.86945C7.4826 9.90419 7.54384 9.99916 7.53817 10.1022L7.50075 10.7311V10.7323ZM6.61959 6.90927C6.61959 6.90927 6.61619 6.90927 6.61392 6.91043C6.61619 6.91043 6.61732 6.91043 6.61959 6.90927ZM6.89293 7.87506C6.89293 8.51319 7.50986 9.03203 8.26854 9.03203C9.02722 9.03203 9.64415 8.51319 9.64415 7.87506C9.64415 7.23693 9.02722 6.71809 8.26854 6.71809C7.50986 6.71809 6.89293 7.23693 6.89293 7.87506ZM7.34769 7.87506C7.34769 7.49288 7.76048 7.1825 8.26854 7.1825C8.7766 7.1825 9.18939 7.49288 9.18939 7.87506C9.18939 8.25724 8.7766 8.56762 8.26854 8.56762C7.76048 8.56762 7.34769 8.25724 7.34769 7.87506Z" fill="white"/>
</g>
<defs>
<clipPath id="clip0_26_3">
<rect width="16" height="16" fill="white"/>
</clipPath>
</defs>
</svg>
