<svg width="30" height="35" viewBox="0 0 30 35" fill="none" xmlns="http://www.w3.org/2000/svg">
<path d="M17.1419 2.14274V3.42838C22.03 4.42141 25.7128 8.74505 25.7128 13.9278V15.1867C25.7128 18.3405 26.8713 21.3738 28.9604 23.7308L29.4559 24.2866C30.0184 24.9227 30.159 25.82 29.8108 26.59C29.4626 27.3601 28.6993 27.8556 27.8556 27.8556H2.14272C1.29902 27.8556 0.533727 27.3601 0.188076 26.59C-0.157574 25.82 -0.0193208 24.9227 0.541293 24.2866L1.03787 23.7308C3.12972 21.3738 4.28546 18.3405 4.28546 15.1867V13.9278C4.28546 8.74505 7.90803 4.42141 12.8564 3.42838V2.14274C12.8564 0.959545 13.814 0 14.9992 0C16.1844 0 17.1419 0.959545 17.1419 2.14274ZM14.9992 34.2838C13.8608 34.2838 12.7694 33.8352 11.9658 33.0317C11.1623 32.2281 10.7137 31.0764 10.7137 29.9983H19.2846C19.2846 31.0764 18.836 32.2281 18.0325 33.0317C17.2289 33.8352 16.0772 34.2838 14.9992 34.2838Z" fill="#DB224E"/>
<path d="M10.3883 10.724C11.0463 10.724 11.639 10.8803 12.1663 11.193C12.6937 11.501 13.109 11.9303 13.4123 12.481C13.7203 13.027 13.8743 13.657 13.8743 14.371V17.444C13.8743 18.2047 13.7203 18.8697 13.4123 19.439C13.109 20.0037 12.682 20.44 12.1313 20.748C11.5807 21.056 10.9367 21.21 10.1993 21.21C9.69065 21.21 9.20999 21.1237 8.75732 20.951C8.30465 20.7737 7.89865 20.503 7.53932 20.139L8.75032 18.956C8.93232 19.166 9.14932 19.3317 9.40132 19.453C9.65799 19.5697 9.92399 19.628 10.1993 19.628C10.5913 19.628 10.9343 19.537 11.2283 19.355C11.5223 19.1683 11.751 18.928 11.9143 18.634C12.0777 18.3353 12.1593 18.0157 12.1593 17.675V16.002L12.4603 16.338C12.1757 16.674 11.8303 16.9377 11.4243 17.129C11.0183 17.3157 10.5913 17.409 10.1433 17.409C9.51332 17.409 8.95332 17.2643 8.46332 16.975C7.97799 16.6857 7.59532 16.2937 7.31532 15.799C7.03999 15.2997 6.90232 14.735 6.90232 14.105C6.90232 13.475 7.06099 12.9057 7.37832 12.397C7.69565 11.8837 8.11799 11.4777 8.64532 11.179C9.17732 10.8757 9.75832 10.724 10.3883 10.724ZM10.3883 12.334C10.0617 12.334 9.76299 12.4133 9.49232 12.572C9.22165 12.7307 9.00699 12.9453 8.84832 13.216C8.68965 13.482 8.61032 13.7783 8.61032 14.105C8.61032 14.4317 8.68732 14.7303 8.84132 15.001C8.99999 15.2717 9.21232 15.4863 9.47832 15.645C9.74899 15.8037 10.0477 15.883 10.3743 15.883C10.701 15.883 10.9997 15.8037 11.2703 15.645C11.541 15.4863 11.7557 15.2717 11.9143 15.001C12.0777 14.7303 12.1593 14.4317 12.1593 14.105C12.1593 13.7877 12.08 13.496 11.9213 13.23C11.7627 12.9593 11.548 12.7423 11.2773 12.579C11.0113 12.4157 10.715 12.334 10.3883 12.334ZM18.1946 19.124V16.618H15.6886V15.295H18.1946V12.796H19.5176V15.295H22.0096V16.618H19.5176V19.124H18.1946Z" fill="white"/>
</svg>
