<svg width="30" height="30" viewBox="0 0 30 30" fill="none" xmlns="http://www.w3.org/2000/svg">
<path d="M28 0C26.8956 0 26 0.894375 26 2V6.63062C23.5063 3.1575 19.4625 1 15 1C9.09375 1 3.91188 4.77125 2.09875 10.3875C1.75888 11.4381 2.33606 12.5675 3.38688 12.905C4.4425 13.2487 5.56687 12.6667 5.90562 11.6181C7.18125 7.65625 10.8375 5 15 5C18.1562 5 21.0163 6.53438 22.775 9H20C18.8956 9 18 9.89437 18 11C18 12.1056 18.8956 13 20 13H28C29.1044 13 30 12.1056 30 11V2C30 0.894375 29.1063 0 28 0ZM26.6125 17.1C25.555 16.7601 24.4325 17.3382 24.0938 18.3869C22.8188 22.3438 19.1625 25 15 25C11.8438 25 8.98438 23.4656 7.225 21H10C11.1044 21 12 20.1056 12 19C12 17.8944 11.1044 17 10 17H2C0.895625 17 0 17.8944 0 19V28C0 29.1056 0.895625 30 2 30C3.10437 30 4 29.1056 4 28V23.3694C6.49375 26.8438 10.5375 29 14.9438 29C20.8469 29 26.0312 25.2287 27.8438 19.6125C28.2437 18.5625 27.6625 17.3813 26.6125 17.1Z" fill="#092C4C"/>
</svg>
