<svg width="21" height="30" viewBox="0 0 21 30" fill="none" xmlns="http://www.w3.org/2000/svg">
<path d="M14.5007 21.3204C14.2908 21.3204 14.0753 21.3094 13.8597 21.2974C13.7135 21.2891 13.5669 21.28 13.4235 21.28C13.3264 21.28 13.2756 21.2849 13.2653 21.2849C13.2637 21.2849 13.2648 21.2852 13.2653 21.2849C13.1711 21.3208 12.9331 21.4768 12.7754 21.5805C12.1864 21.918 11.3837 22.498 10.3116 22.498C9.23999 22.498 8.43499 21.9678 7.84676 21.5805C7.68699 21.4753 7.44555 21.3164 7.37623 21.2894C7.37131 21.2883 7.32485 21.2795 7.19725 21.2795C7.054 21.2795 6.90764 21.2887 6.76141 21.2968C6.54604 21.3087 6.33113 21.3197 6.12162 21.3197C5.77899 21.3197 5.3131 21.2897 4.8192 21.1285L3.20743 28.868C3.04766 29.6349 3.8437 30.2478 4.54442 29.8974L10.3116 27.0152L16.079 29.8989C16.7797 30.2492 17.5754 29.6364 17.416 28.8695L15.8042 21.1299C15.3092 21.2911 14.8463 21.3204 14.5007 21.3204ZM20.6232 10.3116C20.6232 9.42513 19.6957 8.67286 19.4772 7.85555C19.2513 7.01012 19.6714 5.89576 19.243 5.1552C18.8088 4.40468 17.6295 4.21369 17.0208 3.60437C16.4109 2.99504 16.221 1.81566 15.4699 1.38093C14.7294 0.952415 13.615 1.37235 12.7696 1.14623C11.8993 0.927456 11.1963 0 10.3116 0C9.42689 0 8.6711 0.927456 7.85672 1.14599C7.00719 1.37214 5.894 0.951477 5.10306 1.37976C4.4041 1.81449 4.21369 2.99329 3.60436 3.60261C2.99504 4.21193 1.81566 4.40234 1.38093 5.15345C0.952649 5.894 1.37273 7.00719 1.14658 7.85086C0.927456 8.6711 0 9.42689 0 10.3116C0 11.198 0.927456 11.9503 1.14599 12.7676C1.37214 13.616 0.951477 14.7292 1.37976 15.4674C1.81437 16.2185 2.99329 16.4089 3.60261 17.0182C4.21251 17.6275 4.40234 18.8069 5.15345 19.2416C5.894 19.67 7.00836 19.2501 7.85379 19.4762C8.6711 19.6975 9.42689 20.6232 10.3116 20.6232C11.1974 20.6232 11.9509 19.6957 12.7682 19.4772C13.6136 19.2512 14.728 19.6714 15.4685 19.243C16.2196 18.8087 16.4101 17.6295 17.0194 17.0202C17.6293 16.4109 18.8081 16.2205 19.2428 15.4694C19.6714 14.7288 19.2514 13.6144 19.4774 12.769C19.6975 11.8993 20.6232 11.1963 20.6232 10.3116ZM10.3116 14.9987C7.72197 14.9987 5.6245 12.9012 5.6245 10.3116C5.6245 7.71611 7.72197 5.6245 10.3116 5.6245C12.9012 5.6245 14.9987 7.71786 14.9987 10.3116C14.9987 12.9012 12.9012 14.9987 10.3116 14.9987Z" fill="#70BE44"/>
</svg>
