<svg width="38" height="30" viewBox="0 0 38 30" fill="none" xmlns="http://www.w3.org/2000/svg">
<g clip-path="url(#clip0_42_17890)">
<path d="M20.625 1.875V3C24.9023 3.86895 28.125 7.65234 28.125 12.1875V13.2891C28.125 16.0488 29.1387 18.7031 30.9668 20.7656L31.4004 21.252C31.8926 21.8086 32.0156 22.5938 31.7109 23.2676C31.4062 23.9414 30.7383 24.375 30 24.375H7.5C6.76172 24.375 6.04102 23.9414 5.78965 23.2676C5.4873 22.5938 5.60801 21.8086 6.09961 21.252L6.5332 20.7656C8.36133 18.7031 9.375 16.0488 9.375 13.2891V12.1875C9.375 7.65234 12.5449 3.86895 16.875 3V1.875C16.875 0.839648 17.7129 0 18.75 0C19.7871 0 20.625 0.839648 20.625 1.875ZM18.75 30C17.7539 30 16.7988 29.6074 16.0957 28.9043C15.3926 28.2012 15 27.1934 15 26.25H22.5C22.5 27.1934 22.1074 28.2012 21.4043 28.9043C20.7012 29.6074 19.6934 30 18.75 30ZM0 11.7188C0 10.9395 0.629883 10.3125 1.40625 10.3125H6.09375C6.87305 10.3125 7.5 10.9395 7.5 11.7188C7.5 12.498 6.87305 13.125 6.09375 13.125H1.40625C0.629883 13.125 0 12.498 0 11.7188ZM36.0938 10.3125C36.873 10.3125 37.5 10.9395 37.5 11.7188C37.5 12.498 36.873 13.125 36.0938 13.125H31.4062C30.627 13.125 30 12.498 30 11.7188C30 10.9395 30.627 10.3125 31.4062 10.3125H36.0938ZM35.0098 1.24629C35.3555 1.94063 35.0742 2.78555 34.377 3.13301L30.627 5.00801C29.9355 5.35488 29.0918 5.07363 28.7402 4.37871C28.3945 3.68438 28.6758 2.83945 29.373 2.49199L33.123 0.616992C33.8145 0.269883 34.6582 0.551484 35.0098 1.24629ZM3.12129 3.13301C2.42637 2.78555 2.14512 1.94063 2.49199 1.24629C2.83945 0.551484 3.68438 0.269883 4.37871 0.616992L8.12695 2.49199C8.82422 2.83945 9.10547 3.68438 8.75977 4.37871C8.4082 5.07363 7.56445 5.35488 6.87305 5.00801L3.12129 3.13301Z" fill="#092C4C"/>
</g>
<defs>
<clipPath id="clip0_42_17890">
<rect width="37.5" height="30" fill="white"/>
</clipPath>
</defs>
</svg>
