<svg width="30" height="35" viewBox="0 0 30 35" fill="none" xmlns="http://www.w3.org/2000/svg">
<path d="M17.1419 2.50089V3.78654C22.03 4.77956 25.7128 9.10321 25.7128 14.286V15.5448C25.7128 18.6987 26.8713 21.732 28.9604 24.089L29.4559 24.6448C30.0184 25.2809 30.159 26.1782 29.8108 26.9482C29.4626 27.7182 28.6993 28.2138 27.8556 28.2138H2.14272C1.29902 28.2138 0.533727 27.7182 0.188076 26.9482C-0.157574 26.1782 -0.0193208 25.2809 0.541293 24.6448L1.03787 24.089C3.12972 21.732 4.28546 18.6987 4.28546 15.5448V14.286C4.28546 9.10321 7.90803 4.77956 12.8564 3.78654V2.50089C12.8564 1.3177 13.814 0.358154 14.9992 0.358154C16.1844 0.358154 17.1419 1.3177 17.1419 2.50089ZM14.9992 34.642C13.8608 34.642 12.7694 34.1933 11.9658 33.3898C11.1623 32.5863 10.7137 31.4346 10.7137 30.3565H19.2846C19.2846 31.4346 18.836 32.5863 18.0325 33.3898C17.2289 34.1933 16.0772 34.642 14.9992 34.642Z" fill="#092C4C"/>
</svg>
