<svg width="30" height="30" viewBox="0 0 30 30" fill="none" xmlns="http://www.w3.org/2000/svg">
<path d="M9.37503 22.5001L16.8223 22.5001V7.50003H9.37503V22.5001ZM5.62502 0.000164063H1.82227C0.841995 0.000164063 0 0.842581 0 1.87501V5.57229L7.50003 5.57224L7.50007 1.87496C7.50003 0.842581 6.65627 0.000164063 5.62502 0.000164063ZM9.37503 28.0724C9.37503 29.1048 10.217 29.8946 11.25 29.8946H14.9473C15.9797 29.8946 16.8212 29.0532 16.7696 28.0208V24.2696H9.3223L9.37503 28.0724ZM0 28.0724C0 29.1048 0.841995 29.8946 1.82227 29.8946H5.57229C6.60471 29.8946 7.39456 29.0526 7.39456 28.0724L7.50003 24.3751H0V28.0724ZM0 22.5001L7.50003 22.5001V7.50003H0V22.5001ZM24.6036 6.80862L17.3614 8.74456L21.2409 23.1997L28.489 21.2638L24.6036 6.80862ZM29.9357 26.6778L28.97 23.0643L21.7278 25.0009L22.6975 28.6138C22.9647 29.6087 23.9954 30.2028 24.9927 29.9362L28.6167 28.9683C29.6134 28.6993 30.2052 27.6739 29.9357 26.6778ZM23.1446 1.38516C22.877 0.390236 21.8468 -0.202735 20.8501 0.0638674L17.2301 1.03184C17.0501 1.0799 16.9009 1.17739 16.7498 1.27032C16.4951 0.536721 15.8164 0 14.9979 0H11.3006C10.2676 0 9.4256 0.841995 9.4256 1.82227L9.37503 5.62502L16.5235 5.6251L16.8753 6.93585L24.1117 4.99932L23.1446 1.38516Z" fill="#092C4C"/>
</svg>
