<svg width="39" height="30" viewBox="0 0 39 30" fill="none" xmlns="http://www.w3.org/2000/svg">
<path d="M9.66297 0.00259508C7.1585 -0.0476283 4.26564 0.632061 1.24554 1.96131C0.480805 2.29787 0 3.0776 0 3.91332V27.8598C0 28.6333 0.802904 29.169 1.50335 28.8408C9.96097 24.8806 16.2221 29.5775 16.49 29.779C16.6808 29.9263 16.9085 30 17.1429 30C17.9733 30 18.2143 29.2379 18.2143 28.9299V3.21689C18.2143 2.86847 18.0448 2.54189 17.7603 2.34099C17.6317 2.24858 14.5112 0.0903185 9.66297 0.00259508ZM37.326 1.96131C34.3052 0.636079 31.401 -0.0215123 28.9086 0.0019253C24.0577 0.0897827 21.0001 2.24858 20.8126 2.34032C20.5246 2.54189 20.3572 2.868 20.3572 3.21689V28.871C20.3572 29.2232 20.5916 30 21.4286 30C21.6619 30 21.8932 29.9247 22.0836 29.7771C22.3464 29.575 28.6086 24.878 37.0703 28.8396C37.7707 29.1675 38.5736 28.6317 38.5736 27.8586L38.5736 3.91211C38.5113 3.07827 38.0894 2.29747 37.326 1.96131Z" fill="#092C4C"/>
</svg>
