<svg width="30" height="30" viewBox="0 0 30 30" fill="none" xmlns="http://www.w3.org/2000/svg">
<path d="M28.125 10.5236C29.2149 11.0392 30 12.4279 30 14.0626C30 15.6974 29.2149 17.0861 28.125 17.6017V26.2501C28.125 27.006 27.668 27.6915 26.9649 27.9845C26.2676 28.2716 25.459 28.1134 24.9258 27.5743L22.3652 24.9669C19.5527 22.1544 15.7383 20.6251 11.7598 20.6251H11.25V28.1251C11.25 29.1622 10.4121 30.0001 9.375 30.0001H5.625C4.58965 30.0001 3.75 29.1622 3.75 28.1251V20.6251C1.67871 20.6251 0 18.9435 0 16.8751V11.2501C0 9.18176 1.67871 7.50012 3.75 7.50012H11.7598C15.7383 7.50012 19.5527 5.91809 22.3652 3.10676L24.9258 0.549315C25.459 0.0130939 26.2676 -0.147307 26.9649 0.142908C27.668 0.433123 28.125 1.11691 28.125 1.87512V10.5236ZM11.7598 11.2501H11.25V16.8751H11.7598C16.4356 16.8751 20.9297 18.6212 24.375 21.756V6.36926C20.9297 9.50402 16.4356 11.2501 11.7598 11.2501Z" fill="#092C4C"/>
</svg>
