<svg width="30" height="35" viewBox="0 0 30 35" fill="none" xmlns="http://www.w3.org/2000/svg">
<path d="M6.42857 2.14286C6.42857 0.959598 7.38616 0 8.57143 0C9.7567 0 10.7143 0.959598 10.7143 2.14286V4.28571H19.2857V2.14286C19.2857 0.959598 20.2433 0 21.4286 0C22.6138 0 23.5714 0.959598 23.5714 2.14286V4.28571H26.7857C28.5603 4.28571 30 5.72478 30 7.5V10.7143H0V7.5C0 5.72478 1.43906 4.28571 3.21429 4.28571H6.42857V2.14286ZM30 31.0714C30 32.846 28.5603 34.2857 26.7857 34.2857H3.21429C1.43906 34.2857 0 32.846 0 31.0714V12.8571H30V31.0714Z" fill="#092C4C"/>
</svg>
