<svg width="31" height="35" viewBox="0 0 31 35" fill="none" xmlns="http://www.w3.org/2000/svg">
<path d="M7.21763 2.14286C7.21763 0.959598 8.17522 0 9.36049 0C10.5458 0 11.5033 0.959598 11.5033 2.14286V4.28571H20.0748V2.14286C20.0748 0.959598 21.0324 0 22.2176 0C23.4029 0 24.3605 0.959598 24.3605 2.14286V4.28571H27.5748C29.3493 4.28571 30.7891 5.72478 30.7891 7.5V10.7143H0.789062V7.5C0.789062 5.72478 2.22812 4.28571 4.00335 4.28571H7.21763V2.14286ZM30.7891 31.0714C30.7891 32.846 29.3493 34.2857 27.5748 34.2857H4.00335C2.22812 34.2857 0.789062 32.846 0.789062 31.0714V12.8571H30.7891V31.0714Z" fill="#092C4C"/>
</svg>
