<svg width="23" height="31" viewBox="0 0 23 31" fill="none" xmlns="http://www.w3.org/2000/svg">
<path d="M22.3984 25.3156L20.4927 20.5C18.382 22.5901 15.5337 23.9836 12.3984 24.25L14.3657 29.0656C14.5706 29.5779 15.0624 29.9057 15.6156 29.9467C15.6361 29.8852 15.6157 29.9467 15.6771 29.9467C16.2099 29.9467 16.6812 29.6598 16.9271 29.168L18.1771 26.6885L20.8206 27.2213C21.3329 27.3238 21.8452 27.1393 22.173 26.75C22.5009 26.3606 22.5829 25.8074 22.3984 25.3361V25.3156Z" fill="#DB224E"/>
<path d="M0.102487 25.3156C-0.0819397 25.7869 2.75248e-05 26.3401 0.327896 26.7295C0.655765 27.1188 1.18855 27.3033 1.68036 27.2008L4.3238 26.668L5.5738 29.1475C5.8197 29.6188 6.29101 29.9262 6.8238 29.9262H6.88527C7.43855 29.9057 7.90986 29.5779 8.13527 29.0451L10.1025 24.2295C6.94675 23.9631 4.11888 22.5901 2.00822 20.4795L0.102487 25.3156Z" fill="#DB224E"/>
<path d="M10.9424 11.4508L10.9219 13.2541L11.6391 13.0697L11.4137 11.2459L10.9424 11.4508Z" fill="#DB224E"/>
<path d="M22.4581 12.25C22.4581 11.2869 21.454 10.4672 21.2081 9.56557C20.9622 8.64344 21.413 7.43443 20.9622 6.61475C20.4908 5.79508 19.1999 5.59016 18.5441 4.91393C17.8884 4.2377 17.663 2.96721 16.8433 2.4959C16.0441 2.02459 14.8146 2.4959 13.8925 2.22951C13.0523 1.98361 12.2326 0.979507 11.2695 0.979507C10.3064 0.979507 9.48674 1.98361 8.5851 2.22951C7.66297 2.47541 6.45396 2.02459 5.63428 2.47541C4.81461 2.94672 4.60969 4.2377 3.93347 4.89344C3.27773 5.54918 1.98674 5.77459 1.51543 6.59426C1.04412 7.39344 1.51543 8.62295 1.26953 9.54508C1.02363 10.4467 0.0195312 11.2664 0.0195312 12.2295C0.0195312 13.1926 1.02363 14.0123 1.26953 14.9139C1.51543 15.8361 1.06461 17.0451 1.51543 17.8648C1.98674 18.6844 3.27773 18.8893 3.93347 19.5656C4.5892 20.2213 4.81461 21.5123 5.63428 21.9836C6.43347 22.4549 7.66297 21.9836 8.5851 22.2295C9.48674 22.4754 10.3064 23.4795 11.2695 23.4795C12.2326 23.4795 13.0523 22.4754 13.954 22.2295C14.8761 21.9836 16.0851 22.4344 16.9048 21.9836C17.7244 21.5123 17.9294 20.2213 18.6056 19.5656C19.2818 18.9098 20.5523 18.6844 21.0236 17.8648C21.4949 17.0656 21.0236 15.8361 21.29 14.9139C21.5359 14.0123 22.499 13.1926 22.499 12.2295L22.4581 12.25ZM12.1302 17.5164L11.7203 13.9508L10.9007 14.2172L10.8597 17.6393L9.03592 17.4344L10.204 6.88115H12.2326L13.4417 17.6393L12.1097 17.5369L12.1302 17.5164Z" fill="#DB224E"/>
</svg>
