<svg width="30" height="30" viewBox="0 0 30 30" fill="none" xmlns="http://www.w3.org/2000/svg">
<path d="M15 0C6.71484 0 0 6.71484 0 15C0 23.2852 6.71484 30 15 30C23.2852 30 30 23.2852 30 15C30 6.71484 23.2852 0 15 0ZM13.5938 8.90625C13.5938 8.13281 14.2266 7.5 15 7.5C15.7734 7.5 16.4062 8.12988 16.4062 8.90625V16.4062C16.4062 17.1826 15.7764 17.8125 15 17.8125C14.2236 17.8125 13.5938 17.1855 13.5938 16.4062V8.90625ZM15 23.4375C13.9828 23.4375 13.1578 22.6125 13.1578 21.5953C13.1578 20.5781 13.9822 19.7531 15 19.7531C16.0178 19.7531 16.8422 20.5781 16.8422 21.5953C16.8398 22.6113 16.0195 23.4375 15 23.4375Z" fill="#092C4C"/>
</svg>
