<svg width="30" height="30" viewBox="0 0 30 30" fill="none" xmlns="http://www.w3.org/2000/svg">
<path d="M0 15C0 23.2852 6.71484 30 15 30C23.2852 30 30 23.2852 30 15C30 6.71484 23.2852 0 15 0C6.71484 0 0 6.71484 0 15ZM8.05664 17.7891L11.2348 16.4268C11.6092 16.2647 12.0492 16.3737 12.3035 16.6895L13.5938 18.2662C15.6229 17.2702 17.2717 15.6213 18.2678 13.5934L16.6875 12.252C16.3726 11.9947 16.265 11.5588 16.4243 11.1844L17.7878 8.00391C17.9663 7.5965 18.4083 7.37285 18.8384 7.47293L21.7903 8.15379C22.2078 8.249 22.4999 8.61615 22.4999 9.04559C22.4999 16.4343 16.4882 22.4518 9.09949 22.4518C8.66965 22.4518 8.30262 22.1598 8.20652 21.7423L7.52566 18.7897C7.42383 18.4102 7.64648 17.9648 8.05664 17.7891Z" fill="#092C4C"/>
</svg>
