<svg width="30" height="30" viewBox="0 0 30 30" fill="none" xmlns="http://www.w3.org/2000/svg">
<path d="M15 0C6.71484 0 0 6.71484 0 15C0 23.2852 6.71484 30 15 30C23.2852 30 30 23.2852 30 15C30 6.71484 23.2852 0 15 0ZM22.5 18.75C22.5 19.7854 21.6604 20.625 20.625 20.625H9.375C8.33965 20.625 7.5 19.7854 7.5 18.75V13.9453L14.6543 16.8059C14.7129 16.8516 14.8301 16.875 15 16.875C15.1699 16.875 15.2362 16.853 15.3479 16.8081L22.5 13.9453V18.75ZM22.5 11.9297L15 14.9297L7.5 11.9297V11.25C7.5 10.2146 8.33965 9.375 9.375 9.375H20.625C21.6604 9.375 22.5 10.2146 22.5 11.25V11.9297Z" fill="#092C4C"/>
</svg>
