<svg width="30" height="31" viewBox="0 0 30 31" fill="none" xmlns="http://www.w3.org/2000/svg">
<path d="M15 30.9507C6.71484 30.9507 0 24.2358 0 15.9507C0 7.66553 6.71484 0.950684 15 0.950684C23.2852 0.950684 30 7.66553 30 15.9507C30 24.2358 23.2852 30.9507 15 30.9507ZM13.5938 15.9507C13.5938 16.4194 13.8281 16.8589 14.2207 17.0698L19.8457 20.8198C20.4902 21.3003 21.3633 21.1245 21.7441 20.48C22.2246 19.8354 22.0488 18.9624 21.4043 18.5288L16.4062 15.2007V7.98193C16.4062 7.20264 15.7793 6.57568 14.9473 6.57568C14.2207 6.57568 13.541 7.20264 13.541 7.98193L13.5938 15.9507Z" fill="#092C4C"/>
</svg>
