<svg width="30" height="30" viewBox="0 0 30 30" fill="none" xmlns="http://www.w3.org/2000/svg">
<path d="M16.875 15C16.875 16.0371 16.0371 16.875 15 16.875C13.9629 16.875 13.125 16.0371 13.125 15C13.125 13.9629 13.9629 13.125 15 13.125C16.0371 13.125 16.875 13.9629 16.875 15ZM0 15C0 6.71484 6.71484 0 15 0C23.2852 0 30 6.71484 30 15C30 23.2852 23.2852 30 15 30C6.71484 30 0 23.2852 0 15ZM19.0488 17.9707L22.3008 9.51562C22.7402 8.32617 21.6211 7.25977 20.4844 7.69922L12.0293 10.9512C11.5312 11.1387 11.1387 11.5312 10.9512 12.0293L7.69922 20.4844C7.25977 21.6211 8.32617 22.7402 9.51562 22.3008L17.9707 19.0488C18.4688 18.8613 18.8613 18.4688 19.0488 17.9707Z" fill="#092C4C"/>
</svg>
