<svg width="30" height="35" viewBox="0 0 30 35" fill="none" xmlns="http://www.w3.org/2000/svg">
<path d="M13.8281 23.0826L4.72433 13.433C4.28371 12.971 4.16317 12.2812 4.41629 11.692C4.67076 11.1027 5.25134 10.721 5.89286 10.721H10.7143V2.1442C10.7143 0.959598 11.6719 0 12.8571 0H17.1429C18.3281 0 19.2857 0.959598 19.2857 2.1442V10.721H24.1071C24.75 10.721 25.3259 11.1027 25.5804 11.692C25.8348 12.2812 25.7143 12.971 25.279 13.433L16.1719 23.0826C15.5625 23.7254 14.4375 23.7254 13.8281 23.0826ZM23.5714 34.2857H6.42857C2.87812 34.2857 0 31.4062 0 27.8571V23.5714C0 22.3862 0.959598 21.3683 2.14286 21.3683C3.32612 21.3683 4.28571 22.3862 4.28571 23.5714V27.8571C4.28571 29.0424 5.24531 30 6.42857 30H23.5714C24.7567 30 25.7143 29.0424 25.7143 27.8571V23.5714C25.7143 22.3862 26.6719 21.3683 27.8571 21.3683C29.0424 21.3683 30 22.3862 30 23.5714V27.8571C30 31.4062 27.1205 34.2857 23.5714 34.2857Z" fill="#092C4C"/>
</svg>
