<svg width="31" height="31" viewBox="0 0 31 31" fill="none" xmlns="http://www.w3.org/2000/svg">
<path d="M22.0639 1.24426C23.5303 -0.222044 25.9117 -0.222044 27.3782 1.24426L29.6892 3.55709C31.1557 5.02293 31.1557 7.40205 29.6892 8.86847L26.8503 11.7075L19.2249 4.08325L22.0639 1.24426ZM25.5246 13.0331L11.8459 26.706C11.2358 27.316 10.4791 27.7677 9.65209 28.0082L2.59392 30.0846C2.10003 30.2313 1.56567 30.0964 1.20141 29.6799C0.837136 29.369 0.700947 28.8352 0.846298 28.3367L2.9224 21.2802C3.16641 20.4532 3.61396 19.6965 4.22458 19.0865L17.8992 5.41006L25.5246 13.0331Z" fill="#092C4C"/>
</svg>
