<svg width="40" height="40" viewBox="0 0 40 40" fill="none" xmlns="http://www.w3.org/2000/svg">
<rect width="40" height="40" rx="20" fill="white"/>
<path d="M12.7778 20C12.7778 22.1458 11.0368 23.8889 8.88889 23.8889C6.74097 23.8889 5 22.1458 5 20C5 17.8542 6.74097 16.1111 8.88889 16.1111C11.0368 16.1111 12.7778 17.8542 12.7778 20ZM23.8889 20C23.8889 22.1458 22.1458 23.8889 20 23.8889C17.8542 23.8889 16.1111 22.1458 16.1111 20C16.1111 17.8542 17.8542 16.1111 20 16.1111C22.1458 16.1111 23.8889 17.8542 23.8889 20ZM27.2222 20C27.2222 17.8542 28.9653 16.1111 31.1111 16.1111C33.2569 16.1111 35 17.8542 35 20C35 22.1458 33.2569 23.8889 31.1111 23.8889C28.9653 23.8889 27.2222 22.1458 27.2222 20Z" fill="#092C4C"/>
</svg>
