<svg width="30" height="30" viewBox="0 0 30 30" fill="none" xmlns="http://www.w3.org/2000/svg">
<path d="M7.77778 15C7.77778 17.1458 6.03681 18.8889 3.88889 18.8889C1.74097 18.8889 0 17.1458 0 15C0 12.8542 1.74097 11.1111 3.88889 11.1111C6.03681 11.1111 7.77778 12.8542 7.77778 15ZM18.8889 15C18.8889 17.1458 17.1458 18.8889 15 18.8889C12.8542 18.8889 11.1111 17.1458 11.1111 15C11.1111 12.8542 12.8542 11.1111 15 11.1111C17.1458 11.1111 18.8889 12.8542 18.8889 15ZM22.2222 15C22.2222 12.8542 23.9653 11.1111 26.1111 11.1111C28.2569 11.1111 30 12.8542 30 15C30 17.1458 28.2569 18.8889 26.1111 18.8889C23.9653 18.8889 22.2222 17.1458 22.2222 15Z" fill="#092C4C"/>
</svg>
