<svg width="33" height="27" viewBox="0 0 33 27" fill="none" xmlns="http://www.w3.org/2000/svg">
<path d="M7.94171 4.85368C10.1913 3.10174 13.0756 1.76773 16.5389 1.76773C20.642 1.76773 23.9275 3.6385 26.3192 5.86066C28.6958 8.06454 30.2852 10.6594 31.0368 12.518C31.2043 12.9192 31.2043 13.366 31.0368 13.7672C30.3563 15.4074 28.9903 17.718 26.9794 19.7797L32.3215 23.964C32.8496 24.3804 32.9461 25.1472 32.5297 25.6753C32.1133 26.2034 31.3465 26.2999 30.8184 25.8835L0.756033 2.32074C0.226288 1.90535 0.13341 1.13958 0.548644 0.609732C0.963929 0.0799872 1.7297 -0.0128908 2.25985 0.402343L7.94171 4.85368ZM11.6182 7.73447L16.2037 11.3297C16.417 10.8981 16.5389 10.4106 16.5389 9.84695C16.5389 9.30867 16.3408 8.76024 16.1123 8.28798C16.2545 8.27274 16.3967 8.22196 16.5389 8.22196C19.2303 8.22196 21.4138 10.4055 21.4138 13.0969C21.4138 13.8383 21.2666 14.4985 20.9619 15.0977L22.9677 16.6312C23.5314 15.5953 23.8513 14.4071 23.8513 13.0969C23.8513 9.10555 20.5759 5.78449 16.5389 5.78449C14.6448 5.78449 12.9131 6.55128 11.6182 7.73447ZM16.5389 24.5175C12.4358 24.5175 9.15029 22.6488 6.75852 20.4246C4.38299 18.175 2.79457 15.5801 2.03896 13.7672C1.8724 13.366 1.8724 12.9192 2.03896 12.518C2.5234 11.3551 3.35062 9.85202 4.50842 8.34384L9.29755 12.1168C9.25185 12.452 9.22646 12.7922 9.22646 13.0969C9.22646 17.1797 12.5018 20.455 16.5389 20.455C17.4885 20.455 18.3975 20.2722 19.2303 19.9422L22.9474 22.8671C21.1041 23.8624 18.9662 24.5175 16.5389 24.5175Z" fill="#092C4C"/>
</svg>
