<svg width="31" height="24" viewBox="0 0 31 24" fill="none" xmlns="http://www.w3.org/2000/svg">
<path d="M15.3516 7.16406C15.4974 7.14844 15.6432 7.14323 15.7891 7.14323C18.5495 7.14323 20.7891 9.33594 20.7891 12.1432C20.7891 14.9036 18.5495 17.1432 15.7891 17.1432C12.9818 17.1432 10.7891 14.9036 10.7891 12.1432C10.7891 11.9974 10.7943 11.8516 10.8099 11.7057C11.2943 11.9401 11.8568 12.1432 12.4557 12.1432C14.2943 12.1432 15.7891 10.6484 15.7891 8.8099C15.7891 8.21094 15.5859 7.64844 15.3516 7.16406ZM25.8203 4.67448C28.2578 6.9349 29.888 9.59635 30.6589 11.5026C30.8307 11.9141 30.8307 12.3724 30.6589 12.7839C29.888 14.6432 28.2578 17.3047 25.8203 19.612C23.3672 21.8932 19.9974 23.8099 15.7891 23.8099C11.5807 23.8099 8.21094 21.8932 5.75886 19.612C3.32136 17.3047 1.69219 14.6432 0.917246 12.7839C0.746335 12.3724 0.746335 11.9141 0.917246 11.5026C1.69219 9.59635 3.32136 6.9349 5.75886 4.67448C8.21094 2.39531 11.5807 0.476562 15.7891 0.476562C19.9974 0.476562 23.3672 2.39531 25.8203 4.67448ZM15.7891 4.64323C11.6484 4.64323 8.28907 8.0026 8.28907 12.1432C8.28907 16.2839 11.6484 19.6432 15.7891 19.6432C19.9297 19.6432 23.2891 16.2839 23.2891 12.1432C23.2891 8.0026 19.9297 4.64323 15.7891 4.64323Z" fill="#092C4C"/>
</svg>
