<svg width="30" height="40" viewBox="0 0 30 40" fill="none" xmlns="http://www.w3.org/2000/svg">
<path d="M20 0V10H30L20 0ZM17.5 10V0H3.75C1.67891 0 0 1.67891 0 3.75V36.25C0 38.3203 1.67891 40 3.75 40H26.25C28.3211 40 30 38.3211 30 36.25V12.5H20.0703C18.6172 12.5 17.5 11.3828 17.5 10ZM21.25 32.5H8.75C8.0625 32.5 7.5 31.9375 7.5 31.25C7.5 30.5625 8.0625 30 8.75 30H21.25C21.9403 30 22.5 30.5595 22.5 31.25C22.5 31.9375 21.9375 32.5 21.25 32.5ZM21.25 27.5H8.75C8.0625 27.5 7.5 26.9375 7.5 26.25C7.5 25.5625 8.0625 25 8.75 25H21.25C21.9403 25 22.5 25.5595 22.5 26.25C22.5 26.9375 21.9375 27.5 21.25 27.5ZM22.5 21.25C22.5 21.9375 21.9375 22.5 21.25 22.5H8.75C8.0625 22.5 7.5 21.9375 7.5 21.25C7.5 20.5625 8.0625 20 8.75 20H21.25C21.9375 20 22.5 20.5625 22.5 21.25Z" fill="#092C4C"/>
</svg>
