<svg width="60" height="80" viewBox="0 0 60 80" fill="none" xmlns="http://www.w3.org/2000/svg">
<path d="M60 20H40V0L60 20ZM40 25H60V72.5C60 76.6422 56.6422 80 52.5 80H7.5C3.35781 80 0 76.6406 0 72.5V7.5C0 3.35781 3.35781 0 7.5 0H35L35.0006 20C35 22.7656 37.2344 25 40 25ZM38.4062 41.3125L26.0422 55.7406L21.4031 51.1016C19.9383 49.6367 17.5656 49.6367 16.1 51.1016C14.6344 52.5664 14.6352 54.9391 16.1 56.4047L23.6 63.9047C24.3031 64.6078 25.2594 65.0033 26.2516 65.0033C26.3004 65.0033 26.3492 65.0033 26.3932 64.9984C27.4382 64.9593 28.4197 64.4857 29.0978 63.6946L44.0978 46.1946C45.4455 44.6228 45.2649 42.254 43.6925 40.9071C42.125 39.5625 39.75 39.7344 38.4062 41.3125Z" fill="#092C4C"/>
</svg>
