<svg width="40" height="30" viewBox="0 0 40 30" fill="none" xmlns="http://www.w3.org/2000/svg">
<path d="M24.3751 0C25.6095 0 26.7267 0.726563 27.2267 1.85391C27.6642 2.98438 27.5236 4.29688 26.6955 5.21875L18.7501 14.0469V27.5C18.7501 28.4453 18.2189 29.3125 17.3673 29.7344C16.5236 30.1562 15.508 30.0703 14.7501 29.5L9.75014 25.75C9.11733 25.2812 8.75014 24.5391 8.75014 23.75V14.0469L0.802487 5.21875C-0.0233101 4.29688 -0.231732 2.98438 0.270377 1.85391C0.772409 0.726563 1.89077 0 3.05483 0H24.3751ZM37.5001 25C38.883 25 40.0001 26.1172 40.0001 27.5C40.0001 28.8828 38.883 30 37.5001 30H27.5001C26.1173 30 25.0001 28.8828 25.0001 27.5C25.0001 26.1172 26.1173 25 27.5001 25H37.5001ZM25.0001 15C25.0001 13.6172 26.1173 12.5 27.5001 12.5H37.5001C38.883 12.5 40.0001 13.6172 40.0001 15C40.0001 16.3828 38.883 17.5 37.5001 17.5H27.5001C26.1173 17.5 25.0001 16.3828 25.0001 15ZM37.5001 0C38.883 0 40.0001 1.11953 40.0001 2.5C40.0001 3.88281 38.883 5 37.5001 5H32.5001C31.1173 5 30.0001 3.88281 30.0001 2.5C30.0001 1.11953 31.1173 0 32.5001 0H37.5001Z" fill="#092C4C"/>
</svg>
