<svg width="30" height="32" viewBox="0 0 30 32" fill="none" xmlns="http://www.w3.org/2000/svg">
<path d="M29.914 10.3568C30.1191 10.8914 29.9451 11.4944 29.5223 11.8861L26.8306 14.3354C26.8989 14.8514 26.9362 15.3798 26.9362 15.9144C26.9362 16.449 26.8989 16.9774 26.8306 17.4934L29.5223 19.9427C29.9451 20.3344 30.1191 20.9374 29.914 21.472C29.6405 22.2118 29.311 22.9267 28.938 23.6043L28.6458 24.1078C28.2355 24.7917 27.7755 25.4382 27.2719 26.0536C26.8989 26.495 26.2959 26.6504 25.7489 26.4763L22.2863 25.3698C21.4532 26.0101 20.4772 26.5447 19.551 26.955L18.7739 30.5047C18.6496 31.0642 18.2144 31.462 17.6425 31.6112C16.7846 31.7542 15.9018 31.8288 14.9445 31.8288C14.099 31.8288 13.2163 31.7542 12.3584 31.6112C11.7865 31.462 11.3513 31.0642 11.227 30.5047L10.4499 26.955C9.46771 26.5447 8.54766 26.0101 7.71464 25.3698L4.2545 26.4763C3.70495 26.6504 3.09884 26.495 2.73082 26.0536C2.22665 25.4382 1.76663 24.7917 1.35633 24.1078L1.0654 23.6043C0.688054 22.9267 0.35982 22.2118 0.0844259 21.472C-0.116991 20.9374 0.0527214 20.3344 0.479178 19.9427L3.16846 17.4934C3.10008 16.9774 3.06465 16.449 3.06465 15.9144C3.06465 15.3798 3.10008 14.8514 3.16846 14.3354L0.479178 11.8861C0.0527214 11.4944 -0.116991 10.8976 0.0844259 10.3568C0.35982 9.61702 0.688676 8.90212 1.0654 8.22451L1.35571 7.72097C1.76663 7.03715 2.22665 6.39063 2.73082 5.7783C3.09884 5.33381 3.70495 5.17964 4.2545 5.35495L7.71464 6.45901C8.54766 5.81622 9.46771 5.28159 10.4499 4.87565L11.227 1.32599C11.3513 0.761529 11.7865 0.313315 12.3584 0.218201C13.2163 0.0746609 14.099 0 15.0004 0C15.9018 0 16.7846 0.0746609 17.6425 0.218201C18.2144 0.313315 18.6496 0.761529 18.7739 1.32599L19.551 4.87565C20.4772 5.28159 21.4532 5.81622 22.2863 6.45901L25.7489 5.35495C26.2959 5.17964 26.8989 5.33381 27.2719 5.7783C27.7755 6.39063 28.2355 7.03715 28.6458 7.72097L28.938 8.22451C29.311 8.90212 29.6405 9.61702 29.914 10.3568ZM15.0004 20.8877C17.7482 20.8877 19.9737 18.6621 19.9737 15.8585C19.9737 13.1667 17.7482 10.8852 15.0004 10.8852C12.2527 10.8852 10.0272 13.1667 10.0272 15.8585C10.0272 18.6621 12.2527 20.8877 15.0004 20.8877Z" fill="#092C4C"/>
</svg>
