<svg width="43" height="30" viewBox="0 0 43 30" fill="none" xmlns="http://www.w3.org/2000/svg">
<path d="M41.7271 7.02366L22.7955 0.246606C21.8761 -0.0822019 20.8736 -0.0822019 19.9541 0.246606L1.07482 7.02366C0.431133 7.25804 0 7.87414 0 8.57059C0 9.26705 0.431133 9.88649 1.07482 10.1169L5.09417 11.5573C4.29794 12.6154 3.73742 13.8449 3.45013 15.1702C2.68202 15.495 2.14294 16.2584 2.14294 17.1424C2.14294 17.8089 2.46532 18.3806 2.94253 18.7737L1.27974 28.7517C1.17058 29.404 1.67417 30 2.33648 30H6.23529C6.89739 30 7.40118 29.4054 7.29203 28.7524L5.62924 18.7743C6.10671 18.3812 6.42882 17.7518 6.42882 17.1424C6.42882 16.4533 6.08234 15.868 5.577 15.4755C5.86175 14.2862 6.43954 13.2107 7.24716 12.3261L20.011 16.8952C20.9305 17.2241 21.933 17.2241 22.8525 16.8952L41.784 10.1182C42.4302 9.88314 42.8588 9.26705 42.8588 8.57059C42.8588 7.87414 42.4302 7.25804 41.7271 7.02366ZM23.5121 18.9103C22.8826 19.1581 22.1593 19.2853 21.4294 19.2853C20.6981 19.2853 19.9769 19.1603 19.2865 18.9133L9.56287 15.4347L8.57176 24.9976C8.57176 27.7633 14.2706 30 21.4294 30C28.4676 30 34.2871 27.7633 34.2871 24.9996L33.2973 15.43L23.5121 18.9103Z" fill="#092C4C"/>
</svg>
