<svg width="18" height="30" viewBox="0 0 18 30" fill="none" xmlns="http://www.w3.org/2000/svg">
<path d="M0 3.46154C0 1.54976 1.51102 0 3.375 0C5.23898 0 6.75 1.54976 6.75 3.46154C6.75 5.3726 5.23898 6.92308 3.375 6.92308C1.51102 6.92308 0 5.3726 0 3.46154ZM0 15C0 13.0889 1.51102 11.5385 3.375 11.5385C5.23898 11.5385 6.75 13.0889 6.75 15C6.75 16.9111 5.23898 18.4615 3.375 18.4615C1.51102 18.4615 0 16.9111 0 15ZM6.75 26.5385C6.75 28.4495 5.23898 30 3.375 30C1.51102 30 0 28.4495 0 26.5385C0 24.6274 1.51102 23.0769 3.375 23.0769C5.23898 23.0769 6.75 24.6274 6.75 26.5385ZM11.25 3.46154C11.25 1.54976 12.7617 0 14.625 0C16.4883 0 18 1.54976 18 3.46154C18 5.3726 16.4883 6.92308 14.625 6.92308C12.7617 6.92308 11.25 5.3726 11.25 3.46154ZM18 15C18 16.9111 16.4883 18.4615 14.625 18.4615C12.7617 18.4615 11.25 16.9111 11.25 15C11.25 13.0889 12.7617 11.5385 14.625 11.5385C16.4883 11.5385 18 13.0889 18 15ZM11.25 26.5385C11.25 24.6274 12.7617 23.0769 14.625 23.0769C16.4883 23.0769 18 24.6274 18 26.5385C18 28.4495 16.4883 30 14.625 30C12.7617 30 11.25 28.4495 11.25 26.5385Z" fill="#1E1E1E"/>
</svg>
