<svg width="200" height="200" viewBox="0 0 200 200" fill="none" xmlns="http://www.w3.org/2000/svg">
<g filter="url(#filter0_f_74_14596)">
<circle cx="100" cy="100" r="60" fill="#A1DCDB"/>
</g>
<path d="M96.25 79.75C96.25 77.6791 97.9281 76 100 76C102.072 76 103.75 77.6791 103.75 79.75C103.75 81.8209 102.072 83.5 100 83.5C97.9281 83.5 96.25 81.8209 96.25 79.75ZM105.231 99.7188C105.391 100.956 104.509 102.081 103.197 102.231C102.044 102.391 100.919 101.509 100.769 100.197L100.356 96.9156H99.6438L99.2312 100.197C99.0812 101.509 97.9562 102.391 96.7188 102.231C95.4906 102.081 94.6094 100.956 94.7688 99.7188L95.8094 91.4031L93.9531 92.8844C93.0063 93.775 91.5812 93.6531 90.7844 92.7063C89.9781 91.75 90.1 90.3344 91.0469 89.5281L94.9375 86.2375C95.8844 85.4406 97.0844 85 98.3313 85H101.669C102.916 85 104.116 85.4406 104.978 86.2375L108.953 89.5281C109.9 90.3344 110.022 91.75 109.216 92.7063C108.419 93.6531 106.994 93.775 106.047 92.8844L104.191 91.4031L105.231 99.7188ZM77.5 100.253L83.1531 107.781C84.0344 108.963 85.7219 109.169 86.8656 108.231C87.85 107.416 88.1031 105.916 87.4375 104.903L85.4313 101.547C84.6156 100.188 84.9906 98.4344 86.2844 97.5344C87.5875 96.6344 89.3594 96.8969 90.2594 98.125L94.7031 103.572C96.1844 105.353 97 107.744 97 110.134V121C97 122.659 95.6594 124 94 124H85C84.0906 124 83.2281 123.588 82.6562 122.791L71.3144 108.7C70.4637 107.631 70 106.309 70 104.95V85.6656C70 83.6791 71.6791 81.9156 73.75 81.9156C75.8209 81.9156 77.5 83.6791 77.5 85.6656V100.253ZM130 85.75V104.95C130 106.309 129.541 107.631 128.603 108.7L117.259 122.791C116.772 123.588 115.909 124 115 124H106C104.341 124 103 122.659 103 121V110.134C103 107.744 103.816 105.353 105.297 103.572L109.656 98.125C110.641 96.8969 112.412 96.6344 113.716 97.5344C115.009 98.4344 115.384 100.188 114.569 101.547L112.478 104.903C111.897 105.916 112.15 107.416 113.144 108.231C114.278 109.169 115.966 108.963 116.847 107.781L122.5 100.253V85.75C122.5 83.6791 124.178 82 126.25 82C128.322 82 130 83.6791 130 85.75Z" fill="#092C4C"/>
<defs>
<filter id="filter0_f_74_14596" x="0" y="0" width="200" height="200" filterUnits="userSpaceOnUse" color-interpolation-filters="sRGB">
<feFlood flood-opacity="0" result="BackgroundImageFix"/>
<feBlend mode="normal" in="SourceGraphic" in2="BackgroundImageFix" result="shape"/>
<feGaussianBlur stdDeviation="20" result="effect1_foregroundBlur_74_14596"/>
</filter>
</defs>
</svg>
