<svg width="30" height="27" viewBox="0 0 30 27" fill="none" xmlns="http://www.w3.org/2000/svg">
<path d="M29.9908 13.3078C29.9908 14.2454 29.2095 14.9798 28.3241 14.9798H26.6574L26.6938 23.3187C26.6938 23.4645 26.6834 23.5999 26.6678 23.7406V24.5844C26.6678 25.7354 25.7354 26.6678 24.5844 26.6678H23.751C23.6937 26.6678 23.6364 26.6209 23.5791 26.6626C23.5062 26.6209 23.4333 26.6678 23.3603 26.6678H20.4175C19.2664 26.6678 18.3341 25.7354 18.3341 24.5844V20.0008C18.3341 19.0789 17.5893 18.3341 16.6674 18.3341H13.3339C12.412 18.3341 11.6672 19.0789 11.6672 20.0008V24.5844C11.6672 25.7354 10.7348 26.6678 9.58373 26.6678H6.67215C6.59402 26.6678 6.5159 26.6626 6.43777 26.6574C6.37526 26.6626 6.31276 26.6678 6.25026 26.6678H5.41689C4.26632 26.6678 3.33347 25.7354 3.33347 24.5844V18.7508C3.33347 18.7039 3.33503 18.6518 3.33816 18.6049V14.9798H1.66934C0.730239 14.9798 0 14.2454 0 13.3078C0 12.8391 0.156465 12.4224 0.521376 12.0578L13.8756 0.417517C14.2402 0.0521897 14.6569 0 15.0215 0C15.3861 0 15.8027 0.104379 16.1205 0.365328L29.4179 12.0578C29.8346 12.4224 30.0481 12.8391 29.9908 13.3078Z" fill="#092C4C"/>
</svg>
