<svg width="38" height="30" viewBox="0 0 38 30" fill="none" xmlns="http://www.w3.org/2000/svg">
<path d="M12.791 0.497241C13.5117 -0.165747 14.6133 -0.165747 15.334 0.497241L27.5215 11.7481C27.9141 12.1113 28.125 12.6094 28.125 13.125H19.6875C18.5684 13.125 17.5605 13.6172 16.875 14.3965V12.1875C16.875 11.6719 16.4531 11.25 15.9375 11.25H12.1875C11.6719 11.25 11.25 11.6719 11.25 12.1875V15.9375C11.25 16.4531 11.6719 16.875 12.1875 16.875H15.8848V24.375H6.5625C5.00918 24.375 3.75 23.1152 3.75 21.5625V15H1.87501C1.10333 15 0.409928 14.5254 0.128795 13.8106C-0.152337 13.0899 0.036012 12.2695 0.603522 11.7481L12.791 0.497241ZM19.6875 15H32.8125C33.8496 15 34.6875 15.8379 34.6875 16.875V26.25H36.5625C37.0781 26.25 37.5 26.6719 37.5 27.1875C37.5 28.7402 36.2402 30 34.6875 30H17.7598C16.2598 30 14.9473 28.7402 14.9473 27.1875C14.9473 26.6719 15.4219 26.25 15.8848 26.25H17.7598V16.875C17.7598 15.8379 18.6504 15 19.6875 15ZM20.625 17.8125V26.25H31.875V17.8125H20.625Z" fill="#092C4C"/>
</svg>
