<svg width="30" height="30" viewBox="0 0 30 30" fill="none" xmlns="http://www.w3.org/2000/svg">
<path d="M15 0C6.71484 0 0 6.71484 0 15C0 23.2852 6.71484 30 15 30C23.2852 30 30 23.2852 30 15C30 6.71484 23.2852 0 15 0ZM15 23.4375C13.9453 23.4375 13.125 22.6172 13.125 21.5625C13.125 20.5078 13.8926 19.6875 15 19.6875C16.002 19.6875 16.875 20.5078 16.875 21.5625C16.875 22.6172 16.002 23.4375 15 23.4375ZM19.0488 15.1172L16.4062 16.7578V16.875C16.4062 17.6367 15.7617 18.2812 15 18.2812C14.2383 18.2812 13.5938 17.6367 13.5938 16.875V15.9375C13.5938 15.4688 13.8281 15 14.2969 14.707L17.6367 12.7148C18.0469 12.4805 18.2812 12.0703 18.2812 11.6016C18.2812 10.8984 17.6426 10.3125 16.9395 10.3125H13.9453C13.1895 10.3125 12.6562 10.8984 12.6562 11.6016C12.6562 12.3633 12.0117 13.0078 11.25 13.0078C10.4883 13.0078 9.84375 12.3633 9.84375 11.6016C9.84375 9.31641 11.6602 7.5 13.8926 7.5H16.8867C19.2773 7.5 21.0938 9.31641 21.0938 11.6016C21.0938 13.0078 20.332 14.3555 19.0488 15.1172Z" fill="#092C4C"/>
</svg>
