<svg width="36" height="30" viewBox="0 0 36 30" fill="none" xmlns="http://www.w3.org/2000/svg">
<path d="M14.2676 23.2344L8.54102 17.5H22.502C23.884 17.5 25.002 16.382 25.002 15C25.002 13.618 23.884 12.5 22.502 12.5H8.54102L14.2738 6.76719C14.7598 6.28125 15.002 5.64062 15.002 5C15.002 4.35938 14.7598 3.71875 14.2676 3.23438C13.291 2.25781 11.709 2.25781 10.7324 3.23438L0.732422 13.2344C-0.244141 14.2109 -0.244141 15.793 0.732422 16.7695L10.7324 26.7695C11.709 27.7461 13.291 27.7461 14.2676 26.7695C15.2441 25.793 15.2441 24.2109 14.2676 23.2344ZM30.002 2.5V27.5C30.002 28.882 31.1199 30 32.502 30C33.884 30 35.002 28.882 35.002 27.5V2.5C35.002 1.11797 33.884 0 32.502 0C31.1199 0 30.002 1.11797 30.002 2.5Z" fill="#092C4C"/>
</svg>
