<svg width="30" height="31" viewBox="0 0 30 31" fill="none" xmlns="http://www.w3.org/2000/svg">
<path d="M29.1165 25.3816C30.2883 26.5534 30.2883 28.4517 29.1165 29.6235C28.5353 30.2094 27.7666 30.5 26.9979 30.5C26.2292 30.5 25.4624 30.2071 24.8774 29.6212L14.9988 19.7477L5.12116 29.6188C4.53527 30.2094 3.76752 30.5 2.99977 30.5C2.23201 30.5 1.4652 30.2094 0.878838 29.6188C-0.292946 28.447 -0.292946 26.5487 0.878838 25.377L10.7593 15.4965L0.878838 5.62069C-0.292946 4.44891 -0.292946 2.55062 0.878838 1.37884C2.05062 0.207054 3.94891 0.207054 5.12069 1.37884L14.9988 11.264L24.8793 1.38353C26.0511 0.211742 27.9494 0.211742 29.1212 1.38353C30.2929 2.55531 30.2929 4.4536 29.1212 5.62538L19.2407 15.5059L29.1165 25.3816Z" fill="#092C4C"/>
</svg>
