<svg width="120" height="120" viewBox="0 0 120 120" fill="none" xmlns="http://www.w3.org/2000/svg">
<rect width="120" height="120" rx="60" fill="#92DCB7"/>
<path d="M55.3125 34.6875C55.3125 32.0988 57.4102 30 60 30C62.5898 30 64.6875 32.0988 64.6875 34.6875C64.6875 37.2762 62.5898 39.375 60 39.375C57.4102 39.375 55.3125 37.2762 55.3125 34.6875ZM66.5391 59.6484C66.7383 61.1953 65.6367 62.6016 63.9961 62.7891C62.5547 62.9883 61.1484 61.8867 60.9609 60.2461L60.4453 56.1445H59.5547L59.0391 60.2461C58.8516 61.8867 57.4453 62.9883 55.8984 62.7891C54.3633 62.6016 53.2617 61.1953 53.4609 59.6484L54.7617 49.2539L52.4414 51.1055C51.2578 52.2188 49.4766 52.0664 48.4805 50.8828C47.4727 49.6875 47.625 47.918 48.8086 46.9102L53.6719 42.7969C54.8555 41.8008 56.3555 41.25 57.9141 41.25H62.0859C63.6445 41.25 65.1445 41.8008 66.2227 42.7969L71.1914 46.9102C72.375 47.918 72.5273 49.6875 71.5195 50.8828C70.5234 52.0664 68.7422 52.2188 67.5586 51.1055L65.2383 49.2539L66.5391 59.6484ZM31.875 60.3164L38.9414 69.7266C40.043 71.2031 42.1523 71.4609 43.582 70.2891C44.8125 69.2695 45.1289 67.3945 44.2969 66.1289L41.7891 61.9336C40.7695 60.2344 41.2383 58.043 42.8555 56.918C44.4844 55.793 46.6992 56.1211 47.8242 57.6562L53.3789 64.4648C55.2305 66.6914 56.25 69.6797 56.25 72.668V86.25C56.25 88.3242 54.5742 90 52.5 90H41.25C40.1133 90 39.0352 89.4844 38.3203 88.4883L24.143 70.875C23.0796 69.5391 22.5 67.8867 22.5 66.1875V42.082C22.5 39.5988 24.5988 37.3945 27.1875 37.3945C29.7762 37.3945 31.875 39.5988 31.875 42.082V60.3164ZM97.5 42.1875V66.1875C97.5 67.8867 96.9258 69.5391 95.7539 70.875L81.5742 88.4883C80.9648 89.4844 79.8867 90 78.75 90H67.5C65.4258 90 63.75 88.3242 63.75 86.25V72.668C63.75 69.6797 64.7695 66.6914 66.6211 64.4648L72.0703 57.6562C73.3008 56.1211 75.5156 55.793 77.1445 56.918C78.7617 58.043 79.2305 60.2344 78.2109 61.9336L75.5977 66.1289C74.8711 67.3945 75.1875 69.2695 76.4297 70.2891C77.8477 71.4609 79.957 71.2031 81.0586 69.7266L88.125 60.3164V42.1875C88.125 39.5988 90.2227 37.5 92.8125 37.5C95.4023 37.5 97.5 39.5988 97.5 42.1875Z" fill="#092C4C"/>
</svg>
