<svg width="35" height="31" viewBox="0 0 35 31" fill="none" xmlns="http://www.w3.org/2000/svg">
<path d="M0 3C0 1.61953 1.11953 0.5 2.5 0.5H32.5C33.8828 0.5 35 1.61953 35 3C35 4.38281 33.8828 5.5 32.5 5.5H2.5C1.11953 5.5 0 4.38281 0 3ZM0 15.5C0 14.1172 1.11953 13 2.5 13H32.5C33.8828 13 35 14.1172 35 15.5C35 16.8828 33.8828 18 32.5 18H2.5C1.11953 18 0 16.8828 0 15.5ZM32.5 30.5H2.5C1.11953 30.5 0 29.3828 0 28C0 26.6172 1.11953 25.5 2.5 25.5H32.5C33.8828 25.5 35 26.6172 35 28C35 29.3828 33.8828 30.5 32.5 30.5Z" fill="#092C4C"/>
</svg>
