<svg width="30" height="36" viewBox="0 0 30 36" fill="none" xmlns="http://www.w3.org/2000/svg">
<path d="M17.1421 3.00083V4.28647C22.0303 5.2795 25.7131 9.60314 25.7131 14.7859V16.0448C25.7131 19.1986 26.8715 22.2319 28.9607 24.5889L29.4562 25.1447C30.0187 25.7808 30.1593 26.6781 29.8111 27.4481C29.4629 28.2182 28.6995 28.7137 27.8558 28.7137H2.14297C1.29926 28.7137 0.533971 28.2182 0.18832 27.4481C-0.15733 26.6781 -0.0190767 25.7808 0.541537 25.1447L1.03812 24.5889C3.12997 22.2319 4.28571 19.1986 4.28571 16.0448V14.7859C4.28571 9.60314 7.90827 5.2795 12.8567 4.28647V3.00083C12.8567 1.81764 13.8142 0.858093 14.9994 0.858093C16.1846 0.858093 17.1421 1.81764 17.1421 3.00083ZM14.9994 35.1419C13.8611 35.1419 12.7696 34.6933 11.9661 33.8897C11.1626 33.0862 10.7139 31.9345 10.7139 30.8564H19.2849C19.2849 31.9345 18.8362 33.0862 18.0327 33.8897C17.2292 34.6933 16.0775 35.1419 14.9994 35.1419Z" fill="#092C4C"/>
</svg>
