<svg width="30" height="35" viewBox="0 0 30 35" fill="none" xmlns="http://www.w3.org/2000/svg">
<path d="M15.221 17.8058L9.46205 23.5714L12.2277 26.3438C13.0647 27.1808 13.0647 28.5335 12.2277 29.3705C11.3906 30.2076 10.0379 30.2076 9.20089 29.3705L6.42857 26.6049L5.17299 27.8571L7.94196 30.6295C8.77902 31.4665 8.77902 32.8192 7.94196 33.6563C7.10491 34.4933 5.75022 34.4933 4.91317 33.6563L0.627589 29.3705C-0.209196 28.5335 -0.209196 27.1808 0.627589 26.3438L12.1942 14.779C11.2567 13.2924 10.654 11.5313 10.654 9.64286C10.654 4.31719 15.0335 0 20.3571 0C25.6808 0 30 4.31719 30 9.64286C30 14.9665 25.6808 19.2857 20.3571 19.2857C18.4688 19.2857 16.7076 18.7433 15.221 17.8058ZM20.3571 15C23.317 15 25.7143 12.6027 25.7143 9.64286C25.7143 6.68438 23.317 4.28571 20.3571 4.28571C17.3973 4.28571 15 6.68438 15 9.64286C15 12.6027 17.3973 15 20.3571 15Z" fill="#092C4C"/>
</svg>
