<svg width="39" height="30" viewBox="0 0 39 30" fill="none" xmlns="http://www.w3.org/2000/svg">
<path d="M9.86567 7.03165C13.4128 3.48517 19.3076 3.48517 22.8547 7.03165C26.0446 10.2215 26.5167 15.3061 23.8946 18.9744L23.8244 19.0765C23.1673 19.9888 21.8914 20.2057 20.9791 19.5486C20.0604 18.8915 19.8435 17.6156 20.5006 16.7033L20.5708 16.6012C22.0318 14.5533 21.8021 11.7526 20.0222 9.97269C18.0189 7.96946 14.7589 7.96946 12.7493 9.97269L5.59128 17.1371C3.58104 19.0893 3.58104 22.4003 5.59128 24.4099C7.36483 26.1899 10.1719 26.4195 12.2134 24.9586L12.3155 24.831C13.2342 24.2313 14.5101 24.4418 15.1608 25.3605C15.8179 26.2792 15.6074 27.5551 14.6887 28.2122L14.5866 28.2824C10.8609 30.9045 5.89112 30.4834 2.70191 27.2999C-0.900638 23.6954 -0.900638 17.8516 2.70191 14.2535L9.86567 7.03165ZM28.6858 22.9107C25.0812 26.5152 19.2438 26.5152 15.6393 22.9107C12.4495 19.7209 12.0348 14.6937 14.6568 11.0253L14.727 10.9233C15.3267 10.011 16.6026 9.79405 17.5723 10.4512C18.491 11.0509 18.7079 12.3268 18.0508 13.2965L17.9806 13.3986C16.5197 15.389 16.7494 18.2472 18.5293 20.0271C20.5325 22.0303 23.7925 22.0303 25.8022 20.0271L32.9602 12.8627C34.9698 10.8531 34.9698 7.54202 32.9602 5.58984C31.1866 3.81182 28.3796 3.57959 26.338 5.04118L26.236 5.11136C25.3173 5.76847 24.0414 5.50052 23.3906 4.63799C22.7335 3.72059 22.944 2.44528 23.8627 1.79009L23.9648 1.71864C27.6331 -0.902717 32.6603 -0.486824 35.8502 2.70239C39.4547 6.30436 39.4547 12.1482 35.8502 15.7463L28.6858 22.9107Z" fill="#092C4C"/>
</svg>
