<svg width="30" height="40" viewBox="0 0 30 40" fill="none" xmlns="http://www.w3.org/2000/svg">
<path d="M13.1484 39.0542C9.07031 34.0386 0 21.8823 0 15.0542C0 6.76982 6.71562 0.0541992 15 0.0541992C23.2812 0.0541992 30 6.76982 30 15.0542C30 21.8823 20.8594 34.0386 16.8516 39.0542C15.8906 40.2495 14.1094 40.2495 13.1484 39.0542ZM15 20.0542C17.7578 20.0542 20 17.812 20 15.0542C20 12.2964 17.7578 10.0542 15 10.0542C12.2422 10.0542 10 12.2964 10 15.0542C10 17.812 12.2422 20.0542 15 20.0542Z" fill="#092C4C"/>
</svg>
