<svg width="30" height="35" viewBox="0 0 30 35" fill="none" xmlns="http://www.w3.org/2000/svg">
<path d="M5.35714 12.8571V9.64286C5.35714 4.31719 9.67634 0 15 0C20.3237 0 24.6429 4.31719 24.6429 9.64286V12.8571H25.7143C28.0781 12.8571 30 14.779 30 17.1429V30C30 32.3638 28.0781 34.2857 25.7143 34.2857H4.28571C1.91853 34.2857 0 32.3638 0 30V17.1429C0 14.779 1.91853 12.8571 4.28571 12.8571H5.35714ZM9.64286 12.8571H20.3571V9.64286C20.3571 6.68437 17.9598 4.28571 15 4.28571C12.0402 4.28571 9.64286 6.68437 9.64286 9.64286V12.8571Z" fill="#5C6F80"/>
</svg>
