<svg width="40" height="31" viewBox="0 0 40 31" fill="none" xmlns="http://www.w3.org/2000/svg">
<path d="M36.25 0.0541992C38.3203 0.0541992 40 1.73311 40 3.8042C40 4.98389 39.4453 6.09326 38.5 6.8042L21.5 19.5542C20.6094 20.2183 19.3906 20.2183 18.5 19.5542L1.5 6.8042C0.555703 6.09326 0 4.98389 0 3.8042C0 1.73311 1.67891 0.0541992 3.75 0.0541992H36.25ZM17 21.5542C18.7812 22.8901 21.2188 22.8901 23 21.5542L40 8.8042V25.0542C40 27.812 37.7578 30.0542 35 30.0542H5C2.23828 30.0542 0 27.812 0 25.0542V8.8042L17 21.5542Z" fill="#092C4C"/>
</svg>
