<svg width="30" height="31" viewBox="0 0 30 31" fill="none" xmlns="http://www.w3.org/2000/svg">
<g clip-path="url(#clip0_42_17865)">
<path d="M29.0248 0.5H22.0285C21.6964 0.5 21.3864 0.677122 21.2314 0.964945L16.9141 8.11624C19.3716 8.49262 21.5856 9.62177 23.3347 11.238L29.844 1.91697C30.2868 1.34133 29.844 0.5 29.0248 0.5Z" fill="#4A94C5"/>
<path d="M13.1063 8.16052L8.74463 0.964945C8.63393 0.677122 8.32396 0.5 7.99186 0.5H0.929131C0.176363 0.5 -0.266441 1.36347 0.176363 1.98339L6.68559 11.2823C8.43467 9.66605 10.6487 8.5369 13.1063 8.16052Z" fill="#4A94C5"/>
<path d="M14.6784 19.0756L14.6562 21.024L15.4312 20.8247L15.1876 18.8542L14.6784 19.0756Z" fill="#4A94C5"/>
<path d="M15.0107 9.88745C9.32067 9.88745 4.69336 14.4926 4.69336 20.2048C4.69336 25.917 9.32067 30.5221 15.0107 30.5221C20.7007 30.5221 25.328 25.917 25.328 20.2048C25.328 14.4926 20.7229 9.88745 15.0107 9.88745ZM15.9406 25.6513L15.4978 21.7989L14.6122 22.0867L14.5679 25.7841L12.5974 25.5627L13.8594 14.1605H16.0513L17.3576 25.7841L15.9185 25.6734L15.9406 25.6513Z" fill="#4A94C5"/>
</g>
<defs>
<clipPath id="clip0_42_17865">
<rect width="30" height="30" fill="white" transform="translate(0 0.5)"/>
</clipPath>
</defs>
</svg>
