<svg width="30" height="30" viewBox="0 0 30 30" fill="none" xmlns="http://www.w3.org/2000/svg">
<path d="M15.0002 22.2222C17.1481 22.2222 18.8891 23.9653 18.8891 26.1111C18.8891 28.2569 17.1481 30 15.0002 30C12.8523 30 11.1113 28.2569 11.1113 26.1111C11.1113 23.9653 12.8523 22.2222 15.0002 22.2222ZM15.0002 11.1111C17.1481 11.1111 18.8891 12.8542 18.8891 15C18.8891 17.1458 17.1481 18.8889 15.0002 18.8889C12.8523 18.8889 11.1113 17.1458 11.1113 15C11.1113 12.8542 12.8523 11.1111 15.0002 11.1111ZM15.0002 7.77778C12.8523 7.77778 11.1113 6.03472 11.1113 3.88889C11.1113 1.74097 12.8523 0 15.0002 0C17.1481 0 18.8891 1.74097 18.8891 3.88889C18.8891 6.03472 17.1481 7.77778 15.0002 7.77778Z" fill="#092C4C"/>
</svg>
