<svg width="35" height="30" viewBox="0 0 35 30" fill="none" xmlns="http://www.w3.org/2000/svg">
<path d="M32.1429 0H8.57143C7.38616 0 6.42857 0.959598 6.42857 2.14286V24.6429C6.42857 25.2321 5.94911 25.7143 5.35714 25.7143C4.76518 25.7143 4.28571 25.2321 4.28571 24.6429V4.28571H2.14286C0.959598 4.28571 0 5.2433 0 6.42857V25.7143C0 28.0815 1.91853 30 4.28571 30H30C32.3672 30 34.2857 28.0815 34.2857 25.7143V2.14286C34.2857 0.959598 33.3281 0 32.1429 0ZM18.2143 25.7143H11.7857C11.1964 25.7143 10.7143 25.2321 10.7143 24.6429C10.7143 24.0536 11.1964 23.5714 11.7857 23.5714H18.2143C18.806 23.5714 19.2857 24.051 19.2857 24.6429C19.2857 25.2321 18.8036 25.7143 18.2143 25.7143ZM18.2143 19.2857H11.7857C11.1964 19.2857 10.7143 18.8036 10.7143 18.2143C10.7143 17.625 11.1964 17.1429 11.7857 17.1429H18.2143C18.8036 17.1429 19.2857 17.625 19.2857 18.2143C19.2857 18.8036 18.8036 19.2857 18.2143 19.2857ZM28.9286 25.7143H22.5C21.9083 25.7143 21.4286 25.2346 21.4286 24.6429C21.4286 24.051 21.9083 23.5714 22.5 23.5714H28.9286C29.5203 23.5714 30 24.051 30 24.6429C30 25.2321 29.5179 25.7143 28.9286 25.7143ZM28.9286 19.2857H22.5C21.9107 19.2857 21.4286 18.8036 21.4286 18.2143C21.4286 17.625 21.9107 17.1429 22.5 17.1429H28.9286C29.5179 17.1429 30 17.625 30 18.2143C30 18.8036 29.5179 19.2857 28.9286 19.2857ZM30 11.7857C30 12.375 29.5179 12.8571 28.9286 12.8571H11.7857C11.1964 12.8571 10.7143 12.375 10.7143 11.7857V5.35714C10.7143 4.76786 11.1964 4.28571 11.7857 4.28571H28.9286C29.5179 4.28571 30 4.76786 30 5.35714V11.7857Z" fill="#092C4C"/>
</svg>
