<svg width="30" height="31" viewBox="0 0 30 31" fill="none" xmlns="http://www.w3.org/2000/svg">
<path d="M29.956 22.6783L28.5935 28.5851C28.4021 29.4201 27.6682 30.0044 26.8086 30.0044C12.0246 30.0032 0 17.9786 0 3.19401C0 2.33494 0.584176 1.60011 1.41927 1.40966L7.32608 0.0472244C8.18632 -0.15213 9.06531 0.294396 9.42277 1.10904L12.1488 7.46707C12.4675 8.21597 12.2525 9.08851 11.6226 9.60301L8.4676 12.1363C10.4588 16.1925 13.7568 19.4905 17.8142 21.4828L20.3972 18.3302C20.9064 17.6985 21.7855 17.4799 22.5344 17.8043L28.8924 20.5297C29.6571 20.932 30.1552 21.8227 29.956 22.6783Z" fill="#092C4C"/>
</svg>
