<svg width="30" height="31" viewBox="0 0 30 31" fill="none" xmlns="http://www.w3.org/2000/svg">
<path d="M29.956 22.7281L28.5935 28.6349C28.4021 29.4699 27.6682 30.0542 26.8086 30.0542C12.0246 30.053 0 18.0284 0 3.24381C0 2.38475 0.584176 1.64991 1.41927 1.45946L7.32608 0.0970291C8.18632 -0.102326 9.06531 0.344201 9.42277 1.15885L12.1488 7.51687C12.4675 8.26577 12.2525 9.13831 11.6226 9.65282L8.4676 12.1861C10.4588 16.2423 13.7568 19.5403 17.8142 21.5327L20.3972 18.38C20.9064 17.7483 21.7855 17.5297 22.5344 17.8541L28.8924 20.5795C29.6571 20.9818 30.1552 21.8725 29.956 22.7281Z" fill="#092C4C"/>
</svg>
