<svg width="166" height="166" viewBox="0 0 166 166" fill="none" xmlns="http://www.w3.org/2000/svg">
<g filter="url(#filter0_f_74_14596)">
<circle cx="83" cy="83" r="60" fill="#FFC2C7"/>
</g>
<g clip-path="url(#clip0_74_14596)">
<path d="M79.6667 69.3333H86.3333C88.174 69.3333 89.6667 67.8406 89.6667 66V59.3333C89.6667 57.4927 88.174 56 86.3333 56H79.6667C77.8229 56 76.3333 57.4927 76.3333 59.3333V66C76.3333 67.8437 77.8229 69.3333 79.6667 69.3333ZM108 62.6667H93V67.6667C93 70.4271 90.7604 72.6667 88 72.6667H78C75.2396 72.6667 73 70.4271 73 67.6667V62.6667H58C55.2385 62.6667 53 64.9052 53 67.6667V104.333C53 107.094 55.2385 109.333 58 109.333H108C110.761 109.333 113 107.095 113 104.333V67.6667C113 64.9052 110.76 62.6667 108 62.6667ZM83 79.3333C86.6823 79.3333 89.6667 82.3187 89.6667 86C89.6667 89.6812 86.6823 92.6667 83 92.6667C79.3177 92.6667 76.3333 89.6812 76.3333 86C76.3333 82.3187 79.3229 79.3333 83 79.3333ZM93 102.667H73C72.0796 102.667 71.3333 101.92 71.3333 101C71.3333 98.2396 73.5729 96 76.3333 96H89.6667C92.4281 96 94.6667 98.2385 94.6667 101C94.6667 101.917 93.9167 102.667 93 102.667Z" fill="#092C4C"/>
</g>
<defs>
<filter id="filter0_f_74_14596" x="0" y="0" width="166" height="166" filterUnits="userSpaceOnUse" color-interpolation-filters="sRGB">
<feFlood flood-opacity="0" result="BackgroundImageFix"/>
<feBlend mode="normal" in="SourceGraphic" in2="BackgroundImageFix" result="shape"/>
<feGaussianBlur stdDeviation="11.5" result="effect1_foregroundBlur_74_14596"/>
</filter>
<clipPath id="clip0_74_14596">
<rect width="60" height="53.3333" fill="white" transform="translate(53 56)"/>
</clipPath>
</defs>
</svg>
