<svg width="30" height="30" viewBox="0 0 30 30" fill="none" xmlns="http://www.w3.org/2000/svg">
<path d="M24.1055 10.2832C24.457 10.8633 24.4629 11.584 24.1289 12.1758C23.8008 12.7617 23.1738 13.0723 22.5 13.0723H11.25C10.5762 13.0723 9.94922 12.7617 9.62109 12.1758C9.28711 11.584 9.29297 10.8633 9.64453 10.2832L15.2695 0.910547C15.6035 0.345527 16.2188 0 16.875 0C17.5312 0 18.1465 0.345586 18.4805 0.910547L24.1055 10.2832ZM16.875 18.2812C16.875 16.9863 17.9238 15.9375 19.2188 15.9375H27.6562C28.9512 15.9375 30 16.9863 30 18.2812V26.7188C30 28.0137 28.9512 29.0625 27.6562 29.0625H19.2188C17.9238 29.0625 16.875 28.0137 16.875 26.7188V18.2812ZM0 22.5C0 18.3574 3.35801 15 7.5 15C11.6426 15 15 18.3574 15 22.5C15 26.6426 11.6426 30 7.5 30C3.35801 30 0 26.6426 0 22.5Z" fill="#1E1E1E"/>
</svg>
