<svg width="30" height="32" viewBox="0 0 30 32" fill="none" xmlns="http://www.w3.org/2000/svg">
<path d="M28.1562 5.23063L16.1562 0.23C15.85 0.1035 15.3313 0 15.0063 0C14.675 0 14.1562 0.1035 13.85 0.2305L1.85 5.23112C0.730625 5.6925 0 6.7875 0 7.94375C0 24.075 11.825 32 14.9438 32C18.1938 32 30 23.9875 30 7.94375C30 6.7875 29.2687 5.6925 28.1562 5.23063ZM13.5 9.5C13.5 8.675 14.175 8 15 8C15.825 8 16.5 8.67188 16.5 9.5V16.5C16.5 17.3312 15.8313 18 15 18C14.1687 18 13.5 17.3312 13.5 16.5V9.5ZM15 24C13.8956 24 13 23.1044 13 22C13 20.8956 13.8956 20 15 20C16.1044 20 17 20.8956 17 22C17 23.1044 16.1063 24 15 24Z" fill="#092C4C"/>
</svg>
