<svg width="32" height="30" viewBox="0 0 32 30" fill="none" xmlns="http://www.w3.org/2000/svg">
<path d="M0 25C0 23.8937 0.895625 23 2 23H5.41625C6.1875 21.2313 7.95 20 10 20C12.05 20 13.7563 21.2313 14.5813 23H30C31.1063 23 32 23.8937 32 25C32 26.1063 31.1063 27 30 27H14.5813C13.7563 28.7687 12.05 30 10 30C7.95 30 6.1875 28.7687 5.41625 27H2C0.895625 27 0 26.1063 0 25ZM12 25C12 23.8937 11.1062 23 10 23C8.89375 23 8 23.8937 8 25C8 26.1063 8.89375 27 10 27C11.1062 27 12 26.1063 12 25ZM22 10C24.05 10 25.7562 11.2312 26.5812 13H30C31.1063 13 32 13.8938 32 15C32 16.1063 31.1063 17 30 17H26.5812C25.7562 18.7687 24.05 20 22 20C19.95 20 18.1875 18.7687 17.4188 17H2C0.895625 17 0 16.1063 0 15C0 13.8938 0.895625 13 2 13H17.4188C18.1875 11.2312 19.95 10 22 10ZM24 15C24 13.8938 23.1063 13 22 13C20.8937 13 20 13.8938 20 15C20 16.1063 20.8937 17 22 17C23.1063 17 24 16.1063 24 15ZM30 3C31.1063 3 32 3.89563 32 5C32 6.10625 31.1063 7 30 7H16.5812C15.7562 8.76875 14.05 10 12 10C9.95 10 8.1875 8.76875 7.41875 7H2C0.895625 7 0 6.10625 0 5C0 3.89563 0.895625 3 2 3H7.41875C8.1875 1.23438 9.95 0 12 0C14.05 0 15.7562 1.23438 16.5812 3H30ZM10 5C10 6.10625 10.8938 7 12 7C13.1062 7 14 6.10625 14 5C14 3.89563 13.1062 3 12 3C10.8938 3 10 3.89563 10 5Z" fill="#092C4C"/>
</svg>
