<svg width="30" height="35" viewBox="0 0 30 35" fill="none" xmlns="http://www.w3.org/2000/svg">
<path d="M9.05357 1.1846C9.41518 0.458571 10.1585 0 10.9688 0H19.0312C19.8415 0 20.5848 0.458571 20.9464 1.1846L21.4286 2.14286H27.8571C29.0424 2.14286 30 3.10246 30 4.28571C30 5.46897 29.0424 6.42857 27.8571 6.42857H2.14286C0.959598 6.42857 0 5.46897 0 4.28571C0 3.10246 0.959598 2.14286 2.14286 2.14286H8.57143L9.05357 1.1846ZM2.08259 8.57143H27.8571V30C27.8571 32.3638 25.9353 34.2857 23.5714 34.2857H6.3683C4.06138 34.2857 2.08259 32.3638 2.08259 30V8.57143ZM7.43973 13.9286V28.9286C7.43973 29.5179 7.98214 30 8.51116 30C9.16071 30 9.58259 29.5179 9.58259 28.9286V13.9286C9.58259 13.3393 9.16071 12.8571 8.51116 12.8571C7.98214 12.8571 7.43973 13.3393 7.43973 13.9286ZM13.8683 13.9286V28.9286C13.8683 29.5179 14.4107 30 14.9397 30C15.5893 30 16.0714 29.5179 16.0714 28.9286V13.9286C16.0714 13.3393 15.5893 12.8571 14.9397 12.8571C14.4107 12.8571 13.8683 13.3393 13.8683 13.9286ZM20.3571 13.9286V28.9286C20.3571 29.5179 20.8393 30 21.4286 30C22.0179 30 22.5 29.5179 22.5 28.9286V13.9286C22.5 13.3393 22.0179 12.8571 21.4286 12.8571C20.8393 12.8571 20.3571 13.3393 20.3571 13.9286Z" fill="#DB224E"/>
</svg>
