<svg width="69" height="60" viewBox="0 0 69 60" fill="none" xmlns="http://www.w3.org/2000/svg">
<path d="M67.8034 51.5625L39.2364 2.8125C37.0494 -0.9375 31.5302 -0.9375 29.3284 2.8125L0.774824 51.5625C-1.42294 55.2991 1.31442 60 5.71947 60H62.8534C67.2409 60 69.9864 55.3125 67.8034 51.5625ZM31.0668 18.2143C31.0668 16.4397 32.5065 15 34.2811 15C36.0556 15 37.4954 16.4464 37.4954 18.2143V35.3571C37.4954 37.1317 36.0556 38.5714 34.4016 38.5714C32.7476 38.5714 31.0668 37.1384 31.0668 35.3571V18.2143ZM34.2811 51.4286C31.9561 51.4286 30.0704 49.5429 30.0704 47.2179C30.0704 44.8929 31.9547 43.0071 34.2811 43.0071C36.6074 43.0071 38.4918 44.8929 38.4918 47.2179C38.4864 49.5402 36.6114 51.4286 34.2811 51.4286Z" fill="#DB224E"/>
</svg>
