<svg width="34" height="31" viewBox="0 0 34 31" fill="none" xmlns="http://www.w3.org/2000/svg">
<g clip-path="url(#clip0_42_17869)">
<path d="M16.5468 9.82735L16.502 11.8004L17.2867 11.5987L17.0625 9.60314L16.5468 9.82735Z" fill="#F8C322"/>
<path d="M33.5419 5.32063C33.385 4.69283 32.8244 4.24439 32.1742 4.24439H26.2549C26.2549 3.50448 26.2549 2.85426 26.2549 2.31614C26.2325 1.30717 25.4029 0.5 24.3715 0.5H9.39393C8.38496 0.5 7.55537 1.30717 7.51052 2.31614C7.44326 2.85426 7.4881 3.52691 7.51052 4.24439H1.59124C0.941016 4.24439 0.380477 4.69283 0.223527 5.32063C0.178684 5.52242 -0.919971 10.2982 2.1742 14.8946C4.37151 18.1682 8.07106 20.4552 13.1607 21.778C14.2594 22.0695 14.9993 23.0785 14.9993 24.1996C14.9993 25.5897 13.8558 26.7332 12.4657 26.7332H12.1966C10.6495 26.7332 9.39393 27.9888 9.39393 29.5359C9.39393 30.0516 9.81994 30.4776 10.2684 30.4776H23.3401C23.8558 30.4776 24.2146 30.0516 24.2146 29.5359C24.2146 27.9888 22.959 26.7332 21.4119 26.7332H21.1428C19.7527 26.7332 18.6092 25.5897 18.6092 24.1996C18.6092 23.0785 19.3491 22.0471 20.4477 21.778C25.5374 20.4776 29.237 18.1682 31.4343 14.8946C34.6854 10.2758 33.5868 5.5 33.5419 5.32063ZM4.52846 13.3924C2.89169 10.9709 2.75716 8.45964 2.82442 7.06951H7.55537C7.86927 10.5673 8.74371 14.7601 10.941 18.1457C8.07106 17.0022 5.91859 15.4103 4.55088 13.37L4.52846 13.3924ZM17.8244 16.4865L17.376 12.5852L16.4791 12.8767L16.4343 16.6211L14.4388 16.3969L15.7168 4.84978H17.9365L19.2594 16.6211L17.802 16.509L17.8244 16.4865ZM29.2146 13.3924C27.8468 15.4103 25.6944 17.0022 22.8244 18.1457C25.0217 14.7601 25.8962 10.5673 26.2101 7.06951H30.9186C30.941 8.45964 30.8513 10.9709 29.2146 13.3924Z" fill="#F8C322"/>
</g>
<defs>
<clipPath id="clip0_42_17869">
<rect width="33.7444" height="30" fill="white" transform="translate(0 0.5)"/>
</clipPath>
</defs>
</svg>
