<svg width="30" height="35" viewBox="0 0 30 35" fill="none" xmlns="http://www.w3.org/2000/svg">
<path d="M9.64286 12.8571H25.7143C28.0781 12.8571 30 14.779 30 17.1429V30C30 32.3638 28.0781 34.2857 25.7143 34.2857H4.28571C1.91853 34.2857 0 32.3638 0 30V17.1429C0 14.779 1.91853 12.8571 4.28571 12.8571H5.35714V9.64286C5.35714 4.31719 9.67634 0 15 0C18.8504 0 22.1652 2.25603 23.7121 5.50915C24.221 6.5779 23.7656 7.85491 22.6406 8.36384C21.5692 8.87277 20.3504 8.41741 19.8415 7.34598C18.9777 5.53326 17.1362 4.28571 15 4.28571C12.0402 4.28571 9.64286 6.68437 9.64286 9.64286V12.8571Z" fill="#092C4C"/>
</svg>
