<svg width="30" height="35" viewBox="0 0 30 35" fill="none" xmlns="http://www.w3.org/2000/svg">
<path d="M23.5714 34.2857H6.42857C2.87812 34.2857 0 31.4062 0 27.8571V23.5714C0 22.3861 0.959598 21.4286 2.14286 21.4286C3.32612 21.4286 4.28571 22.3861 4.28571 23.5714V27.8571C4.28571 29.0424 5.24531 30 6.42857 30H23.5714C24.7567 30 25.7143 29.0424 25.7143 27.8571V23.5714C25.7143 22.3861 26.6719 21.4286 27.8571 21.4286C29.0424 21.4286 30 22.3861 30 23.5714V27.8571C30 31.4062 27.1205 34.2857 23.5714 34.2857ZM16.1719 0.482193L25.279 10.1317C25.7143 10.6004 25.8348 11.2835 25.5804 11.8728C25.3259 12.462 24.75 12.8437 24.0469 12.8437L19.2857 12.8504L19.2254 21.4219C19.2254 22.6071 18.3281 23.5647 17.0826 23.5647H12.7969C11.6719 23.5647 10.654 22.6071 10.654 21.4219V12.8504L5.83259 12.8437C5.25134 12.8437 4.67076 12.462 4.41629 11.8728C4.16317 11.2835 4.28371 10.6004 4.72366 10.1317L13.8281 0.482193C14.4375 -0.160731 15.5625 -0.160731 16.1719 0.482193Z" fill="#092C4C"/>
</svg>
