<svg width="166" height="166" viewBox="0 0 166 166" fill="none" xmlns="http://www.w3.org/2000/svg">
<g filter="url(#filter0_f_484_57782)">
<circle cx="83" cy="83.0005" r="60" fill="#FFBAC9"/>
</g>
<path d="M82.9906 86.0005C88.3728 86.0005 92.6562 81.6355 92.6562 76.2505C92.6562 70.8655 88.2931 66.5005 82.9906 66.5005C77.6084 66.5005 73.325 70.8655 73.325 76.2505C73.2406 81.6318 77.6094 86.0005 82.9906 86.0005ZM87.6781 89.0005H78.3219C70.9625 89.0005 65 94.5974 65 101.497C65 102.885 66.1906 104.001 67.6625 104.001H98.3375C99.8094 104.001 101 102.885 101 101.497C101 94.5974 95.0375 89.0005 87.6781 89.0005ZM101 71.0005C105.142 71.0005 108.5 67.6424 108.5 63.5005C108.5 59.3586 105.144 56.0005 101 56.0005C96.8581 56.0005 93.5 59.3586 93.5 63.5005C93.5 67.6424 96.8563 71.0005 101 71.0005ZM70.2406 76.2505C70.2406 75.7397 70.3327 75.2539 70.3915 74.7589C69.3687 74.1974 68.2437 74.0005 67.0531 74.0005H61.2575C56.6975 74.0005 53 77.9193 53 82.7474C53 83.713 53.7394 84.5005 54.6519 84.5005H73.355C71.4406 82.2693 70.2406 79.4099 70.2406 76.2505ZM65 71.0005C69.1419 71.0005 72.5 67.6424 72.5 63.5005C72.5 59.3586 69.1437 56.0005 65 56.0005C60.8581 56.0005 57.5 59.3586 57.5 63.5005C57.5 67.6424 60.8581 71.0005 65 71.0005ZM104.741 74.0005H98.9431C97.7431 74.0005 96.6106 74.2852 95.5813 74.773C95.6375 75.2661 95.7312 75.7443 95.7312 76.2505C95.7312 79.4108 94.5331 82.2702 92.6225 84.5005H111.344C112.259 84.5005 113 83.713 113 82.7474C113 77.9193 109.306 74.0005 104.741 74.0005Z" fill="#092C4C"/>
<defs>
<filter id="filter0_f_484_57782" x="0" y="0.000488281" width="166" height="166" filterUnits="userSpaceOnUse" color-interpolation-filters="sRGB">
<feFlood flood-opacity="0" result="BackgroundImageFix"/>
<feBlend mode="normal" in="SourceGraphic" in2="BackgroundImageFix" result="shape"/>
<feGaussianBlur stdDeviation="11.5" result="effect1_foregroundBlur_484_57782"/>
</filter>
</defs>
</svg>
